<svg width="66" height="40" viewBox="0 0 66 40" fill="none" xmlns="http://www.w3.org/2000/svg">
<path d="M39.0837 21.7008L38.2913 22.4393L37.7901 22.8215C37.4453 23.0769 37.0585 23.323 36.6557 23.5371C36.2718 23.7466 35.8503 23.9392 35.4142 24.1013C34.4784 24.4499 33.344 24.5952 32.243 24.5524C31.129 24.5095 30.0105 24.2634 29.1297 23.8398C28.6212 23.5952 28.1475 23.3261 27.7086 23.0341C27.2696 22.7435 26.8466 22.4133 26.4409 22.0433L26.0977 21.7176C25.0618 22.1381 23.8188 22.664 22.5672 23.2741C21.3024 23.8903 20.0841 24.5738 19.2149 25.271C18.3949 25.9269 18.2848 26.3 17.898 27.6348L17.8618 27.751C17.7082 28.2831 17.3693 29.4543 17.4388 29.7708C17.6706 30.7249 18.8078 31.5216 20.1348 32.1469C21.6443 32.8594 23.4233 33.3258 24.5968 33.5979C27.9592 34.3762 32.0793 34.6392 36.0212 34.3059C39.6082 34.0031 43.0271 33.2065 45.5594 31.861C46.0158 31.6194 46.5011 31.309 46.9125 30.9466C47.2124 30.6821 47.4659 30.3993 47.6151 30.1195C47.9121 29.5568 47.5919 28.5446 47.2892 27.589L47.1602 27.1746C47.0356 26.7755 46.9096 26.433 46.7676 26.1532C46.6575 25.9346 46.5315 25.7542 46.391 25.6272C46.1085 25.3704 45.868 25.1685 45.616 24.9866C45.3726 24.8077 45.1031 24.638 44.751 24.4423C43.8326 23.9285 43.0068 23.4759 42.1651 23.057C41.3495 22.6518 40.5078 22.2696 39.5299 21.8888L39.0837 21.7008V21.7008ZM32.1518 4.60039L31.7447 4.6539C29.9903 4.93218 28.433 5.92909 27.3653 7.38317C26.286 8.85255 25.6949 10.7959 25.8818 12.9457L25.9441 13.4503C26.1657 15.0068 26.6959 16.5755 27.4912 17.9333C28.2228 19.181 29.1747 20.2559 30.3061 20.9806C30.7421 21.2604 31.1217 21.4408 31.5245 21.5356C31.9417 21.635 32.4357 21.6549 33.0919 21.6121C33.5888 21.58 34.0147 21.4485 34.3842 21.2711C34.7739 21.083 35.1447 20.817 35.4939 20.5418C35.8561 20.2559 36.1835 19.9501 36.4776 19.6244C36.7745 19.2956 37.0628 18.921 37.3453 18.5036C37.8857 17.7116 38.3927 16.7009 38.7578 15.574C39.075 14.5924 39.2866 13.5252 39.3141 12.4457C39.3431 11.302 39.1895 10.2577 38.8578 9.31736C38.526 8.37856 38.0059 7.51926 37.3077 6.74558C36.7716 6.15233 35.8821 5.48721 34.8159 5.04992C33.9945 4.71353 33.0746 4.51629 32.1518 4.60039V4.60039ZM31.4187 2.08976L31.8982 2.03319C33.2441 1.9017 34.5508 2.17233 35.6967 2.64326C37.1266 3.22887 38.3362 4.14016 39.0808 4.96582C40.0022 5.98719 40.6947 7.13853 41.1467 8.41831C41.59 9.67209 41.7957 11.0406 41.7566 12.516C41.7218 13.883 41.4639 15.204 41.0757 16.4028C40.7396 17.4425 40.3006 18.4042 39.8197 19.236L40.1036 19.3537L40.3731 19.4608C41.4046 19.8629 42.3129 20.2742 43.2082 20.7207C44.0716 21.1488 44.9307 21.6213 45.8897 22.1579C46.3156 22.3949 46.6604 22.6121 46.9936 22.8536C47.3167 23.0845 47.6239 23.3414 47.9817 23.6671C48.3656 24.0141 48.6683 24.4392 48.919 24.9254C49.1406 25.3566 49.3202 25.8398 49.4839 26.3749L49.6057 26.7694C50.0779 28.2556 50.5748 29.8305 49.7476 31.3809C49.4289 31.9696 48.9798 32.4894 48.4829 32.9282C47.915 33.4282 47.2646 33.8456 46.6605 34.1667C43.8268 35.6713 40.0877 36.5566 36.2124 36.8838C32.0344 37.237 27.6579 36.9556 24.0738 36.1269C22.8105 35.8349 20.8838 35.3257 19.1381 34.5016C17.207 33.5918 15.5163 32.2799 15.0644 30.4069C14.8268 29.4039 15.3077 27.748 15.5236 27.0003L15.5598 26.8657C16.1262 24.9239 16.2871 24.3826 17.7401 23.2191C18.789 22.3781 20.1551 21.6044 21.5415 20.9286C22.8482 20.291 24.239 19.71 25.3863 19.2452C24.4229 17.5893 23.7826 15.6979 23.5189 13.8356L23.448 13.1873C23.2003 10.3433 23.9897 7.76543 25.4298 5.80524C26.8828 3.82824 28.9979 2.47202 31.3796 2.09435L31.4187 2.08976V2.08976Z" fill="#B2B3B3"/>
</svg>
