<svg width="191" height="115" viewBox="0 0 191 115" fill="none" xmlns="http://www.w3.org/2000/svg">
<path fill-rule="evenodd" clip-rule="evenodd" d="M172.193 107.79C174.416 107.209 175.821 105.866 175.94 103.349L175.893 90.4005C164.444 90.4187 160.52 90.4151 147.065 90.375L126.147 90.3969C125.914 91.798 126.089 99.6888 126.083 102.294C126.08 103.706 126.086 104.766 126.797 105.808C127.31 106.561 128.165 107.328 129.282 107.645C130.686 108.046 152.434 107.826 154.868 107.815C160.558 107.787 166.544 108.015 172.193 107.79V107.79ZM176.022 85.5961C175.651 83.8369 177.021 79.183 171.184 78.7047C170.894 77.5961 169.883 75.6037 169.374 74.4175L160.029 52.9878C159.379 51.5126 158.813 50.2038 158.179 48.7686C157.599 47.4549 156.841 45.8219 156.339 44.4706C161.722 43.9606 167.894 46.0817 172.706 43.7663C176.039 42.1637 179.113 38.6281 179.119 35.1532L179.12 34.3409H154.122C153.017 34.3409 152.119 33.4437 152.119 32.3376C152.119 31.2315 153.017 30.3342 154.122 30.3342H179.127L179.132 26.9419H154.122C153.017 26.9419 152.119 26.0447 152.119 24.9386C152.119 23.8337 153.017 22.9352 154.122 22.9352H179.138L179.143 19.674H154.122C153.017 19.674 152.119 18.7768 152.119 17.6719C152.119 16.5658 153.017 15.6686 154.122 15.6686H178.537C177.861 13.3301 175.807 11.2017 174.485 10.228C170.659 7.4075 167.375 8.31325 166.328 8L166.098 8.08013C166.067 8.08742 166.015 8.10563 165.976 8.11291L103.574 10.6723C100.432 10.8083 96.4354 10.7015 93.5418 11.4336C88.7404 12.649 88.4453 15.0323 87.4666 16.3181C83.0684 16.3036 78.2707 15.4537 76.5901 21.0375L76.7164 31.7487C76.7285 32.754 77.5384 33.5784 78.437 34.4684C80.6155 36.626 83.871 36.065 87.3803 36.0784C89.4228 42.6506 96.7487 41.9621 103.867 42.2851C111.076 42.6093 118.409 42.7574 125.626 43.169L127.279 47.3966C125.612 47.6492 123.966 47.2267 123.596 48.8366C123.07 51.1192 124.446 54.8649 126.197 56.4894C127.245 57.4619 129.401 56.9617 130.884 56.9714C131.11 57.2252 131.063 57.1511 131.228 57.5324C131.336 57.7788 131.389 57.9913 131.496 58.2681L139.391 78.6974C134.075 79.1138 128.689 77.2088 126.619 81.0467C125.915 82.352 126.054 84.0238 126.094 85.6411L176.022 85.5961V85.5961ZM14.1299 24.3728H57.6906C57.687 25.06 57.7149 25.8152 57.7149 26.6882C57.7149 27.4154 57.6979 28.0516 57.7003 28.632H14.1299C12.9581 28.632 12 27.674 12 26.5024C12 25.332 12.9581 24.3728 14.1299 24.3728V24.3728ZM66.9521 18.92C65.0529 19.2017 63.5982 20.1694 62.8527 21.1966C62.1957 22.1011 61.8788 22.9049 61.8788 23.8203V28.6089C61.8788 29.8668 62.0694 30.7932 62.9535 31.8798C65.2327 34.6882 71.507 35.0573 71.9976 32.6642L71.9794 20.2507C71.5714 18.4028 68.4081 18.7039 66.9521 18.92Z" fill="white"/>
</svg>
