<svg width="48" height="48" viewBox="0 0 48 48" fill="none" xmlns="http://www.w3.org/2000/svg">
<g filter="url(#filter0_i_356_77)">
<path fill-rule="evenodd" clip-rule="evenodd" d="M23.5484 0C36.5541 0 47.0968 10.5411 47.0968 23.5447C47.0968 36.5484 36.5541 47.0894 23.5484 47.0894C10.5427 47.0894 0 36.5484 0 23.5447C0 10.5411 10.5427 0 23.5484 0V0ZM11.4634 36.9329L24.4353 36.9585L24.4547 26.5777L20.983 26.5654L20.961 22.5059L24.446 22.5034C24.5418 19.6511 24.1475 17.2792 25.8706 15.562C27.4907 13.9457 30.0423 14.0588 32.7823 14.323L32.7982 17.9739C28.3412 17.9739 28.5512 17.9058 28.6515 22.4701L32.6148 22.5074L32.1478 26.5377L28.6566 26.5705L28.6459 36.9364L35.8172 36.9303C37.3329 36.1127 36.9688 35.807 36.9688 33.0577V12.3519C36.975 9.98249 36.1014 10.1315 33.9508 10.1315H13.2417C9.5442 10.1315 10.1387 10.0562 10.1387 17.4184V32.9686C10.1387 34.8128 9.69474 36.6328 11.4624 36.9313L11.4634 36.9329Z" fill="white"/>
</g>
<defs>
<filter id="filter0_i_356_77" x="0" y="0" width="57.0968" height="52.0898" filterUnits="userSpaceOnUse" color-interpolation-filters="sRGB">
<feFlood flood-opacity="0" result="BackgroundImageFix"/>
<feBlend mode="normal" in="SourceGraphic" in2="BackgroundImageFix" result="shape"/>
<feColorMatrix in="SourceAlpha" type="matrix" values="0 0 0 0 0 0 0 0 0 0 0 0 0 0 0 0 0 0 127 0" result="hardAlpha"/>
<feOffset dx="15" dy="5"/>
<feGaussianBlur stdDeviation="5"/>
<feComposite in2="hardAlpha" operator="arithmetic" k2="-1" k3="1"/>
<feColorMatrix type="matrix" values="0 0 0 0 0 0 0 0 0 0 0 0 0 0 0 0 0 0 0.25 0"/>
<feBlend mode="normal" in2="shape" result="effect1_innerShadow_356_77"/>
</filter>
</defs>
</svg>
