<svg width="191" height="115" viewBox="0 0 191 115" fill="none" xmlns="http://www.w3.org/2000/svg">
<path fill-rule="evenodd" clip-rule="evenodd" d="M64.1949 39.306C64.0419 38.047 64.9381 36.9008 66.1974 36.7478C67.4566 36.5948 68.6029 37.4909 68.7559 38.75C70.0163 48.7897 69.8754 58.56 68.6684 68.2222C67.465 77.8479 65.1992 87.3668 62.2059 96.944L62.1865 97.006L62.1877 97.9287C62.2035 107.065 87.4646 108.811 94.6266 106.622C97.0771 105.873 98.8354 104.581 98.8354 102.388C98.8354 97.6373 98.9702 62.8678 98.8682 49.7356C98.8233 44.0801 99.7352 42.7736 94.8974 39.5209C93.5143 38.5921 91.7608 38.1781 90.2272 37.6487C85.3967 35.9817 80.112 35.0298 75.0435 33.3385C66.2398 30.2218 65.3959 26.3329 65.0267 20.7745C64.4767 20.8692 64.3747 21.1448 63.9108 21.5977C63.5465 21.9522 63.2769 22.155 62.9891 22.6079L62.229 23.7868C61.889 24.2567 61.7433 24.6355 61.4798 25.1309C60.433 27.0953 59.9072 28.6725 59.1957 30.7111C58.3566 33.1151 57.8295 35.4657 57.1726 37.928C55.8332 43.7122 54.5218 49.2924 53.1666 54.852C51.5492 61.4897 49.8686 68.0995 48.0046 74.9935C46.4989 80.564 44.1942 82.6984 48.3774 85.4339C49.083 85.8953 50.058 86.3142 51.0902 86.6711C58.2934 89.1577 59.5843 90.2079 61.277 83.1015C62.4986 77.9669 63.4615 72.8298 64.1075 67.6661C65.2647 58.407 65.3473 48.4874 64.1949 39.306V39.306ZM96.6229 36.0473C96.3958 35.3528 96.085 34.9448 95.7146 34.3997L92.4142 29.8175C92.0681 29.4253 91.7014 29.1655 91.3771 28.7648C89.9588 27.1172 80.5868 17.2668 80.6196 14.6819C80.6706 10.5854 87.2995 11.3345 89.705 11.3345C91.3359 11.3345 99.6708 11.2143 103.858 11.2896C109.725 11.3928 111.417 15.3618 107.168 19.9586C104.873 22.7657 102.766 25.2377 100.682 28.012C97.9186 31.6897 100.601 35.6345 102.608 35.2593C104.477 34.912 116.587 27.927 118.065 26.5405C121.035 23.7516 122.22 20.2913 119.432 15.4189C117.617 12.2475 114.601 9.25468 111.356 7.65564C103.656 3.85779 87.1805 4.62392 79.1965 6.89923C76.8067 7.58037 74.8942 8.69131 73.3811 10.277C71.4905 12.256 69.9969 15.2404 69.3752 18.2515C67.2538 28.5208 75.0399 30.2716 83.3615 32.4789C86.9158 33.4223 91.4573 34.8428 94.8403 35.5458L96.6229 36.0473V36.0473ZM103.059 48.0843C103.571 62.3372 102.583 91.8555 102.583 99.5641C102.583 102.249 102.051 105.234 102.085 107.415C102.753 107.909 103.517 108.227 104.327 108.429C110.461 109.962 121.156 109.336 125.597 103.771C126.661 102.439 127.367 100.822 127.563 98.8842L127.545 98.8272C124.553 89.25 122.286 79.7299 121.083 70.1053C119.876 60.4419 119.735 50.6717 120.995 40.6319C121.149 39.3728 122.296 38.4768 123.554 38.6298C124.813 38.7839 125.709 39.9301 125.556 41.1892C124.344 50.8404 124.48 60.2416 125.644 69.548C126.452 76.0121 127.756 82.4313 129.447 88.859C130.01 89.6251 132.41 89.4066 134.9 88.91C136.514 88.5883 143.213 87.2661 144.094 85.0903C144.439 84.244 143.327 81.9372 143.008 81.0533C142.123 78.6092 141.541 76.1165 140.716 73.687L133.594 44.3775C133.008 41.7865 132.221 38.3384 131.243 34.8635C129.924 30.1878 128.254 25.4648 126.249 22.7293C125.754 22.053 125.129 21.1691 124.373 20.8012C124.383 25.6238 123.818 27.0759 120.698 30.2169C116.555 34.3899 106.919 36.7515 103.912 40.213C102.575 41.7513 102.897 43.5835 103.059 48.0843Z" fill="#FEFEFE"/>
</svg>
