<svg width="191" height="115" viewBox="0 0 191 115" fill="none" xmlns="http://www.w3.org/2000/svg">
<path fill-rule="evenodd" clip-rule="evenodd" d="M128.206 33.2024C125.33 46.5944 112.422 59.9792 98.5276 62.1707C101.01 66.2223 103.175 72.0964 103.431 76.6215C103.573 79.1287 103.13 81.2219 101.831 82.362C99.9726 85.3864 94.7135 86.1707 92.3529 82.5514C87.1496 74.5793 93.0001 66.8136 93.9873 62.1173C90.2072 61.9898 85.8624 60.3191 83.1618 58.7844C73.4255 53.2552 67.1439 43.8516 63.7463 33.1198C60.8295 33.0069 58.8174 33.5156 55.5983 33.5423C51.0483 33.5787 39.3849 33.0154 36.3965 35.854C30.6359 41.3238 36.6953 54.5774 39.6363 59.8626C40.9393 62.2035 42.3721 64.4897 43.7892 66.4311C47.1613 71.0522 50.3465 73.6626 53.8959 77.9777L58.8284 83.757C62.1386 87.7613 65.0395 91.9501 68.2283 96.0139C71.7862 100.544 73.8602 103.844 78.6397 107.041C88.1866 113.427 102.416 113.306 112.479 107.428C117.177 104.684 119.807 100.748 123.063 96.5711C129.655 88.1182 132.705 83.7097 139.855 75.8529C142.013 73.4829 145.628 69.4896 147.401 67.1013C151.683 61.3305 156.531 52.3009 157.534 44.8642C157.982 41.5411 157.489 38.0808 155.747 36.1576C152.626 32.7131 137.591 33.6807 131.672 33.4549C130.148 33.3978 129.526 33.0797 128.206 33.2024V33.2024ZM70.2501 31.5086C70.6776 34.6666 72.0995 38.0456 73.3927 40.5698C75.9938 45.6498 80.3009 50.2866 85.7871 52.931C94.0942 56.9317 103.257 55.879 110.354 50.5902C111.092 50.0389 111.32 49.9357 112.077 49.2073C112.654 48.65 113.076 48.2711 113.698 47.7272C116.55 45.2321 121.534 37.0937 121.998 31.6895C118.026 30.7461 114.954 29.396 113.597 26.5695C111.303 21.7918 116.099 9.70253 108.553 5.80633C103.818 3.36225 89.0548 3.57351 84.0908 5.39352C75.5493 8.52481 80.1977 21.1726 78.403 25.9417C77.3235 28.8096 74.0315 30.927 70.2501 31.5086V31.5086Z" fill="#FEFEFE"/>
</svg>
