<svg width="102" height="50" viewBox="0 0 102 50" fill="none" xmlns="http://www.w3.org/2000/svg">
<path fill-rule="evenodd" clip-rule="evenodd" d="M15.0006 35.2216L21.3978 35.1899C21.3978 33.6211 21.1213 23.8831 21.5873 23.3383C22.2064 23.581 23.3345 28.1869 23.6197 29.0736C24.1866 30.84 25.1426 33.4947 25.4775 35.2216H30.124C30.5317 33.296 32.1252 28.6456 32.858 26.2239L33.5058 24.0582C33.7034 23.4586 33.5145 23.6322 33.9753 23.3398C34.0035 23.3798 34.0337 23.3946 34.0419 23.4719L34.1525 23.7464C34.1633 23.795 34.1755 23.836 34.1853 23.8918L34.196 35.1417C35.4496 35.3552 39.096 35.2257 40.5913 35.2216L40.5948 15.1137C32.3648 15.1137 31.7012 14.2448 30.081 19.847C29.7221 21.0871 28.49 26.4584 27.8591 26.997C27.3302 26.8075 27.5365 26.8756 27.1202 25.4185L25.5282 19.9489C23.8839 14.272 23.4266 15.1137 15 15.1137V35.2216H15.0006ZM66.1917 35.1366L72.5773 35.2277L72.586 28.8371C74.9717 28.7439 79.3161 29.1223 81.3014 28.5606C83.2698 28.0036 85.4139 26.1886 85.8348 24.2594L66.2189 24.2558L66.1922 35.1366H66.1917ZM85.8845 23.3398C86.3202 23.0803 86.0447 23.4878 86.2388 22.8642C86.6444 21.5709 85.825 19.0934 84.9038 17.818C84.6662 17.4903 84.4292 17.2574 84.0835 16.9164C81.4479 14.3221 76.8101 15.1137 72.8671 15.1137C70.3441 15.1137 67.8201 15.1137 65.2961 15.1137C65.9065 18.8824 68.7593 21.702 71.9315 22.7925C74.6522 23.7289 82.4843 23.3398 85.8845 23.3398V23.3398ZM43.338 35.2206C53.0228 35.2206 50.591 35.7725 55.0654 26.6314C55.409 25.9315 56.2391 23.5206 56.8725 23.3398C57.3447 23.9209 57.0523 33.6119 57.0523 35.1924L63.4512 35.2129V15.1219C55.2416 14.9847 55.8413 14.7881 53.3403 20.2116L50.952 25.3392C50.5019 26.3365 50.5142 26.7973 49.9729 26.9954C49.9438 26.9673 49.9125 26.8741 49.9038 26.8961C49.8966 26.9192 49.8516 26.8183 49.8418 26.7917C49.5832 26.0687 49.7389 15.9923 49.7374 15.1915C48.5212 14.9826 44.8056 15.1101 43.3385 15.1137V35.2206H43.338Z" fill="white"/>
</svg>
