<svg width="122" height="106" viewBox="0 0 122 106" fill="none" xmlns="http://www.w3.org/2000/svg">
<path d="M10.2842 0H46.8737C49.4358 0 51.7649 1.04781 53.4503 2.73305C55.1358 4.41828 56.1837 6.74823 56.1837 9.31008V95.9699C56.1837 98.5317 55.1358 100.862 53.4503 102.547C51.7649 104.232 49.4358 105.28 46.8737 105.28H10.2842C7.72206 105.28 5.39182 104.232 3.70636 102.547C2.02091 100.862 0.972961 98.5317 0.972961 95.9699V9.31008C0.972961 6.74823 2.02091 4.41828 3.70636 2.73305C5.39182 1.04781 7.72206 0 10.2842 0ZM37.4045 22.0465C38.1319 21.1772 39.4275 21.0618 40.297 21.7891C41.1664 22.5164 41.2818 23.8119 40.5544 24.6812L34.3967 32.0438C33.6693 32.9131 32.3736 33.0285 31.5042 32.3012C30.6348 31.5739 30.5194 30.2784 31.2468 29.4091L37.4045 22.0465ZM33.798 15.0773C34.5303 14.2128 35.8259 14.1048 36.6905 14.8369C37.5551 15.569 37.6632 16.8645 36.9309 17.729L22.607 34.5947C21.8748 35.4592 20.5791 35.5672 19.7145 34.8351C18.8499 34.103 18.7419 32.8075 19.4741 31.943L33.798 15.0773ZM46.8737 5.1407H10.2842C9.13916 5.1407 8.09485 5.61057 7.33956 6.36577C6.58426 7.12097 6.11432 8.16514 6.11432 9.31008V95.9699C6.11432 97.1148 6.58426 98.159 7.33956 98.9142C8.09485 99.6694 9.13916 100.139 10.2842 100.139H46.8737C48.0187 100.139 49.0618 99.6694 49.8171 98.9142C50.5724 98.159 51.0424 97.1148 51.0424 95.9699V9.31008C51.0424 8.16514 50.5724 7.12097 49.8171 6.36577C49.0618 5.61057 48.0187 5.1407 46.8737 5.1407Z" fill="white"/>
<path fill-rule="evenodd" clip-rule="evenodd" d="M78.5716 57.4593L70.3969 38.158C69.5105 35.9726 68.7831 33.3549 68.5973 30.7287C67.9817 22.056 73.6318 17.0258 80.5424 15.156C83.5029 14.3547 85.6911 14.396 88.5775 15.1718C88.5641 19.4905 89.6934 22.98 92.5337 26.0275C92.8555 26.3735 93.3594 26.6928 93.6205 27.119C92.5907 29.9759 89.3983 32.4212 86.6152 33.5771C82.931 35.1081 80.9225 33.6633 79.4192 35.3157C78.5182 36.3077 78.67 37.4344 79.2188 38.702L87.1895 57.5492C88.0857 59.6497 88.9199 61.7963 89.844 63.8324C90.2022 64.6204 92.422 69.7647 92.473 70.2188L85.2855 73.2772C84.869 72.6993 83.9789 70.3159 83.6328 69.5073L80.472 62.0257C80.2935 61.6129 78.9456 58.5594 78.9286 58.1757C78.6457 57.9341 78.6675 57.8284 78.5716 57.4593ZM111.181 56.6216C110.179 54.8987 106.991 56.9725 102.17 54.8125C100.699 54.152 99.8669 53.4879 98.8177 52.627C98.2652 52.1742 96.5992 50.3918 96.3442 49.4666C97.686 48.0667 98.6319 46.7979 99.5414 44.4692C100.588 41.7908 100.572 40.2524 100.39 37.2401C103.903 35.9799 106.662 35.9847 110.357 37.0459C121.123 40.1347 123.471 48.9166 120.084 59.5926C116.406 71.1901 112.22 83.2187 108.431 94.8721L100.938 92.4353C101.041 91.5745 101.976 89.1219 102.31 88.1166L110.875 62.1969C111.13 61.4272 111.329 60.7764 111.591 60.0358C112.022 58.8155 111.905 59.0341 111.908 57.6852C111.888 57.6633 111.863 57.5977 111.854 57.6147L111.181 56.6216ZM85.9582 74.8605C87.0292 74.6007 92.252 72.0388 93.2829 71.8737C94.1123 74.9625 92.2459 75.3595 90.5981 76.0698C89.7165 76.451 88.8677 76.9258 87.8489 76.6647C86.9236 76.4268 86.1695 75.8974 85.9582 74.8605ZM107.823 96.6107C107.601 97.4218 107 98.2195 106.175 98.455C104.967 98.7986 104.315 98.4514 103.257 98.0981C101.086 97.3732 99.7649 96.9616 100.299 94.163C100.719 94.1582 107.495 96.3861 107.823 96.6107ZM94.2094 25.1302C93.3679 24.7223 92.0467 22.5162 91.4918 21.3215C90.8251 19.8839 90.2581 17.9109 90.3151 16.0909C91.8075 16.5499 92.6199 18.7377 93.1165 19.9118C93.7067 21.3045 94.9307 23.445 94.2094 25.1302ZM95.5925 47.6369C94.7461 46.237 95.8159 43.6545 96.2446 42.3566C96.5215 41.5224 96.7522 40.6191 97.1432 39.9489C97.4565 39.411 98.2506 38.4373 98.7667 38.294C98.8711 40.3787 98.6003 41.911 97.9434 43.731C97.5063 44.9427 96.349 47.1609 95.5925 47.6369Z" fill="#FEFEFE"/>
</svg>
