<svg width="146" height="146" viewBox="0 0 146 146" fill="none" xmlns="http://www.w3.org/2000/svg">
<path fill-rule="evenodd" clip-rule="evenodd" d="M0.0103944 70.0168V75.9416L0.945892 83.7166C1.38246 86.2217 1.95415 88.4981 2.64018 90.8056C5.41549 100.15 10.5088 108.809 16.5895 116.272C17.9616 117.956 17.5666 116.927 17.8056 119.473C18.2422 123.995 22.0258 127.623 26.8384 127.903C28.3456 127.986 28.6782 128.735 29.6241 129.514C33.917 133.017 37.4303 135.439 42.7107 138.319C46.5878 140.439 50.7456 142.102 55.1528 143.412C61.5765 145.324 69.8713 145.938 70.0376 145.99H75.9624C76.8252 145.699 78.8417 145.73 79.9123 145.615C81.17 145.48 82.5109 145.283 83.7478 145.064C95.0778 143.131 105.056 138.131 113.902 131.406C114.838 130.699 115.42 130.263 116.345 129.473C118.06 127.997 117.738 128.007 119.099 127.862C121.677 127.581 123.662 126.396 124.993 124.982C126.843 123.008 126.989 122.01 127.591 118.819C127.706 118.237 130.699 114.744 131.385 113.86C133.828 110.711 136.229 106.99 138.256 103.217C146.333 88.1343 145.065 78.6961 146 75.9624V70.0376L145.033 62.2834C143.027 51.0574 137.674 41.3594 130.814 32.7008C128.444 29.7072 127.851 29.8632 127.415 27.3685C126.989 24.9258 125.481 22.9093 124.141 21.8595C120.752 19.2193 119.318 20.3731 118.07 19.1777C109.183 10.6751 96.2211 3.36779 83.6751 0.997864C82.0847 0.696426 76.7732 0.301438 75.952 0H70.0272C69.2268 0.25986 67.1583 0.25986 66.1189 0.374199C51.4108 2.06849 37.95 8.72092 27.275 18.5125C24.7283 20.8512 24.8011 19.0218 21.3293 21.3293C16.7246 24.3853 17.868 28.1689 16.5791 29.7176C13.4296 33.5012 10.2281 38.2307 7.78542 42.825C4.61512 48.7914 2.12046 55.3607 0.935498 62.273L0 70.0376L0.0103944 70.0168Z" fill="#2A2925"/>
<path fill-rule="evenodd" clip-rule="evenodd" d="M68.7069 2.13964C52.6059 3.44934 39.9144 10.0082 28.7923 19.8102C27.94 20.5586 27.3995 21.5356 26.121 21.7019C22.3374 22.2009 19.666 24.6436 19.2399 28.1569C18.9384 30.6204 19.271 29.4874 17.9302 31.2232C13.6061 36.8362 10.9659 40.5366 7.65009 47.5944C-1.1124 66.2212 0.623464 86.6359 10.706 104.286C12.8889 108.111 15.4043 111.479 17.9406 114.763C18.5434 115.543 19.6972 116.53 19.8012 117.341C20.0194 119.066 19.5621 119.493 20.3313 121.312C21.1732 123.287 22.7428 124.877 24.988 125.584C25.9858 125.906 28.2102 125.76 28.8027 126.155C29.3328 126.509 30.5282 127.652 31.1519 128.182C51.9615 145.78 79.7874 149.356 104.401 135.406C110.212 132.111 117.186 126.145 117.207 126.135C117.924 125.74 123.485 126.343 125.284 120.719C126.406 117.195 123.932 119.836 128.142 114.794C129.473 113.204 130.72 111.489 131.999 109.701C134.285 106.489 136.634 102.394 138.422 98.4439C146.727 80.077 145.937 59.1218 135.023 42.0334C132.518 38.1043 130.325 35.2355 127.55 31.7949C127.103 31.2336 125.783 29.9135 125.658 29.3314C125.294 27.6995 125.627 27.2733 124.743 25.6414C123.787 23.864 121.926 22.2632 119.64 21.8267C116.771 21.2758 118.008 21.6812 114.245 18.4381C102.135 7.97091 85.7641 0.757184 68.7069 2.15004V2.13964Z" fill="#FEFEFE"/>
<path fill-rule="evenodd" clip-rule="evenodd" d="M68.6445 5.02983C66.0459 5.36245 63.6656 5.44561 61.1813 6.03809C58.8426 6.59939 56.6286 7.11911 54.4561 7.86751C50.1424 9.34352 46.4732 11.017 42.7832 13.1791C38.1473 15.892 34.3637 18.7817 30.5282 22.0975C29.6446 22.8563 29.0106 23.5735 28.283 24.2283C27.046 25.3301 24.437 23.5111 22.5556 27.0764C21.6929 28.7083 22.3997 29.7686 22.0255 30.7352L16.4645 37.949C14.1362 41.3271 11.8494 45.1523 10.2175 48.8631C0.0101519 72.0946 4.99947 94.4115 20.4664 113.309C24.6553 118.433 22.3166 115.429 22.67 118.963C22.8987 121.312 24.9256 123.048 27.2123 123.058C30.4866 123.069 27.3891 121.375 32.5967 125.647C44.9868 135.802 59.9132 142.299 77.012 141.01C91.0237 139.96 103.071 134.118 112.925 126.031C117.467 122.31 115.18 123.194 118.475 123.038C120.804 122.923 122.695 120.98 122.716 118.62C122.747 115.481 122.269 117.539 125.689 113.246C135.678 100.7 142.403 86.283 141.021 68.8308C140.231 58.8729 136.967 50.5678 132.445 43.3125C130.2 39.7056 127.789 36.5041 125.253 33.5209C120.637 28.0951 123.641 31.0886 122.519 27.6689C121.323 24.0308 117.706 24.7065 117.041 24.5713C116.636 24.4882 115.16 23.0434 114.754 22.6692C113.975 21.9519 113.392 21.4634 112.509 20.715C107.925 16.8275 102.593 13.2206 96.9797 10.4973C89.7556 6.98398 78.5296 3.77211 68.6445 5.02983Z" fill="#DE0A7D"/>
<path fill-rule="evenodd" clip-rule="evenodd" d="M70.1414 37.0135C60.0277 38.4375 52.71 41.3687 45.9952 49.0606C40.4966 55.37 35.871 64.7562 36.9625 75.9821C37.8668 85.254 42.3052 94.2451 49.0512 100.045C60.2044 109.629 75.9311 112.259 89.9844 104.899C97.697 100.856 103.892 93.715 106.823 85.6074C113.912 65.9307 103.767 46.0878 85.7331 39.082C81.3986 37.3981 75.5154 36.2443 70.1414 37.0031V37.0135Z" fill="#FEFEFE"/>
<path fill-rule="evenodd" clip-rule="evenodd" d="M12.4731 72.9165L32.9709 72.9685C33.262 65.9938 34.1247 62.0959 36.4946 56.5349C42.2116 43.1157 56.7637 32.9292 73.0206 32.9604C89.5893 32.9811 103.591 43.0741 109.495 56.431C111.927 61.9504 112.758 65.973 113.081 72.9165L133.568 72.9789C134.046 60.7862 129.13 47.7412 122.748 38.4278C121.958 37.274 120.482 35.2055 119.536 34.1661C118.725 33.2722 116.157 34.4779 114.307 31.7338C112.873 29.603 114.276 28.6259 113.039 27.5345C112.582 27.1291 112.353 26.9732 111.948 26.6301C110.513 25.3724 109.152 24.4161 107.603 23.2935C98.2063 16.5164 85.5147 12.4626 73.031 12.4522C57.1379 12.4418 43.4589 18.2626 32.1705 28.314C30.3723 29.9148 31.8899 31.0998 29.3225 32.9604C26.9318 34.6858 28.1167 31.4636 23.3145 38.4486C16.8388 47.8659 12.1509 60.5783 12.4835 72.9477L12.4731 72.9165Z" fill="#FEFEFE"/>
<path fill-rule="evenodd" clip-rule="evenodd" d="M75.4428 127.611L73.2496 128.141L74.0811 131.8C75.4532 131.758 77.8023 131.082 79.1432 130.739C80.7751 130.324 82.4486 129.96 84.0182 129.596C87.282 128.837 90.5043 128.016 93.7786 127.309C93.8617 126.426 93.2484 124.534 93.051 123.567L90.8058 123.962C90.338 123.214 88.3735 114.16 87.9681 112.424C86.5336 112.466 83.4465 113.401 81.8666 113.765C77.7504 114.711 78.3117 114.233 76.898 116.468C76.2328 117.518 74.1643 120.48 74.1227 121.176C74.0396 122.341 75.3492 125.895 75.4532 127.611H75.4428Z" fill="#FEFEFE"/>
<path fill-rule="evenodd" clip-rule="evenodd" d="M70.1101 63.6332C67.6466 64.1633 65.8276 65.3586 64.8817 67.2192C61.6802 73.5183 69.3201 81.6883 77.3966 79.9316C82.1052 78.913 85.1092 74.1731 82.178 69.1214C80.2239 65.764 75.536 62.4586 70.1101 63.6332Z" fill="#BB2274"/>
<path fill-rule="evenodd" clip-rule="evenodd" d="M64.1645 45.8483C60.5369 46.3368 60.7552 45.9834 56.8572 47.3243C53.1153 48.6132 48.8431 51.3885 46.2445 54.2366C39.9871 61.0969 49.5604 63.0822 57.7927 55.38C60.9838 52.3968 62.7717 48.9874 69.7151 49.6734C74.3095 50.1308 78.7687 52.5943 82.334 54.5484C84.4232 55.6918 85.7433 56.752 87.9678 57.6459C88.5706 57.885 91.0965 58.7997 91.5538 57.9266C91.8241 57.4069 89.8803 56.0348 89.4126 55.671C83.1343 50.7025 72.9686 44.6529 64.1645 45.8483Z" fill="#DE0A7D"/>
<path fill-rule="evenodd" clip-rule="evenodd" d="M54.3627 87.9359C54.6226 89.6094 62.9173 94.7234 64.3309 95.5342C73.1246 100.617 82.6459 102.01 91.9801 97.4364C95.0672 95.9188 100.15 92.4262 101.46 89.2144C102.832 85.857 99.3705 85.3476 96.6368 85.805C92.7389 86.4598 88.5499 90.1914 86.0345 92.7589C84.7664 94.0478 83.1968 95.5862 80.6814 96.1371C75.744 97.2077 70.2558 94.8585 66.6593 93.0083C62.8445 91.0542 57.3979 86.9068 54.3627 87.9359Z" fill="#DE0A7D"/>
<path fill-rule="evenodd" clip-rule="evenodd" d="M97.8429 37.9074C98.1651 38.7493 99.9738 40.35 100.691 41.1088C102.021 42.5121 102.188 42.0547 105.867 42.0236L108.591 42.0028C108.289 42.8031 105.805 44.7781 105.171 45.62C105.441 46.1397 108.975 49.7986 109.693 50.3495C110.379 50.0688 114.692 45.7032 115.347 45.0691L121.022 39.6328C120.7 38.583 119.567 37.8242 118.912 37.1382C118.174 36.369 117.28 35.1424 116.449 34.7786C115.711 35.2152 115.16 35.8701 114.578 36.4417C113.476 37.5332 113.861 37.4084 111.512 37.4084L108.352 37.4188C108.747 36.3482 112.468 33.3338 113.684 31.9306C113.487 31.3693 109.724 27.4921 109.142 27.1699C108.029 27.7416 100.005 36.0883 97.8325 37.9178L97.8429 37.9074Z" fill="#DE0A7D"/>
<path fill-rule="evenodd" clip-rule="evenodd" d="M51.0782 127.238C53.1883 127.57 55.9636 128.464 58.0633 128.984C62.0132 129.971 61.3167 130.065 65.0795 128.724C67.491 127.872 66.5139 128.88 68.0731 122.945C68.5513 121.126 69.6635 117.457 69.7986 115.596C67.5014 115.003 65.2458 114.338 62.8447 113.787C58.6454 112.831 59.9655 112.582 55.8181 113.995C53.469 114.796 54.2589 114.058 52.7725 119.868C52.3256 121.635 51.1406 125.533 51.0678 127.217L51.0782 127.238Z" fill="#FEFEFE"/>
<path fill-rule="evenodd" clip-rule="evenodd" d="M111.917 90.1387C112.904 90.8352 114.921 91.2094 115.524 92.3735C115.846 92.9972 117 96.0843 117.062 96.9159L110.098 93.465C109.495 94.3797 107.364 98.5686 107.375 99.265C108.861 100.097 120.565 106.032 121.438 106.229C121.958 105.273 122.239 104.67 122.717 103.714C123.164 102.841 123.922 101.905 123.59 100.897C123.112 99.4625 121.573 96.5105 121.407 95.0969L125.929 97.2589C126.438 96.5001 128.662 92.228 128.673 91.4692C126.594 90.4713 115.524 84.692 114.64 84.5361C114.328 84.9623 112 89.3176 111.927 90.1491L111.917 90.1387Z" fill="#FEFEFE"/>
<path fill-rule="evenodd" clip-rule="evenodd" d="M15.3837 88.9133C15.55 89.6721 17.6808 93.9546 18.0758 94.6511C19.4375 94.5263 26.8175 90.2334 29.0315 89.5682L29.7488 90.7012C29.9462 91.117 30.1541 91.4704 30.2477 91.9693L19.531 97.2497C19.635 98.0085 21.8594 102.592 22.2856 103.071L36.5675 96.1998C36.4947 94.9317 30.9025 84.1423 29.9151 81.9595C29.229 82.0634 16.7869 88.1857 15.3941 88.9133H15.3837Z" fill="#FEFEFE"/>
<path fill-rule="evenodd" clip-rule="evenodd" d="M101.491 124.837C102.125 124.514 105.94 121.542 106.376 120.991C105.67 119.598 103.009 117.197 102.842 116.064C103.528 115.513 104.194 114.827 105.004 114.577L108.57 119.193C109.276 119.026 113.226 115.856 113.632 115.336L104.038 102.998C103.372 103.092 96.3457 108.684 96.1275 109.058C96.0443 109.204 94.6618 116.105 95.14 116.947L101.481 124.847L101.491 124.837Z" fill="#FEFEFE"/>
<path fill-rule="evenodd" clip-rule="evenodd" d="M31.7445 32.6478C33.5115 35.1217 35.3202 35.0385 34.9044 36.8783C34.7589 37.5228 34.5926 38.4479 34.3223 38.9988C33.6986 38.6869 32.5345 37.4188 32.0459 36.9407C31.4327 36.3482 30.3516 35.1113 29.5825 34.789L25.6326 38.7285C25.1232 39.3002 25.2896 39.0196 25.1129 39.6952L36.3388 50.3599C37.0145 50.0376 40.7253 46.0462 40.9228 45.6096L36.1517 40.8906C36.6818 40.3604 37.3783 40.3604 38.2098 40.1733C39.4156 39.8927 39.4052 40.1006 40.0808 40.7866C40.7876 41.5038 42.3052 43.2189 43.0952 43.4684C43.6981 43.011 47.201 39.3938 47.5128 38.8636C47.1594 37.845 44.6855 36.1403 43.9371 35.1217L39.0414 35.922L39.7586 31.203C39.2181 30.4857 36.8897 28.147 36.1621 27.9287C35.3098 28.7395 32.0563 31.9306 31.7549 32.6582L31.7445 32.6478Z" fill="#DE0A7D"/>
<path fill-rule="evenodd" clip-rule="evenodd" d="M87.6456 23.3759L85.1717 32.4502C86.3463 32.8452 90.5768 34.0718 91.6266 34.0822L95.7324 18.9895C95.0048 18.5633 86.8764 16.4013 86.1696 16.474C84.2986 16.8378 82.3132 15.2891 80.4422 15.4658C79.7978 16.5572 79.5795 19.2389 79.0806 20.2992C78.5713 21.3698 78.7687 21.4737 78.4361 22.5132L76.9393 28.0014C76.534 28.8746 76.5339 29.0721 76.9185 29.8101C77.5006 30.0491 81.3154 31.047 82.1677 31.0574C82.3029 30.361 82.2509 29.9972 82.4588 29.467L82.9369 27.9287C83.6333 25.5795 83.1968 26.5878 83.3423 25.4964C83.3943 25.0702 83.228 25.4028 83.5398 25.3509C83.5502 25.3509 83.5918 25.3613 83.6229 25.3509C83.6645 25.1534 83.6853 24.8831 83.7165 24.7168L85.1821 20.1744C85.9721 19.3637 86.9492 19.8418 87.8015 20.3719C87.8535 20.4031 88.6434 20.611 88.5083 21.8272C88.2692 23.8541 87.9574 23.3343 87.656 23.3863L87.6456 23.3759Z" fill="#DE0A7D"/>
<path fill-rule="evenodd" clip-rule="evenodd" d="M70.1102 64.5382C65.7446 65.5985 63.3435 69.7562 66.2331 74.309C68.021 77.1363 72.3347 80.1403 77.2616 79.0592C81.7936 78.0614 83.9868 73.5294 81.1803 69.1949C79.3925 66.4404 75.1619 63.3013 70.1102 64.5382Z" fill="#FEDBF5"/>
<path fill-rule="evenodd" clip-rule="evenodd" d="M30.1335 112.041C30.3829 112.426 34.2393 115.7 34.8733 115.97C35.6945 115.606 36.4741 114.286 37.2432 113.392C38.3451 113.371 45.1222 115.918 46.671 116.323C47.0556 115.96 51.7331 110.534 52.0241 109.858C51.8266 109.484 40.9333 100.285 40.1121 99.9834C39.0519 101.345 30.5596 111.22 30.1335 112.051V112.041Z" fill="#FEFEFE"/>
<path fill-rule="evenodd" clip-rule="evenodd" d="M59.9965 23.3344L57.0653 23.0745L55.6517 17.7526C54.9241 17.5967 50.153 18.8856 49.2695 19.3221C49.2279 20.2057 50.5272 25.0287 50.9326 25.7563C51.2133 25.9954 58.3334 26.5671 59.6119 26.6918C61.3478 26.8581 60.9009 26.7957 61.379 28.1678C61.2335 28.7811 61.4726 28.6771 60.4851 28.8642C57.8449 29.3424 59.3417 29.2592 57.19 29.7477C55.4854 30.1323 54.3316 30.5273 52.7932 30.8911C52.9387 32.1281 53.0011 31.2238 53.2194 32.3256C53.4688 33.5625 53.2714 34.0822 54.4771 33.8535L60.7865 32.1281C62.9486 31.7851 64.8819 30.9119 66.0877 30.5689C66.6282 30.413 67.3766 30.3506 67.9899 30.1739C68.1146 28.6667 67.3246 25.8602 66.8049 24.4154C66.5658 23.7398 66.6074 23.2928 66.4203 22.6795C66.1916 21.9104 66.0149 21.8064 65.859 20.9749L64.4973 15.7776C63.9672 15.7569 59.8406 16.8171 59.2377 17.0769C58.9259 18.5114 60.3396 22.0039 60.298 22.6276C60.2252 23.8229 60.4851 23.1369 59.9758 23.3552L59.9965 23.3344Z" fill="#DE0A7D"/>
<path fill-rule="evenodd" clip-rule="evenodd" d="M70.1937 65.1611C60.2566 67.978 68.198 80.5968 77.3451 78.4244C81.4717 77.4369 83.2179 73.1648 80.5258 69.3084C78.8834 66.9489 74.7984 63.8514 70.1937 65.1611Z" fill="#DE0A7D"/>
<path fill-rule="evenodd" clip-rule="evenodd" d="M46.3697 60.9526C48.2615 62.7509 53.4483 62.9276 56.4731 62.2727C62.3355 61.0046 58.4792 60.5265 66.9819 60.8695C68.9672 60.9526 73.364 61.2333 75.0167 60.0275C75.6404 59.5702 76.0562 58.749 75.2766 58.1565C73.7798 57.0131 67.2001 57.6056 64.8614 56.3791C64.7574 54.5393 68.7905 53.6661 70.8278 53.6038C73.7902 53.5206 76.472 54.1339 79.3512 53.9156C79.1121 53.4894 67.512 47.1177 61.6495 52.6579C58.5624 55.5787 56.0573 58.4788 51.7125 60.2354C49.54 61.1189 48.8644 60.8591 46.3801 60.9422L46.3697 60.9526Z" fill="#DE0A7D"/>
<path fill-rule="evenodd" clip-rule="evenodd" d="M81.2322 89.775C80.8476 91.5941 77.064 92.3217 75.0267 92.3736C72.1059 92.436 69.5177 91.8643 66.68 92.041C66.9503 92.5192 78.644 98.8286 84.2882 93.3819C87.3857 90.3883 90.2338 87.3531 94.3292 85.7316C96.4808 84.8793 97.1357 85.0871 99.6615 85.0248C97.7282 83.2577 92.7492 83.0083 89.5477 83.7047C84.4337 84.8169 86.3151 85.7108 78.935 85.1287C77.0537 84.9832 72.4281 84.7649 70.9002 86.033C70.3389 86.5008 69.9335 87.3739 70.8898 87.904C73.2493 89.2137 79.5691 88.1535 81.2322 89.7854V89.775Z" fill="#DE0A7D"/>
<path fill-rule="evenodd" clip-rule="evenodd" d="M105.119 128.682C104.568 128.838 97.7803 132.705 90.7433 134.69C75.3076 139.045 57.9073 137.59 43.6774 130.075C42.8562 129.649 40.8813 128.474 40.1744 128.297C42.1286 130.366 51.1302 134.472 54.2381 135.553C59.7887 137.476 65.8902 138.692 72.4699 138.775C81.9496 138.9 90.3379 136.654 98.404 132.694C99.5578 132.133 104.703 129.347 105.119 128.682Z" fill="#FEDBF5"/>
<path fill-rule="evenodd" clip-rule="evenodd" d="M17.255 105.004L14.2198 98.7359C8.79392 85.9923 7.21397 71.6376 10.5922 58.0001C11.2366 55.4119 11.9746 52.9588 12.8685 50.5889L15.7686 43.687C14.0535 44.768 10.2284 54.8714 9.45916 57.4596C5.24942 71.6168 7.06845 85.8468 13.6377 98.767L17.255 104.983V105.004Z" fill="#FEDBF5"/>
<path fill-rule="evenodd" clip-rule="evenodd" d="M120.232 54.9851C114.172 56.4299 116.376 65.2444 122.228 63.9866C128.163 62.7081 126.188 53.5714 120.232 54.9851Z" fill="#BB2274"/>
<path fill-rule="evenodd" clip-rule="evenodd" d="M128.724 105.067C130.803 102.448 133.776 96.5747 135.169 92.7703C140.782 77.4282 140.023 59.9863 131.687 46.7646C135.231 55.4856 138.038 65.8072 137.082 77.2411C136.416 85.276 134.826 91.8245 131.718 98.9966C130.793 101.117 129.618 103.123 128.724 105.067Z" fill="#FEDBF5"/>
<path fill-rule="evenodd" clip-rule="evenodd" d="M41.0373 17.1823C41.0996 17.1616 48.8539 13.3156 53.2091 11.9228C66.7323 7.59869 80.7855 7.73382 94.1943 12.3801C95.109 12.7023 96.5747 13.3468 97.4686 13.4923C95.5144 11.8188 87.7394 9.29298 84.3612 8.48221C74.2682 6.06031 62.6681 7.09976 53.0532 10.8521C51.6084 11.4134 42.2638 15.5296 41.0373 17.1719V17.1823Z" fill="#FEDBF5"/>
<path fill-rule="evenodd" clip-rule="evenodd" d="M26.7344 55.3711L26.7551 55.4958C25.5078 55.6102 24.8114 55.1008 23.3978 55.5686C22.3999 55.9012 23.3978 55.7661 22.4103 56.3482C21.7658 56.7328 21.7554 56.4105 21.3397 57.107C20.3938 58.6973 20.5497 60.8697 21.6619 62.2834C23.4601 64.539 28.8236 63.9777 28.9172 59.4665C28.938 58.24 28.9068 58.531 28.1584 58.1984C28.4079 57.4708 28.5118 57.4396 28.0752 56.7847C27.6075 56.0779 27.5347 56.4313 26.8071 56.0155L26.7136 55.3711H26.7344Z" fill="#DE0A7D"/>
<path fill-rule="evenodd" clip-rule="evenodd" d="M123.008 55.6408C122.031 55.4433 120.44 55.1835 119.494 55.6408C119.027 55.8695 119.526 55.7759 118.372 56.4724C117.717 56.8674 117.79 56.9089 117.519 57.6261C116.646 59.9233 117.124 62.0334 119.505 63.1456C122.956 64.7463 126.407 61.7735 124.951 57.7301C124.141 55.4745 123.818 57.3039 123.008 55.6408Z" fill="#DE0A7D"/>
<path fill-rule="evenodd" clip-rule="evenodd" d="M68.7383 69.963C70.3598 70.3476 69.5699 68.0712 71.5968 70.9297C71.9502 71.4286 72.3867 71.9691 72.7609 72.5096C73.3534 73.3516 74.5592 74.7964 74.9853 75.7215C74.5176 76.5011 74.1954 75.9814 74.2473 77.3638C75.2868 77.3638 76.5653 76.5427 77.4592 76.1581C78.8105 75.5656 79.5901 75.5864 79.7876 74.0584C77.7918 73.996 78.4155 74.8588 77.0434 72.9774C76.3678 72.0523 76.004 71.5638 75.2764 70.5451C74.7359 69.8071 72.366 66.1379 71.5552 65.8364C70.9315 66.2626 68.7383 68.9963 68.7279 69.9734L68.7383 69.963Z" fill="#FEDBF5"/>
<path fill-rule="evenodd" clip-rule="evenodd" d="M81.7314 78.1543C80.141 79.4224 79.0808 80.3579 76.399 80.7217C70.6093 81.5013 63.5723 77.2708 63.5931 69.6309C63.3333 69.8699 63.4996 69.6724 63.2709 69.9739C63.1877 70.0882 63.115 70.2129 63.0422 70.3377C62.0236 72.2191 63.1773 75.1295 64.0193 76.6887C66.462 81.1791 72.2413 83.5282 76.6693 82.3016C78.8937 81.678 81.326 80.3371 81.7314 78.1647V78.1543Z" fill="#DE0A7D"/>
<path fill-rule="evenodd" clip-rule="evenodd" d="M48.6876 87.2192C48.9371 87.9052 49.727 88.425 50.2883 88.9551C50.7977 89.4228 51.5669 90.0777 52.1178 90.5974C55.9741 94.1939 60.2982 97.2186 65.7864 97.4889C65.4122 96.9692 62.0548 95.1086 61.348 94.672C60.1007 93.8924 53.7809 89.4332 53.3963 88.4042C53.0948 87.583 54.0511 87.7181 51.3174 86.8138C50.2987 86.4812 49.3113 86.2421 48.6668 87.2296L48.6876 87.2192Z" fill="#DE0A7D"/>
<path fill-rule="evenodd" clip-rule="evenodd" d="M97.3021 58.956C97.2398 58.0516 96.4186 57.667 95.8261 57.1161C91.1694 52.7921 86.731 48.8422 80.2241 48.4888C80.7126 49.0605 83.7478 50.7236 84.5482 51.2433C86.0138 52.1788 87.3547 53.1351 88.7267 54.1849C90.2027 55.3075 92.3024 56.7108 92.6766 57.8645C92.8429 58.3531 92.5415 58.4154 94.2877 59.0287C95.4519 59.4445 96.2731 59.6628 97.2917 58.956H97.3021Z" fill="#DE0A7D"/>
<path fill-rule="evenodd" clip-rule="evenodd" d="M59.9965 23.3339C60.5058 23.1156 60.246 23.8016 60.3187 22.6063C60.3603 21.9826 58.9466 18.4901 59.2585 17.0556C59.8614 16.7958 63.9879 15.7355 64.5181 15.7563L65.8797 20.9535C66.0356 21.7851 66.202 21.8786 66.441 22.6582C66.6281 23.2715 66.5865 23.7185 66.8256 24.3941C67.3453 25.8389 68.1353 28.6454 68.0106 30.1526C67.3973 30.3189 66.6489 30.3917 66.1084 30.5476C64.8923 30.8906 62.9693 31.7533 60.8073 32.1068L54.4978 33.8322C53.2921 34.0713 53.4896 33.5412 53.2401 32.3043C53.0218 31.2024 52.9491 32.1068 52.8139 30.8698C54.3627 30.506 55.5165 30.111 57.2108 29.7264C59.3624 29.2379 57.8656 29.3211 60.5058 28.8429C61.4933 28.6662 61.2646 28.7702 61.3997 28.1465L52.2007 30.558L53.1777 34.4767C54.2484 34.5287 66.7425 31.0153 68.8421 30.4437C68.8317 28.4895 65.3912 18.3653 64.9234 15.1431L58.4581 16.775C58.4165 18.4069 59.8198 21.4733 60.0069 23.3235L59.9965 23.3339Z" fill="#BB2274"/>
<path fill-rule="evenodd" clip-rule="evenodd" d="M108.206 90.4515C106.876 90.992 106.772 90.6282 106.117 92.021C105.763 92.7694 105.15 93.7257 104.994 94.4949C105.899 94.391 107.167 93.7985 107.957 93.5282C109.703 92.9461 109.329 93.0085 110.119 91.4805C110.784 90.1916 111.054 89.8798 110.576 88.331C110.285 87.3747 109.994 86.1066 109.568 85.2646C107.011 89.9941 108.04 88.2894 108.196 90.4411L108.206 90.4515Z" fill="#FEFEFE"/>
<path fill-rule="evenodd" clip-rule="evenodd" d="M87.7145 23.5864C88.016 23.5344 88.3278 24.0541 88.5669 22.0272C88.702 20.8215 87.912 20.6032 87.86 20.572C87.0181 20.0419 86.0306 19.5533 85.2406 20.3745L83.775 24.9169C83.7438 25.0832 83.7231 25.3534 83.6815 25.5509C83.6607 25.5613 83.6087 25.5509 83.5983 25.5509C83.2761 25.6029 83.4528 25.2703 83.4008 25.6964C83.2553 26.7775 83.6919 25.7692 82.9954 28.1287L82.5173 29.6671C82.3094 30.1972 82.3614 30.561 82.2263 31.2574C81.3739 31.2471 77.5592 30.2388 76.9771 30.0101C76.5925 29.2721 76.5925 29.0746 76.9979 28.2015L78.4947 22.7132C78.8377 21.6738 78.6298 21.5698 79.1391 20.4992C79.638 19.4494 79.8563 16.7572 80.5008 15.6658C82.3822 15.4891 84.3571 17.0379 86.2281 16.6741C85.698 16.2167 80.6047 14.9694 80.0538 15.0006L76 30.2076L82.3614 31.9123C82.4134 31.798 82.4549 31.6836 82.4653 31.7148L83.2657 29.1682C83.5256 28.1703 83.8062 27.2036 84.0453 26.2681C84.3987 24.8857 85.0639 21.5698 85.6772 20.5928C86.5711 20.6032 87.4235 20.863 88.0783 21.1749C88.1719 22.048 87.8496 22.7548 87.7145 23.576V23.5864Z" fill="#BB2274"/>
<path fill-rule="evenodd" clip-rule="evenodd" d="M58.2295 124.546L60.8905 125.19C61.379 123.423 62.5432 119.525 62.6263 117.862L60.0381 117.249L58.2295 124.546Z" fill="#DE0A7D"/>
<path fill-rule="evenodd" clip-rule="evenodd" d="M81.804 126.053L84.3298 125.513C84.3506 124.889 82.7915 117.821 82.5108 117.249C82.0327 117.561 81.7104 118.205 81.2947 118.85C80.8269 119.567 80.3592 119.952 80.5878 121.085C80.9205 122.737 81.3882 124.432 81.8144 126.053H81.804Z" fill="#DE0A7D"/>
<path fill-rule="evenodd" clip-rule="evenodd" d="M26.0173 26.6616C25.2585 26.911 25.0194 26.7863 24.5932 27.649C23.2108 30.4347 26.194 31.6821 27.4309 31.2351C30.3621 30.1749 28.9277 25.6845 26.0173 26.6616Z" fill="#BB2274"/>
<path fill-rule="evenodd" clip-rule="evenodd" d="M70.2975 68.2272C71.129 68.7365 70.8172 68.0401 72.0645 69.7448L76.1183 75.7112C76.6484 75.5345 77.4176 75.2746 77.8438 74.8173L76.2535 72.8631C75.7025 72.1355 75.2452 71.4495 74.7255 70.7427C74.0706 69.8487 72.1892 66.9279 71.5656 66.6265L70.3078 68.2272H70.2975Z" fill="#DE0A7D"/>
<path fill-rule="evenodd" clip-rule="evenodd" d="M26.7345 55.3706L26.828 56.0151C27.5557 56.4309 27.6284 56.0775 28.0962 56.7843C28.5327 57.4391 28.4288 57.4703 28.1793 58.1979C28.9277 58.5306 28.9589 58.2395 28.9381 59.466C28.855 63.9668 23.481 64.5385 21.6828 62.2829C20.5602 60.8693 20.4147 58.6969 21.3606 57.1065C21.7764 56.3997 21.7868 56.7219 22.4312 56.3477C23.4187 55.7656 22.4208 55.9008 23.4187 55.5681C24.8219 55.1004 25.5183 55.6097 26.7761 55.4954C25.9341 54.5911 24.1151 54.8094 23.138 55.1835C19.4376 56.5972 19.1882 61.8152 22.7326 63.603C25.2585 64.8815 27.961 63.5718 28.9485 61.5761C30.279 58.9047 28.751 56.0047 26.7553 55.3706H26.7345Z" fill="#BB2274"/>
<path fill-rule="evenodd" clip-rule="evenodd" d="M24.115 57.4487C21.7035 58.5297 23.1691 61.7312 25.4662 61.0348C27.8362 60.3176 26.6304 56.3261 24.115 57.4487Z" fill="#FEFEFE"/>
<path fill-rule="evenodd" clip-rule="evenodd" d="M120.502 57.4707C118.039 58.6245 119.816 62.0131 122.134 60.9425C124.276 59.955 122.852 56.3689 120.502 57.4707Z" fill="#FEFEFE"/>
<path fill-rule="evenodd" clip-rule="evenodd" d="M26.6411 116.385C24.0633 117.383 25.6745 120.834 28.0132 119.961C30.2168 119.129 29.063 115.439 26.6411 116.385Z" fill="#FEFEFE"/>
<path fill-rule="evenodd" clip-rule="evenodd" d="M117.509 27.0969C114.973 28.1571 116.553 31.5353 118.891 30.6726C120.981 29.9034 119.983 26.0575 117.509 27.0969Z" fill="#FEFEFE"/>
<path fill-rule="evenodd" clip-rule="evenodd" d="M117.675 116.333C115.098 117.081 116.314 120.73 118.756 120.002C120.846 119.389 120.232 115.585 117.675 116.333Z" fill="#FEFEFE"/>
<path fill-rule="evenodd" clip-rule="evenodd" d="M25.9443 27.1606C23.5848 28.2208 25.04 31.5262 27.4099 30.6635C29.6135 29.8527 28.439 26.0484 25.9443 27.1606Z" fill="#FEFEFE"/>
<path fill-rule="evenodd" clip-rule="evenodd" d="M44.3218 88.8609C45.0806 89.5054 49.9347 90.867 51.0885 90.8878C50.7247 90.4409 50.205 90.0147 49.6853 89.5573C48.1261 88.2061 48.1989 87.4473 45.9849 87.6655C44.9662 87.7695 44.5297 88.0397 44.3218 88.8609Z" fill="#BB2274"/>
<path fill-rule="evenodd" clip-rule="evenodd" d="M101.699 57.1065C101.013 56.5036 96.117 55.1004 94.9424 55.0796C95.2854 55.5162 95.8155 55.9527 96.3353 56.4101C97.8528 57.7302 97.8425 58.5097 100.036 58.2915C101.065 58.1875 101.47 57.9277 101.688 57.1065H101.699Z" fill="#BB2274"/>
<path fill-rule="evenodd" clip-rule="evenodd" d="M40.3616 109.65C40.9645 110.243 42.2118 110.544 43.1993 110.669C43.5319 110.128 44.3323 109.432 44.5297 108.756C44.0932 108.289 43.1577 107.364 42.5444 107.166L40.3616 109.64V109.65Z" fill="#DE0A7D"/>
<path fill-rule="evenodd" clip-rule="evenodd" d="M100.961 114.016C101.741 113.902 102.832 112.935 103.165 112.405C102.874 111.792 101.564 109.973 100.868 109.619C100.764 110.347 100.649 111.178 100.556 111.885C100.369 113.278 100.348 113.101 100.961 114.016Z" fill="#BB2274"/>
</svg>
