<svg width="48" height="48" viewBox="0 0 48 48" fill="none" xmlns="http://www.w3.org/2000/svg">
<g filter="url(#filter0_i_363_60)">
<path fill-rule="evenodd" clip-rule="evenodd" d="M23.5474 0C36.5531 0 47.0958 10.5411 47.0958 23.5447C47.0958 36.5484 36.5531 47.0894 23.5474 47.0894C10.5427 47.0894 0 36.5484 0 23.5447C0 10.5411 10.5427 0 23.5474 0V0ZM23.0574 19.9824C19.0203 19.9716 14.8496 17.8106 12.1142 15.094L10.9723 13.9037C10.7188 14.1244 10.618 14.4582 10.4992 14.7833C10.3778 15.1135 10.2856 15.4785 10.2227 15.8241C9.57235 19.4387 12.1726 21.121 12.5802 21.6796C11.3144 21.6494 10.6615 21.1374 10.1095 21.033C10.1069 23.9871 11.8838 25.9525 14.6089 26.8229C13.994 27.1992 12.9079 27.0098 12.1915 26.954C12.6636 29.0239 14.9592 30.9325 17.5184 31.0318C17.4309 31.3871 16.2834 31.9611 15.9372 32.1336C13.0344 33.5738 12.1854 33.4647 9.03368 33.4996C9.72649 34.162 12.1961 35.1676 13.3877 35.5014C18.7643 37.0035 24.6703 35.7548 28.5707 32.4986C32.325 29.3648 34.8019 24.5676 34.7655 19.2544C34.7594 18.2714 35.0179 18.5509 36.1588 17.4235C36.5592 17.0268 37.3652 16.1692 37.6345 15.5927C36.8132 15.7565 35.9586 16.3059 34.5223 16.3934C35.5223 15.5077 36.5234 14.7193 36.868 13.2607C36.0902 13.5131 34.6631 14.367 33.5202 14.5467C33.0117 14.6266 32.8673 14.3051 32.536 14.0491C29.7817 11.9249 26.0805 12.4937 24.0978 15.1412C22.9913 16.6187 22.8628 17.8275 23.0579 19.9819L23.0574 19.9824Z" fill="white"/>
</g>
<defs>
<filter id="filter0_i_363_60" x="0" y="0" width="57.0958" height="52.0898" filterUnits="userSpaceOnUse" color-interpolation-filters="sRGB">
<feFlood flood-opacity="0" result="BackgroundImageFix"/>
<feBlend mode="normal" in="SourceGraphic" in2="BackgroundImageFix" result="shape"/>
<feColorMatrix in="SourceAlpha" type="matrix" values="0 0 0 0 0 0 0 0 0 0 0 0 0 0 0 0 0 0 127 0" result="hardAlpha"/>
<feOffset dx="15" dy="5"/>
<feGaussianBlur stdDeviation="5"/>
<feComposite in2="hardAlpha" operator="arithmetic" k2="-1" k3="1"/>
<feColorMatrix type="matrix" values="0 0 0 0 0 0 0 0 0 0 0 0 0 0 0 0 0 0 0.25 0"/>
<feBlend mode="normal" in2="shape" result="effect1_innerShadow_363_60"/>
</filter>
</defs>
</svg>
