<svg width="48" height="48" viewBox="0 0 48 48" fill="none" xmlns="http://www.w3.org/2000/svg">
<path fill-rule="evenodd" clip-rule="evenodd" d="M24.1349 0C37.1406 0 47.6833 10.5411 47.6833 23.5447C47.6833 36.5484 37.1406 47.0894 24.1349 47.0894C11.1302 47.0894 0.587524 36.5484 0.587524 23.5447C0.587524 10.5411 11.1302 0 24.1349 0ZM23.6449 19.9824C19.6078 19.9716 15.4371 17.8106 12.7017 15.094L11.5598 13.9037C11.3064 14.1244 11.2055 14.4582 11.0867 14.7833C10.9654 15.1135 10.8732 15.4785 10.8102 15.8241C10.1599 19.4387 12.7601 21.121 13.1677 21.6796C11.9019 21.6494 11.249 21.1374 10.697 21.033C10.6945 23.9871 12.4713 25.9525 15.1965 26.8229C14.5815 27.1992 13.4954 27.0098 12.779 26.954C13.2512 29.0239 15.5467 30.9325 18.106 31.0318C18.0184 31.3871 16.8709 31.9611 16.5247 32.1336C13.6219 33.5738 12.7729 33.4647 9.62121 33.4996C10.314 34.162 12.7836 35.1676 13.9752 35.5014C19.3518 37.0035 25.2578 35.7548 29.1582 32.4986C32.9126 29.3648 35.3894 24.5676 35.353 19.2544C35.3469 18.2714 35.6055 18.5509 36.7463 17.4235C37.1468 17.0268 37.9527 16.1692 38.2221 15.5927C37.4007 15.7565 36.5461 16.3059 35.1098 16.3934C36.1098 15.5077 37.1109 14.7193 37.4555 13.2607C36.6777 13.5131 35.2506 14.367 34.1077 14.5467C33.5992 14.6266 33.4548 14.3051 33.1235 14.0491C30.3692 11.9249 26.668 12.4937 24.6854 15.1412C23.5788 16.6187 23.4503 17.8275 23.6454 19.9819L23.6449 19.9824Z" fill="white"/>
</svg>
