<svg width="102" height="50" viewBox="0 0 102 50" fill="none" xmlns="http://www.w3.org/2000/svg">
<path fill-rule="evenodd" clip-rule="evenodd" d="M64.9443 35.3943L70.6682 35.4245C70.8869 34.5291 71.2505 32.8764 72.0094 32.4156L78.7733 32.4227C79.3556 36.3221 79.0549 35.4281 84.4378 35.4174L80.0622 15.3847C72.1625 15.3545 74.2267 14.5087 70.3068 23.0881C69.3748 25.1263 68.5109 27.1758 67.6081 29.2141C66.8727 30.874 65.3775 33.799 64.9443 35.3948V35.3943ZM30.1956 26.0239C29.4265 24.0486 28.7685 17.5817 27.9118 16.3283C27.0638 15.0872 24.7164 15.4001 22.9001 15.4001C21.7341 15.4001 17.698 15.1512 17 15.5834C17.3349 16.0626 16.9682 15.7323 17.5315 15.9597C17.6114 15.9914 18.2633 16.1588 18.4272 16.207C19.0135 16.378 19.4646 16.5505 19.9961 16.7553C20.9911 17.1388 22.088 17.6651 22.8525 18.1966C23.4337 21.1835 26.1594 30.1085 27.2998 34.3867C27.7064 35.9104 27.7792 35.4025 33.4463 35.3948L41.9712 15.3908L36.1474 15.3765L30.8106 28.5905C30.3436 27.438 30.9832 29.1777 30.6903 28.292L30.1951 26.0234L30.1956 26.0239ZM40.7786 35.4158L46.1118 35.4169C46.6132 34.4594 49.3276 17.7255 49.6261 15.3571H44.169L40.7786 35.4153V35.4158ZM50.4163 30.2447L49.6773 34.5639C53.4477 37.1069 66.8738 35.9606 65.1302 27.8143C64.4128 24.4597 60.9993 23.9923 58.4804 22.2075C56.3481 20.6956 58.1347 17.7096 65.2878 20.1483L66.0269 15.9694C63.7466 14.3448 54.9158 14.3715 52.5327 19.1253C50.7901 22.6012 52.886 25.2185 56.0531 26.7463C57.2376 27.3177 59.5189 28.1635 59.5081 29.5771C59.4938 31.3071 57.1659 31.6056 55.3132 31.5063C52.992 31.3813 52.0964 30.6026 50.4169 30.2442L50.4163 30.2447ZM73.3418 28.2608L77.8193 28.313C77.595 26.8241 76.6554 22.1071 76.192 21.0089L73.3413 28.2608H73.3418Z" fill="white"/>
</svg>
