<svg width="48" height="48" viewBox="0 0 48 48" fill="none" xmlns="http://www.w3.org/2000/svg">
<path fill-rule="evenodd" clip-rule="evenodd" d="M23.936 0C36.9417 0 47.4844 10.5411 47.4844 23.5447C47.4844 36.5484 36.9417 47.0894 23.936 47.0894C10.9303 47.0894 0.387573 36.5484 0.387573 23.5447C0.387573 10.5411 10.9303 0 23.936 0ZM16.6806 15.3224C16.6806 15.4985 17.0094 15.4473 17.1297 15.4949C17.2716 15.5497 17.5132 15.6188 17.5921 15.6695C17.6382 15.6997 17.6746 15.7084 17.7319 15.7315C17.8082 15.7632 17.8046 15.7775 17.8676 15.8139C17.927 15.8492 17.9393 15.8528 17.99 15.8927C18.307 16.14 18.2701 16.1134 18.4897 16.4498C18.627 16.6597 18.7069 16.9786 18.7663 17.23C18.8318 17.5126 18.8282 17.6872 18.8707 17.9642L18.9122 18.3415C18.9158 18.4193 18.9306 18.4444 18.9291 18.5427C18.9281 18.6958 18.946 18.7864 18.946 18.9456C18.945 19.2308 18.9629 19.4842 18.9629 19.7843V21.1092C18.9629 21.2255 18.9485 21.2838 18.9444 21.3775C18.9419 21.4707 18.9481 21.569 18.947 21.6637C18.9435 21.7461 18.9229 21.8578 18.9142 21.933C18.9045 22.0385 18.9071 22.0958 18.8912 22.1951C18.8789 22.2632 18.8538 22.3518 18.8461 22.4353C18.8036 22.9713 18.7575 22.9426 18.7248 23.1863C18.6874 23.4654 18.6521 23.4239 18.5866 23.6184C18.5502 23.7229 18.4565 23.9179 18.3925 24.0116C18.3146 24.1243 18.1958 24.2261 18.0709 24.2773C17.7795 24.3951 17.6218 24.3439 17.3417 24.2226C17.2787 24.1944 17.2398 24.1463 17.183 24.112C17.0473 24.0321 16.9234 23.9215 16.801 23.8242C16.7708 23.8002 16.7539 23.7925 16.7283 23.7623C16.7027 23.7306 16.7027 23.7224 16.6689 23.687C16.5235 23.5381 16.3437 23.3548 16.2285 23.1884C16.101 23.0066 15.9362 22.8474 15.8194 22.6569C15.7103 22.4772 15.5219 22.2699 15.4287 22.0927C15.3109 21.8741 15.1107 21.6437 15.0088 21.439L13.998 19.7479C13.9627 19.6568 13.9376 19.6373 13.8961 19.5662C13.8643 19.5114 13.8439 19.4387 13.8065 19.3864L13.7072 19.218C13.677 19.1366 13.6416 19.1223 13.6078 19.0496C13.5776 18.9851 13.5689 18.9211 13.528 18.8617L13.4347 18.6871C13.3779 18.5437 13.106 18.0394 13.0758 17.9545C12.998 17.7312 12.8571 17.5142 12.8187 17.4087C12.7665 17.2689 12.6984 17.1819 12.6503 17.0411L12.4936 16.6433C12.4583 16.5716 12.4367 16.5404 12.4096 16.459C12.3609 16.3136 12.3174 16.2721 12.2836 16.1825C12.2729 16.1523 12.2642 16.1072 12.2545 16.077C12.2253 15.9823 12.1889 15.9787 12.1623 15.9025C12.0932 15.6961 12.1126 15.7786 12.0337 15.627L11.9037 15.4207C11.8914 15.4048 11.8868 15.3966 11.8755 15.3818C11.8003 15.2799 11.6886 15.1852 11.5821 15.1222C11.5335 15.093 11.4633 15.0495 11.4121 15.0229C11.2943 14.9625 11.1269 14.9379 11.0081 14.8918C10.8397 14.8253 10.7106 14.8713 10.5083 14.8544C10.3399 14.8411 10.1627 14.8386 9.96967 14.8386C9.46734 14.8386 6.13385 14.8181 5.92903 14.8411C5.87936 14.8473 5.86346 14.8596 5.79331 14.8555C5.71804 14.8529 5.73292 14.8411 5.65765 14.837L5.22905 14.8785C5.16607 14.8908 4.79481 14.9707 4.74105 15.0121C4.58333 15.1335 4.54184 15.1212 4.41946 15.3116C4.27148 15.5384 4.39032 15.8477 4.44972 16.0796C4.46661 16.1451 4.47888 16.2117 4.50807 16.2726L4.92692 17.1788C4.973 17.2479 4.97557 17.2833 5.00118 17.357C5.03036 17.4394 5.05803 17.4589 5.09439 17.5331C5.12972 17.6073 5.12969 17.6509 5.17219 17.7225C5.21213 17.7891 5.23261 17.8121 5.25975 17.9043C5.28792 18.0016 5.29512 17.9929 5.34376 18.0717C5.3837 18.1347 5.38726 18.1976 5.42157 18.2621L5.60234 18.619C5.63511 18.6748 5.64484 18.7393 5.67505 18.7972C5.7114 18.8663 5.7416 18.8868 5.76976 18.9697L6.28441 20.0326C6.31002 20.1478 6.31821 20.1165 6.37402 20.1964C6.41653 20.2568 6.41909 20.3177 6.45288 20.3858C6.47849 20.4345 6.47948 20.4232 6.50764 20.4647C6.57062 20.5578 6.55732 20.5932 6.65205 20.7232L7.32798 22.0103C7.35205 22.0538 7.34844 22.0625 7.36943 22.1035L7.87789 23.0363C7.89735 23.0691 7.91066 23.0824 7.93114 23.1162C7.97006 23.1781 7.98085 23.2385 8.0172 23.2995C8.05458 23.365 8.08991 23.3773 8.12422 23.4607L8.50056 24.1401C8.5405 24.2226 8.53949 24.2313 8.59992 24.2932C8.67621 24.371 8.84005 24.6864 8.8974 24.8006C8.92915 24.8651 8.964 24.8989 8.99831 24.9521C9.11711 25.138 9.22257 25.3438 9.34905 25.525L9.70699 26.1061C9.73003 26.1476 9.73002 26.1379 9.75664 26.1742C9.77866 26.2034 9.78839 26.2275 9.80375 26.2602C9.86571 26.3826 10.134 26.7138 10.2298 26.891L10.6471 27.5146C10.6676 27.5386 10.686 27.5617 10.7055 27.5898C10.7977 27.7183 10.9093 27.8397 10.9907 27.9759C11.0936 28.1504 11.5407 28.7377 11.6569 28.8872L12.3681 29.7534C12.4941 29.8891 12.5888 30.0591 12.7199 30.1891L13.4772 30.9924C13.4798 30.995 13.4834 30.997 13.4859 31.0011C13.6754 31.2059 13.8925 31.3907 14.0963 31.5812C14.1245 31.6078 14.1352 31.6237 14.1654 31.6467L14.8777 32.2437C14.9289 32.2811 14.9904 32.3138 15.0344 32.3543L15.0938 32.4137C15.1194 32.4331 15.1496 32.45 15.1752 32.4659L15.4809 32.6963C15.6857 32.8043 16.1578 33.1576 16.2879 33.2154C16.3197 33.2297 16.3412 33.2384 16.3678 33.2518L16.6248 33.3987C16.7232 33.4714 16.8589 33.5359 16.9695 33.5902C17.0279 33.6194 17.0775 33.6424 17.1333 33.6777C17.206 33.7212 17.2511 33.7248 17.3228 33.7576C17.3857 33.7868 17.4185 33.8195 17.4974 33.8523L18.0386 34.0986C18.1032 34.1288 18.1707 34.1375 18.2378 34.1677C18.3218 34.203 18.3121 34.2199 18.4222 34.2516C18.4913 34.2711 18.5594 34.2798 18.6198 34.3064C18.6961 34.3392 18.7145 34.3648 18.8077 34.3853C18.9644 34.4206 19.0576 34.481 19.2143 34.5174C19.4944 34.5793 19.3925 34.5696 19.6147 34.6361C19.689 34.6582 19.7556 34.6617 19.8221 34.6797C19.8902 34.6981 19.9568 34.7283 20.0249 34.7452C20.1181 34.7693 20.1268 34.7718 20.2384 34.7841L20.6921 34.8665C20.7709 34.8824 20.8411 34.8921 20.9144 34.9126C21.0173 34.9443 21.7321 35.0329 21.8524 35.0329H23.9503C24.295 35.0329 24.681 35.0718 24.9406 34.9991L25.2996 34.8389C25.3626 34.8123 25.4404 34.7918 25.4911 34.7611C25.6212 34.6858 25.804 34.4723 25.8454 34.3279C25.8941 34.1651 25.9509 34.0853 25.9642 33.9107L25.997 33.1704C25.996 33.0587 26.0114 33.0198 26.0139 32.919C26.0175 32.7649 26.06 32.6072 26.0794 32.4654C26.0999 32.321 26.1122 32.1172 26.144 31.9923C26.1624 31.9181 26.19 31.8832 26.2085 31.8044C26.2474 31.6319 26.252 31.5423 26.3324 31.3933C26.3688 31.3252 26.3626 31.2612 26.3944 31.1859C26.4235 31.1178 26.4599 31.0912 26.4891 31.0293C26.5229 30.9566 26.528 30.9105 26.569 30.8398C26.7221 30.5777 26.8373 30.4866 27.081 30.2951C27.1937 30.2076 27.3033 30.163 27.4497 30.1277C27.757 30.055 28.1681 30.2403 28.4021 30.4323C28.4569 30.4774 28.5076 30.5014 28.5634 30.5393C28.5998 30.5624 28.6008 30.5711 28.6387 30.5987L29.8195 31.7829C29.8425 31.8111 29.861 31.8244 29.8861 31.851C29.9081 31.874 29.9189 31.8909 29.9373 31.9155C29.9593 31.9447 29.9736 31.9616 29.9992 31.9897C30.203 32.2288 30.4022 32.4689 30.6239 32.6896C30.7888 32.8524 30.9455 33.0623 31.1273 33.2431L31.7812 33.8968C31.8467 33.9649 31.8687 33.9614 31.9379 34.0095C32.029 34.075 32.1514 34.2051 32.3798 34.3566L32.7039 34.5522C32.7766 34.5921 32.7828 34.6187 32.8688 34.6551C32.9052 34.6694 32.9333 34.6791 32.9635 34.695L33.2559 34.8056C33.4536 34.8614 33.2933 34.8675 33.6358 34.9454C33.7208 34.9648 33.7521 34.9879 33.8397 35.0109C33.9451 35.0375 33.9707 35.0242 34.0823 35.0365C34.3932 35.0693 34.7388 35.0329 35.0593 35.0339H39.2869C39.5296 35.0339 39.8041 35.0739 40.037 34.995L40.628 34.7959C40.7626 34.7605 40.7119 34.7861 40.8138 34.7145C41.0033 34.5808 40.9096 34.7268 41.1718 34.4185C41.4109 34.137 41.3853 33.9199 41.3853 33.5743L41.2204 33.1023L40.3069 31.6672L39.2162 30.4077C39.1835 30.3714 39.1481 30.3238 39.1205 30.2864C39.0549 30.2024 38.9751 30.1482 38.9095 30.0622L38.6315 29.7857C38.6289 29.7831 38.6253 29.7795 38.6228 29.7785C38.6069 29.7642 38.6033 29.7616 38.5874 29.7468C38.546 29.7079 38.5183 29.6777 38.4784 29.6377C38.4041 29.5635 38.3401 29.5077 38.2745 29.4232C38.186 29.309 37.9468 29.0991 37.8413 28.9998C37.7651 28.9297 37.6847 28.8698 37.6191 28.7853C37.5085 28.6409 37.3667 28.5477 37.231 28.4361L36.5152 27.7593C36.4691 27.7132 36.4373 27.7035 36.3973 27.66L36.2422 27.4961C36.1378 27.4004 35.6923 26.9028 35.6452 26.8178C35.598 26.7328 35.5566 26.7051 35.5248 26.6033C35.4911 26.4942 35.4168 26.4384 35.384 26.3242C35.2944 26.0053 35.298 25.8752 35.3779 25.5429C35.3973 25.4641 35.3984 25.418 35.4337 25.3463L35.5453 25.0893C35.5658 25.0494 35.5791 25.0381 35.5976 25.0079L35.7773 24.6839C35.9022 24.4837 36.0599 24.3029 36.1874 24.1028C36.2033 24.0761 36.2166 24.0557 36.2335 24.0326L36.4045 23.8181C36.4435 23.7695 36.4665 23.7188 36.5054 23.6666C36.5428 23.6143 36.5674 23.5744 36.6099 23.5212L37.0502 22.9703C37.1572 22.8285 37.2459 22.6646 37.3708 22.5371L38.0759 21.614C38.0989 21.5849 38.1112 21.5618 38.1307 21.5352C38.166 21.4855 38.2034 21.4466 38.2433 21.3954C38.2689 21.3616 38.2653 21.3581 38.2894 21.3238C38.4046 21.1563 38.548 20.9976 38.6642 20.8261C38.7042 20.7678 38.7308 20.7411 38.7713 20.6817L38.9264 20.4683C38.9505 20.4319 38.9653 20.4283 38.9894 20.3966C39.0293 20.3433 39.0329 20.2937 39.0826 20.2389L39.4467 19.7305C39.4723 19.6967 39.483 19.688 39.5061 19.6563L40.4779 18.1275C40.5169 18.062 40.5507 18.0425 40.5798 17.9785C40.6136 17.9043 40.6233 17.8777 40.6623 17.8101L40.9936 17.1332C41.0274 17.0324 41.075 16.9802 41.1426 16.7815C41.1959 16.631 41.2445 16.5778 41.2727 16.4068C41.286 16.3218 41.2967 16.2916 41.3274 16.2112C41.4114 15.9915 41.3858 15.7888 41.3858 15.5635C41.3858 15.5297 41.3044 15.436 41.2829 15.3818C41.2317 15.2533 41.2573 15.2922 41.1544 15.2082C41.0694 15.1381 40.9711 15.1028 40.8825 15.0444C40.778 14.9763 40.6715 14.9666 40.544 14.9461C40.4411 14.9292 40.3986 14.9087 40.2977 14.8913C40.1001 14.856 39.952 14.8427 39.7406 14.8427H34.3722C34.2836 14.8427 34.2447 14.857 34.1853 14.8585C34.1233 14.8611 34.0906 14.8427 34.002 14.8427C33.2329 14.8427 33.514 14.8995 33.218 14.965C33.0931 14.9917 33.0895 15.0162 32.9436 15.1606C32.9267 15.1775 32.8924 15.2174 32.8734 15.2405C32.8309 15.2901 32.7991 15.3664 32.7571 15.4263C32.6235 15.6193 32.5933 15.8728 32.4755 16.0668C32.4284 16.1482 32.4269 16.205 32.3941 16.2875C32.3588 16.376 32.324 16.3991 32.2968 16.4923C32.2631 16.6136 32.2615 16.6279 32.2072 16.7216C32.1658 16.7933 32.1514 16.8614 32.1248 16.9413L31.8846 17.4717C31.8651 17.5285 31.8565 17.5285 31.8242 17.5797C31.7638 17.6708 31.7561 17.8039 31.6905 17.8986C31.6455 17.9632 31.6337 18.0359 31.5887 18.0988C31.5144 18.2017 31.5047 18.3123 31.4381 18.4178L31.2415 18.8253C31.2015 18.9129 31.1795 18.9456 31.1386 19.0245L30.8702 19.5267C30.8083 19.6604 30.7463 19.7971 30.6577 19.9199C30.6162 19.9757 30.6286 19.9624 30.6009 20.0305C30.561 20.1252 30.5266 20.1385 30.4759 20.2066L30.0161 20.9879C29.9921 21.0243 29.9772 21.0427 29.9557 21.079L29.8308 21.2572C29.8077 21.29 29.799 21.3192 29.7785 21.3545C29.6377 21.5767 29.394 21.8772 29.287 22.0887C29.2711 22.1189 29.2552 22.1588 29.2358 22.188C29.2117 22.2279 29.1923 22.2392 29.1605 22.2801L28.8983 22.6211C28.8743 22.6564 28.8568 22.6795 28.8338 22.7087L28.7037 22.8812C28.6755 22.9165 28.6566 22.9406 28.6295 22.9759L28.1271 23.5462L27.5618 24.0536C27.4041 24.1811 27.1102 24.3255 26.8993 24.2927C26.6519 24.2538 26.6494 24.1908 26.4978 24.0705C26.4348 24.0193 26.2684 23.8022 26.2428 23.7234C26.2013 23.5995 26.1639 23.5959 26.1399 23.5232C26.1107 23.4418 26.1061 23.3522 26.0707 23.2744C26.0026 23.1213 26.0016 22.9406 25.976 22.7481C25.9663 22.6779 25.9617 22.5407 25.952 22.4701C25.9202 22.23 25.9105 21.4702 25.9335 21.269L25.9637 20.0592C25.9637 19.9583 25.9637 19.858 25.9637 19.7571C25.9637 19.6455 25.9806 19.5836 25.9806 19.4551C25.9796 19.0352 25.999 18.6533 25.9975 18.2478L26.0472 16.1851C26.0472 16.0371 26.0216 15.9496 26.0144 15.8164L25.9683 15.4427C25.9524 15.3567 25.955 15.3587 25.9233 15.286C25.8941 15.2205 25.8797 15.2011 25.8638 15.1273C25.8275 14.9492 25.8091 14.9722 25.7256 14.8473C25.613 14.6799 25.5848 14.6481 25.4512 14.5186L25.189 14.3599L24.7158 14.196C24.5786 14.172 24.4916 14.1853 24.3625 14.1464C24.0799 14.0588 23.5617 13.9959 23.2621 13.9887C23.194 13.9861 23.1346 13.9933 23.0665 13.9815C23.0009 13.9718 22.9646 13.9559 22.8929 13.9549C22.7557 13.9513 22.6103 13.9549 22.473 13.9559C22.325 13.9559 22.2293 13.9375 22.07 13.9375C21.7362 13.9385 21.155 13.9047 20.8713 13.9472C20.6224 13.9846 20.3449 13.9278 20.0997 13.9641C19.9261 13.9907 19.7346 13.9738 19.5574 14.0092C19.5088 14.0199 19.4412 14.0215 19.3679 14.0215C18.8825 14.025 18.6239 14.1418 18.3331 14.1781C18.1974 14.195 18.1303 14.2073 18.0151 14.2631C17.9567 14.2913 17.9337 14.3082 17.8707 14.3189C17.7811 14.3373 17.5056 14.4367 17.4365 14.4889C17.1866 14.6783 16.6842 14.985 16.6842 15.3311L16.6806 15.3224Z" fill="white"/>
</svg>
