<svg width="59" height="59" viewBox="0 0 59 59" fill="none" xmlns="http://www.w3.org/2000/svg">
<path d="M29.3582 58.7213C13.1458 58.7213 0.00315475 45.5761 0.00315475 29.3606C0.00315475 13.1452 13.1458 0 29.3582 0C45.5706 0 58.7134 13.1452 58.7134 29.3606C58.7134 45.5761 45.5706 58.7213 29.3582 58.7213Z" fill="#E4097F"/>
<path fill-rule="evenodd" clip-rule="evenodd" d="M40.0921 55.6412L39.1177 55.008C39.1118 55.0033 39.1034 54.9962 39.0964 54.9915L38.8743 54.7729C38.8696 54.7682 38.8614 54.7599 38.8567 54.754L38.82 54.7162C38.8153 54.7115 38.8071 54.7032 38.8024 54.6973L38.696 54.5827C38.6452 54.5284 38.6512 54.5355 38.611 54.4847L38.4574 54.3016C38.4526 54.2957 38.4445 54.2874 38.4386 54.2827L38.2224 53.9909C38.2177 53.9838 38.2105 53.9767 38.2058 53.9708L35.9062 51.3388C35.8838 51.3152 35.8507 51.2798 35.8188 51.2443L34.1806 49.49C33.8452 49.1451 33.5145 48.8108 33.1271 48.5225L32.7445 48.2461C32.7374 48.2414 32.7291 48.2355 32.722 48.2308L32.6251 48.1764C32.4633 48.0949 32.2082 47.9732 32.0204 47.9413C31.9542 47.9295 31.9224 47.9331 31.8562 47.9142C31.4629 47.8067 30.8487 47.8196 30.4554 47.9059C30.218 47.9579 29.4078 47.9449 29.1149 47.9461C28.1795 47.9461 27.4282 47.8563 26.5034 47.835L24.9598 47.7121C24.8653 47.6968 24.8109 47.6566 24.7212 47.6413C24.4117 47.5846 24.0256 47.62 23.7043 47.5952C23.4232 47.5728 23.6228 47.568 23.4704 47.5208C23.3523 47.483 22.9945 47.4877 22.8279 47.4558C22.6602 47.4239 22.757 47.4121 22.5681 47.392C22.4606 47.3802 22.3484 47.3873 22.2397 47.3731C21.955 47.3365 21.3916 47.1794 21.0951 47.1581C20.7597 47.1333 20.3783 46.9632 20.0204 46.9266C19.9188 46.9159 19.8126 46.9112 19.7181 46.8805L18.929 46.6454C18.8097 46.5946 18.8192 46.6005 18.6657 46.5828L18.466 46.5485C18.4578 46.545 18.4484 46.5403 18.4401 46.5379L18.1306 46.4139C17.9983 46.3572 18.0149 46.3808 17.8578 46.3501C17.7787 46.3347 17.7999 46.3395 17.7468 46.3158L17.6559 46.2674C17.6476 46.2638 17.637 46.2603 17.6275 46.2568C17.6192 46.2532 17.6086 46.2509 17.5991 46.2473L17.4941 46.2001C17.4149 46.1599 17.5141 46.1859 17.3724 46.1469L15.0668 45.1369C15.0597 45.1321 15.0503 45.1274 15.042 45.1227L12.7436 43.3731C12.7377 43.3684 12.7295 43.3613 12.7248 43.3554L11.5129 41.6898C11.5081 41.6838 11.5023 41.6744 11.4975 41.6685L11.3215 41.372C11.2743 41.2928 11.2483 41.2279 11.2058 41.1582L10.985 40.7128C10.8739 40.4919 10.7286 40.2544 10.6719 40.0264C10.64 39.8965 10.6211 39.9272 10.5727 39.7985L10.1451 38.6868C10.1085 38.5982 10.1274 38.6348 10.1062 38.5462L9.87824 37.7796C9.84281 37.5398 9.83929 37.6685 9.78851 37.4996C9.75898 37.4027 9.76838 37.3082 9.74121 37.2031C9.67271 36.9314 9.57005 36.7246 9.54052 36.4163C9.51572 36.1576 9.44946 36.2427 9.42702 35.8646C9.40931 35.5681 9.329 35.5823 9.31364 35.2787C9.29829 34.9952 9.31607 34.9349 9.23221 34.6999C9.16961 34.5262 9.18971 34.2462 9.16254 34.0619C9.12239 33.7796 9.0916 33.7879 9.08215 33.4736C9.07624 33.2586 9.04681 33.0555 9.0043 32.8676L8.86012 30.31C8.85185 29.5292 8.81995 28.733 8.87546 27.9533C8.88609 27.8139 8.91564 27.7678 8.92863 27.6521C8.97588 27.2551 8.96177 26.785 8.97004 26.3703C8.97476 26.1766 9.07512 25.5847 9.08457 25.1217C9.0893 24.8441 9.107 24.7236 9.15897 24.5204C9.21094 24.3125 9.16721 24.0679 9.21445 23.8754C9.27941 23.606 9.29597 23.6615 9.30661 23.3178C9.31724 22.9823 9.38337 22.9634 9.41053 22.7259C9.4436 22.4342 9.41407 22.4223 9.49911 22.1459C9.57116 21.9132 9.62075 21.28 9.71642 21.0343C9.76484 20.9114 9.74484 20.8724 9.76728 20.7437C9.79799 20.557 9.82156 20.6504 9.85817 20.4791C9.88179 20.3751 9.87236 20.2983 9.90662 20.1944L10.0578 19.6758C10.1039 19.5683 10.1003 19.4761 10.1381 19.3816C10.2054 19.2139 10.1735 19.3993 10.2278 19.1583C10.2786 18.9268 10.2952 18.9752 10.3554 18.8016L10.6849 18.0243C10.6885 18.016 10.692 18.0054 10.6956 17.9971C10.7003 17.9888 10.705 17.9806 10.7097 17.9723L10.7735 17.8553C10.7771 17.8471 10.7806 17.8376 10.7841 17.8282L11.0924 17.2151C11.096 17.208 11.1019 17.1985 11.1055 17.1926C11.1362 17.1406 11.1373 17.13 11.1716 17.0733L11.3783 16.7343C11.383 16.7272 11.3889 16.7189 11.3936 16.7106L12.5842 15.1702L13.9389 13.9475C13.9448 13.9416 13.9518 13.9345 13.9589 13.9298L14.1421 13.788C14.1893 13.7585 14.2141 13.755 14.2649 13.7254C14.3157 13.6971 14.3947 13.6179 14.4514 13.5789C14.5259 13.527 14.5685 13.5222 14.6641 13.4608L15.7141 12.8607C15.7212 12.8572 15.7318 12.8524 15.7389 12.8489L16.183 12.628C16.4912 12.4803 17.3145 12.1212 17.6606 12.0326C17.846 11.9853 17.7597 11.9865 17.8802 11.9404L18.4081 11.7951C18.5688 11.7644 18.5251 11.7491 18.6716 11.6959C18.8889 11.6179 18.9574 11.6227 19.2101 11.5636C19.3448 11.5317 19.2882 11.5093 19.4476 11.475C19.5787 11.4478 19.6389 11.4703 19.7688 11.4207C20.0287 11.3202 20.5354 11.247 20.8271 11.1572L21.3516 11.0261C21.4626 11.0155 21.5511 11.0202 21.648 10.9907C21.7732 10.954 21.7484 10.934 21.9385 10.9151C22.3035 10.8808 22.3495 10.8182 22.8149 10.7886L23.083 10.7355C23.3156 10.6552 23.5673 10.7095 23.8035 10.6433C23.9488 10.6032 23.768 10.6363 23.9381 10.5985C24.3184 10.5122 24.733 10.576 25.1854 10.4697C25.5409 10.3858 26.0417 10.4756 26.3783 10.361C26.6062 10.283 27.1342 10.3232 27.3881 10.3149C27.6302 10.3067 27.7862 10.2571 28.0106 10.2476C29.1008 10.2015 31.0011 10.1425 31.9601 10.2783C32.4787 10.3504 33.0361 10.3303 33.57 10.3716C33.8109 10.3905 33.6799 10.4059 33.8086 10.4378C33.9763 10.4803 34.0956 10.426 34.4299 10.5193C34.7015 10.5949 35.0688 10.5217 35.3617 10.5949C35.4928 10.628 35.4125 10.6433 35.618 10.6646L37.0637 10.9091C37.1995 10.9198 37.2432 10.9198 37.3531 10.9623C37.3614 10.9647 37.3696 10.9706 37.3779 10.9729L37.9023 11.1052C37.9945 11.136 38.096 11.1265 38.1929 11.1537C38.3819 11.2068 38.1551 11.1962 38.4244 11.2411C38.7988 11.3049 39.1555 11.4679 39.4673 11.5577C39.7519 11.6404 40.5031 11.8542 40.7523 11.9747L40.7984 12.0007C40.8066 12.0042 40.8161 12.009 40.8232 12.0137C40.8314 12.016 40.8408 12.0208 40.8491 12.0243L41.6677 12.374C41.7421 12.4023 41.7267 12.3976 41.794 12.4319L42.0031 12.5252C42.0102 12.5299 42.0197 12.5358 42.0267 12.5394L42.3716 12.7083C42.3787 12.713 42.3893 12.7166 42.3964 12.7213L42.7165 12.8784C42.7236 12.882 42.7318 12.889 42.7389 12.8926L43.1535 13.1076C43.163 13.1135 43.1865 13.1312 43.196 13.1371L43.5079 13.3356C43.5149 13.3403 43.5232 13.3474 43.5291 13.3509L43.6932 13.4443C43.6991 13.449 43.7086 13.4549 43.7157 13.4584L43.8007 13.5211C43.8066 13.5258 43.8161 13.5317 43.822 13.5364L46.5078 15.8589C46.5125 15.8636 46.5197 15.8719 46.5244 15.8778C46.5492 15.9062 46.5456 15.9014 46.574 15.9369C46.7701 16.1684 47.0228 16.446 47.1621 16.7165L47.2507 16.8453C47.4019 17.0343 47.5083 17.2812 47.6464 17.4809L48.1838 18.5641C48.2594 18.739 48.4873 19.2528 48.5145 19.4123C48.5629 19.6864 48.6987 19.9168 48.7424 20.1861C48.7932 20.498 48.9303 20.6728 48.9669 20.9953C49 21.2776 49.0696 21.3084 49.0909 21.5493L49.1948 22.1353C49.2102 22.277 49.2621 22.2617 49.3129 22.6929C49.3413 22.9291 49.4027 22.9339 49.4204 23.2445C49.4369 23.5552 49.509 23.4808 49.522 23.7939C49.5492 24.453 49.6188 24.596 49.6483 25.0437C49.6542 25.1347 49.6578 25.2445 49.6697 25.3414C49.6862 25.4702 49.7145 25.5127 49.731 25.6119C49.7617 25.7915 49.7535 26.101 49.7606 26.2959C49.7676 26.4837 49.7677 26.7365 49.7866 26.9256C49.8161 27.2067 49.8492 27.1618 49.8563 27.5493C49.8716 28.4471 49.8763 29.3378 49.8739 30.2356C49.8728 31.1925 49.8067 31.9485 49.763 32.8759C49.7417 33.3283 49.6625 33.6107 49.6424 34.0619C49.6271 34.4317 49.5976 34.3573 49.5516 34.6195C49.5043 34.883 49.5526 34.9869 49.4664 35.2397C49.4263 35.359 49.4357 35.3945 49.4263 35.5351L49.3755 35.7772C49.3106 35.9379 49.2976 36.2309 49.2457 36.3773C49.1772 36.564 49.1748 36.8794 49.1134 37.0637C48.9681 37.4901 48.9786 37.7193 48.8015 38.1103L48.5157 38.9952C48.4649 39.1806 48.4779 39.0637 48.4224 39.235L47.9346 40.3726C47.931 40.3797 47.9263 40.3903 47.9228 40.3974L47.6476 40.9325C47.6441 40.9396 47.6381 40.9491 47.6334 40.9561C47.6299 40.9644 47.6251 40.9727 47.6204 40.981L47.1244 41.7748C47.1173 41.7831 47.0972 41.8055 47.0913 41.8138C47.0322 41.8977 47.0759 41.8362 47.0322 41.9343L45.9693 43.2278C45.9149 43.2905 45.8983 43.3342 45.8239 43.4121L43.2444 45.2916C43.2373 45.2952 43.2279 45.2999 43.2208 45.3046L43.1689 45.327C43.0673 45.3755 43.1286 45.3424 43.0483 45.3897L42.1165 45.8197C42.0125 45.8657 42.1011 45.8303 42.0279 45.8681C42.0208 45.8716 42.0125 45.8775 42.0043 45.8811L40.9708 46.3643C40.7936 46.4434 40.2067 46.7045 40.137 46.8545C40.0626 47.014 40.105 49.9319 40.105 50.2544C40.1027 52.0275 40.15 53.8787 40.0921 55.6412ZM38.9759 17.4301L39.8109 17.6935C39.8971 17.7325 39.9102 17.7183 39.9893 17.7478C40.1795 17.8164 39.9503 17.7218 40.0602 17.7833L40.8504 18.2097C40.8811 18.2286 40.8692 18.2227 40.9129 18.2558L41.8578 19.0721C41.8637 19.078 41.8708 19.0851 41.8755 19.091L42.0563 19.2836C42.0622 19.2895 42.0692 19.2977 42.0739 19.3036L42.609 20.1955C42.6704 20.3905 42.7626 20.4921 42.8098 20.6882C42.8771 20.9693 42.9303 21.1134 42.9421 21.4407C42.9527 21.7431 42.9574 22.0207 42.9456 22.3243C42.9196 23.0012 42.8854 22.7342 42.8299 23.0957C42.7956 23.319 42.7271 23.5989 42.6385 23.7785L42.5051 24.0821C42.4826 24.1459 42.4826 24.1884 42.4555 24.2569L42.3315 24.5806C42.2795 24.7082 42.387 24.4589 42.2936 24.655L42.048 25.1736C42.0184 25.2481 42.0256 25.2705 41.9925 25.3461L41.3003 26.785C41.2968 26.7921 41.2908 26.8015 41.2873 26.8086C41.2826 26.8157 41.2779 26.8251 41.2732 26.8322L40.8869 27.5847C40.848 27.6686 40.8445 27.6757 40.8102 27.7277C40.8091 27.7289 40.783 27.7667 40.7652 27.7938L40.4512 28.3679C40.4358 28.3987 40.4346 28.4128 40.4181 28.4447L39.7153 29.6178C39.7117 29.6249 39.7058 29.6343 39.7011 29.6414C39.6964 29.6485 39.6905 29.6568 39.6846 29.6639L39.1673 30.4282C39.1626 30.4341 39.1554 30.4424 39.1507 30.4494L38.8614 30.8984C38.7953 31.0295 38.8625 30.9255 38.7751 31.033C38.5625 31.2965 38.3984 31.606 38.1751 31.8611C38.1491 31.8907 38.1373 31.9037 38.122 31.9202L38.0169 32.0371C37.9354 32.1387 38.0062 32.0442 37.9353 32.1754C37.8574 32.3183 37.7417 32.4104 37.6425 32.5439L37.3542 32.9231C37.3412 32.9397 37.3283 32.9562 37.3035 32.9822L36.8157 33.5599C36.8098 33.5658 36.8027 33.5741 36.7979 33.5788L36.2428 34.2309C36.2263 34.2498 36.2015 34.2758 36.1885 34.2911L36.1377 34.3525C36.068 34.4293 36.1023 34.388 36.0279 34.4577L34.6354 35.8635C34.6307 35.8694 34.6224 35.8765 34.6165 35.8824C34.6118 35.8883 34.6034 35.8954 34.5987 35.9013L32.357 37.8894C32.324 37.9142 32.2614 37.9698 32.233 37.9922L31.7157 38.3915C31.5917 38.4588 31.6779 38.3915 31.5763 38.473C31.5704 38.4777 31.5633 38.4848 31.5574 38.4895L31.3412 38.6833C31.2916 38.7234 31.3366 38.6868 31.2799 38.7294L31.0802 38.864C31.02 38.9018 31.0708 38.8664 31.013 38.9101C31.0118 38.9113 30.9585 38.9526 30.9526 38.9585C30.9148 38.9881 30.8605 39.0294 30.8286 39.0507L30.4507 39.3318C30.3727 39.385 30.3834 39.3685 30.3113 39.4122C30.2629 39.4393 30.2759 39.4334 30.2428 39.457C30.192 39.4925 30.2204 39.4783 30.179 39.5043C30.1377 39.5303 30.0835 39.5492 30.0327 39.5787L29.5129 39.9426C29.507 39.9473 29.4976 39.9532 29.4917 39.9579L29.24 40.1139C29.2341 40.1186 29.2247 40.1245 29.2188 40.1292L27.7744 40.9987C27.759 41.0093 27.713 41.0377 27.7059 41.0424C27.6551 41.0743 27.6255 41.0873 27.5664 41.1251C27.5593 41.1286 27.55 41.1345 27.5429 41.1393L26.4563 41.7382C26.4492 41.7417 26.4397 41.7465 26.4326 41.7512L25.6827 42.1091C25.5893 42.1587 25.6247 42.1327 25.5243 42.1741L25.431 42.2237C25.4251 42.2284 25.4168 42.2343 25.4098 42.2391L24.107 42.8545C24.0999 42.8581 24.0905 42.864 24.0834 42.8675C24.0763 42.8711 24.068 42.877 24.0609 42.8817L23.5484 43.1003C23.3948 43.1652 23.2306 43.2456 23.0629 43.2727C22.6507 43.3377 22.6684 43.3944 22.3094 43.4133C21.4259 43.4617 21.681 43.3613 21.316 43.2952L20.3476 42.942C20.2472 42.8959 20.2767 42.9101 20.1987 42.8664L18.7933 41.8504C18.596 41.6791 18.4968 41.5185 18.3161 41.3318C18.1791 41.1901 18.0456 41.0589 17.9464 40.8935L17.4787 40.1446C17.3512 39.9615 17.0736 39.1688 17.0617 38.9231C17.0511 38.6998 17.0499 38.4624 17.1278 38.271L17.3546 37.7193C17.3581 37.7134 17.3652 37.7051 17.3699 37.6992L18.2417 36.8014C18.2748 36.7743 18.2724 36.7754 18.3019 36.7518L19.2515 36.0076C19.2574 36.0017 19.2657 35.9946 19.2727 35.9899L19.3129 35.9568C19.333 35.9391 19.34 35.9332 19.3719 35.9072L19.6791 35.7016C19.6838 35.6969 19.692 35.6898 19.6967 35.6839L19.7948 35.5953C19.979 35.4335 20.5566 35.0011 20.7751 34.8877C20.9038 34.8203 20.8117 34.89 20.9157 34.8074L22.0956 33.9958C22.1594 33.9627 22.1936 33.9438 22.2397 33.9178L22.7086 33.691C22.8054 33.639 22.6602 33.6745 22.8633 33.6331C22.9047 33.6248 22.9141 33.6296 22.9637 33.6154C23.1007 33.5776 23.0523 33.5481 23.194 33.5268C23.4338 33.489 23.8295 33.4937 24.0751 33.5079C24.3976 33.5256 24.668 33.6308 24.929 33.7666L25.6802 34.4104C25.8775 34.6231 26.0228 34.9042 26.2106 35.1299C26.2543 35.1818 26.2531 35.1877 26.3086 35.248L26.7892 35.6544C26.807 35.665 26.8342 35.6804 26.859 35.6969C27.1449 35.8835 27.5476 35.9249 27.9031 35.8942C28.144 35.8741 28.711 35.6532 28.9566 35.528L29.1775 35.4181C29.2637 35.3756 29.2307 35.3909 29.3346 35.3496L30.6326 34.6219C30.6396 34.6183 30.6491 34.6124 30.6562 34.6077C30.6633 34.6042 30.6716 34.5971 30.6787 34.5935L31.4003 34.0997C31.47 34.0466 31.4723 34.0359 31.5231 34.0029C31.5715 33.9698 31.6141 33.9544 31.659 33.9214L31.9696 33.6414C31.9743 33.6355 31.9826 33.6284 31.9885 33.6225L32.3747 33.2752C32.4574 33.1984 32.5378 33.1807 32.6311 33.0897C32.7409 32.9834 32.7279 32.9515 32.8437 32.857L33.2688 32.4057C33.3066 32.3537 33.3172 32.3325 33.3633 32.2699L33.9067 31.6048C33.9515 31.5504 33.9173 31.5953 33.9551 31.5422L34.5763 30.5853C34.7004 30.3845 34.5326 30.6727 34.6059 30.5357L34.7216 30.3183C34.7712 30.2392 34.7535 30.2522 34.7925 30.1718L35.1976 29.3674C35.2023 29.3591 35.2058 29.3496 35.2093 29.3414C35.2247 29.3059 35.2235 29.2977 35.2424 29.2587L35.2814 29.189C35.344 29.0708 35.396 28.7353 35.4893 28.5215C35.5353 28.4164 35.4952 28.5392 35.5212 28.4483C35.5732 28.2758 35.5649 27.7808 35.5224 27.6119C35.4728 27.417 35.3889 27.124 35.2968 26.961L35.109 26.7035C34.9862 26.4719 34.6767 26.2782 34.4641 26.0998L33.9763 25.7419C33.9751 25.7407 33.9208 25.6911 33.9173 25.6887L33.8794 25.6521C33.8747 25.6474 33.8665 25.6391 33.8618 25.6344C33.8004 25.58 33.857 25.6249 33.8015 25.5847L33.4708 25.2575C33.4661 25.2516 33.459 25.2433 33.4543 25.2374L33.2381 24.8972C33.074 24.5511 33.0362 24.3042 33.0562 23.8671L33.3952 22.8842L33.7814 22.1684C33.8239 22.0998 33.8168 22.1057 33.8594 22.0254L34.548 20.9469C34.5763 20.9091 34.5787 20.9091 34.5964 20.8854L34.8243 20.5629C34.8302 20.5559 34.8362 20.5476 34.8421 20.5405L35.0181 20.2806C35.0453 20.2463 35.0806 20.2074 35.1208 20.1625L35.3346 19.86C35.3393 19.8541 35.3475 19.8459 35.3522 19.84C35.3534 19.84 35.3972 19.7892 35.4043 19.7809C35.4444 19.736 35.4645 19.7112 35.5082 19.6628L35.7999 19.3296C35.8058 19.3237 35.8129 19.3155 35.8188 19.3107C35.9818 19.1241 35.8697 19.2068 36.2193 18.8323L37.2196 17.8435C37.2255 17.84 37.2338 17.8329 37.2397 17.8282L37.418 17.71C37.4251 17.7053 37.4346 17.6994 37.4417 17.6959C37.796 17.475 38.6334 17.2505 38.9759 17.4301ZM17.2838 29.6473C17.285 29.137 17.272 28.5806 17.3618 28.0833C17.4055 27.8399 17.3534 27.5552 17.4137 27.313C17.4597 27.1323 17.4811 27.2445 17.4988 26.9988C17.513 26.8062 17.4917 26.8074 17.5578 26.6574C17.6311 26.4896 17.592 26.355 17.6699 26.1825C17.7845 25.925 17.8932 25.3556 18.0172 25.0969C18.0208 25.0886 18.0266 25.0803 18.029 25.0732C18.0337 25.065 18.0385 25.0567 18.042 25.0484L18.3846 24.2534C18.4118 24.1955 18.4129 24.1742 18.4412 24.1211L18.5665 23.8766C18.7637 23.5139 18.7543 23.4324 19.0094 23.078C19.0815 22.9787 19.0318 23.0449 19.0897 22.935C19.0944 22.9268 19.098 22.9173 19.1027 22.9102L19.131 22.863C19.2278 22.7 19.0601 22.9811 19.1605 22.8157L19.6496 22.0963C19.6968 22.0396 19.7086 22.0231 19.7476 21.964C19.7783 21.9191 19.7912 21.8978 19.8207 21.8577L20.1468 21.482C20.1893 21.4324 20.1622 21.469 20.1952 21.4206L21.2204 20.3137C21.244 20.2912 21.257 20.2782 21.277 20.2593C21.2936 20.2428 21.3102 20.2274 21.3338 20.205L22.0283 19.6179C22.033 19.6132 22.0413 19.6061 22.0472 19.6013L22.7606 19.0945C22.7665 19.0898 22.7736 19.0816 22.7795 19.0768L24.8464 17.9463C25.0236 17.9026 25.0212 17.879 25.1618 17.8164L25.4512 17.7041C25.5031 17.6852 25.5409 17.6545 25.6 17.6368C25.6602 17.6179 25.6991 17.6191 25.7558 17.6037C26.0369 17.5293 26.05 17.4761 26.5637 17.3757C26.7504 17.3391 26.6665 17.3107 26.8708 17.2824C27.0043 17.2635 27.0929 17.2729 27.224 17.2328C27.524 17.1383 27.9917 17.169 28.2917 17.0851C28.5763 17.006 29.5744 17.0095 29.8165 17.1217C29.8708 17.1477 29.8802 17.1442 29.9464 17.1843C30.0952 17.2753 30.2015 17.3296 30.2239 17.5364C30.2428 17.7089 30.2795 17.9841 30.1873 18.1389C30.1732 18.1637 30.1602 18.1755 30.1366 18.1979C29.8531 18.4708 29.3983 18.3609 29.0475 18.4306C28.9353 18.4531 28.8988 18.498 28.7452 18.5098C28.2161 18.5535 28.3307 18.583 28.0201 18.6208L27.5287 18.7201C27.4626 18.7378 27.4035 18.7378 27.3362 18.7484C27.0917 18.7862 27.2476 18.8004 27.0373 18.8453C26.8814 18.8784 26.8401 18.8488 26.7019 18.9138C26.6334 18.9469 26.7362 18.9209 26.5732 18.9646L24.3456 19.7986C24.3385 19.8033 24.3302 19.8092 24.3231 19.8128L21.811 21.6049C21.8051 21.6096 21.7979 21.6179 21.7932 21.6226L20.4196 23.4206C20.3794 23.495 20.4042 23.4489 20.3806 23.4867L19.9354 24.368C19.9307 24.3774 19.9165 24.4046 19.9117 24.4164C19.9082 24.4235 19.9035 24.433 19.9 24.4412L19.3838 25.8411C19.3354 25.9663 19.3743 25.8057 19.3282 25.9734L19.2196 26.3656C19.0991 26.6645 19.1169 26.9315 19.0507 27.1701L18.6409 29.9923C18.635 30.0336 18.6255 30.1092 18.6125 30.147C18.5322 30.388 18.2487 30.544 18.0042 30.5499C17.8436 30.5522 17.7633 30.5191 17.6771 30.4802C17.5141 30.4093 17.5601 30.4506 17.4716 30.3632C17.4645 30.3561 17.4432 30.3337 17.4373 30.3254C17.3783 30.2451 17.4184 30.3124 17.383 30.199C17.3204 30.0053 17.2838 29.8753 17.2838 29.6473ZM28.8516 20.153L29.1054 20.3113C29.3629 20.5748 29.3629 21.0934 29.1361 21.3497L28.6519 21.5635C28.5574 21.5895 28.4783 21.5753 28.3803 21.5883C28.1913 21.6155 28.2208 21.6663 27.9385 21.6876C27.7495 21.7005 27.6681 21.7691 27.4933 21.7951C27.1555 21.8459 26.9015 21.9805 26.5791 22.0337L26.1538 22.1636C26.1314 22.1707 26.0983 22.1813 26.0735 22.1908C26.0665 22.1943 26.057 22.1991 26.0499 22.2026L25.2479 22.5393C25.2385 22.544 25.2302 22.5499 25.222 22.5535L23.8732 23.4489C23.8673 23.4536 23.859 23.4607 23.8531 23.4666L23.3594 24.0384C23.3535 24.0455 23.3475 24.0538 23.3428 24.0608L23.1834 24.2593C23.1657 24.2888 23.1527 24.3266 23.1338 24.3621L22.5834 25.3969C22.5799 25.4052 22.5739 25.4146 22.5704 25.4217C22.5668 25.4288 22.561 25.4383 22.5575 25.4454C22.5008 25.5517 22.5574 25.3863 22.5102 25.5387L22.4782 25.6993C22.4747 25.7088 22.4711 25.7182 22.4676 25.7265L22.3708 25.9994C22.3177 26.2286 22.3448 26.0124 22.2857 26.199L22.1653 26.6302C22.1133 26.9622 22.0885 26.8759 22.0542 27.0697C22.0247 27.2386 22.0554 27.4382 22.0082 27.5942C21.9279 27.8588 21.9278 27.7584 21.916 28.1021C21.909 28.329 21.8369 28.9102 21.7448 29.046C21.5239 29.3721 21.0621 29.3993 20.7455 29.1842C20.566 29.0626 20.4893 28.8334 20.4834 28.6196C20.4727 28.2498 20.4727 27.8411 20.4881 27.4725L20.6464 26.5428C20.7019 26.3609 20.6688 26.2557 20.7361 26.0797L21.5676 24.2274C21.5936 24.1754 21.5912 24.1683 21.616 24.1282C21.6432 24.0821 21.6279 24.114 21.6622 24.0644L22.8775 22.5606L24.6078 21.2717C24.616 21.2682 24.6266 21.2646 24.6337 21.2611C24.6904 21.2339 24.6916 21.2387 24.7353 21.215L25.4334 20.8488C25.4393 20.8453 25.4476 20.8394 25.4535 20.8358L25.9259 20.6456C26.1645 20.5393 26.4054 20.4968 26.6452 20.4436C26.7763 20.4153 26.7185 20.3987 26.8496 20.3645L28.0885 20.1896C28.2786 20.1282 28.6685 20.0337 28.8516 20.153ZM27.8322 23.4111C28.1298 23.4631 28.2609 23.6568 28.3531 23.9274C28.4027 24.0703 28.3802 24.2274 28.3271 24.3337C28.1995 24.5865 27.9975 24.6007 27.7625 24.6869L27.0799 24.8689C26.8283 24.9173 26.6086 25 26.3842 25.1051L26.2176 25.1985C26.2117 25.2044 26.2034 25.2114 26.1975 25.2162L26.0948 25.3012C26.0889 25.306 26.0806 25.313 26.0747 25.3178C26.0688 25.3225 26.0605 25.3284 26.0546 25.3331L26.0133 25.365C25.8598 25.4843 25.8397 25.5021 25.7098 25.6509L25.0401 26.8169C24.9645 26.9941 25.0142 27.1453 24.9492 27.3213C24.8996 27.4548 24.9066 27.7182 24.8629 27.8682L24.7802 27.997C24.7755 28.0029 24.7685 28.0112 24.7626 28.0183L24.6763 28.1187C24.4909 28.3077 24.3314 28.3325 24.035 28.2959C23.8436 28.2723 23.9204 28.2923 23.8224 28.2073C23.8141 28.2002 23.7917 28.1789 23.7846 28.1719L23.6204 27.9261C23.6169 27.9179 23.6133 27.9072 23.6097 27.899C23.4833 27.5883 23.5177 27.3579 23.5283 26.9964C23.5377 26.6869 23.6156 26.4613 23.7231 26.2073L23.9298 25.7478C23.9534 25.7076 23.9677 25.6733 23.9901 25.6296L24.0303 25.5564C24.035 25.5481 24.0397 25.5387 24.0444 25.5304L24.2133 25.2563C24.2275 25.2386 24.263 25.1914 24.2748 25.1736C24.3008 25.1347 24.309 25.1181 24.3314 25.0839L24.7802 24.5783C24.7849 24.5735 24.7933 24.5653 24.798 24.5605C24.8039 24.5546 24.811 24.5475 24.8169 24.5416L25.5621 23.9179C25.5692 23.9132 25.5775 23.9073 25.5846 23.9025L26.2696 23.5576C26.7775 23.3509 27.2322 23.3072 27.8322 23.4111Z" fill="#FEFEFE"/>
</svg>
