<svg width="59" height="59" viewBox="0 0 59 59" fill="none" xmlns="http://www.w3.org/2000/svg">
<path fill-rule="evenodd" clip-rule="evenodd" d="M58.7134 28.7137C58.7134 39.6233 54.009 47.5913 46.7263 53.0077C45.1779 54.1595 43.0224 55.3479 41.1834 56.2055C40.7311 56.4182 40.3484 56.5068 39.9244 56.6946L37.3094 57.5782C32.1846 58.7135 33.1897 58.5835 27.3916 58.5835C23.9759 58.5835 19.2491 57.062 16.3672 55.622C11.0735 52.9734 7.43216 49.5216 4.40381 44.7124C1.46758 40.0556 0.00304413 34.9582 0.00304413 28.8602C0.00304413 23.9128 1.39561 19.7782 3.06215 16.1834L5.01328 12.8875C8.66643 7.40618 15.0149 2.64426 21.3019 1.05892C26.1988 -0.175566 26.3748 0.00990116 31.1783 0.00990116C33.4496 0.00990116 35.4054 0.578117 37.1901 0.990399L39.824 1.85159C44.5106 3.93663 46.5008 4.91594 50.4445 8.86039C54.6504 13.0659 58.7134 20.3441 58.7134 28.7137ZM38.0819 45.3078C35.9535 45.7461 35.0676 44.1076 34.105 43.1283C33.4353 42.4502 31.5787 40.5955 30.9126 40.175C30.1425 40.5908 29.1114 41.4614 28.2846 42.0651L23.0322 45.928C22.2963 46.4714 21.094 47.648 19.8432 47.5228C17.8849 47.3243 17.5542 42.8247 17.1408 40.892C16.5881 38.3132 16.0448 35.7533 15.5145 33.2406C14.4302 28.09 13.3353 23.0505 12.2593 17.9082C11.5459 14.4918 11.4739 12.161 15.5783 13.7877C26.6523 18.1763 37.8586 22.3322 48.9279 26.676C56.4503 29.6305 51.9645 30.24 43.9496 32.6558C41.5496 33.3788 42.1165 33.5938 40.5161 38.4987C40.0484 39.9328 38.7657 44.6002 38.0819 45.3078ZM40.6472 32.4916C40.6767 33.2299 37.8149 42.1324 37.4251 42.6817C37.0897 42.0485 36.9846 38.983 36.9031 38.0143C36.6539 35.0539 36.4968 35.7308 33.8428 33.2937L21.5582 22.1385C20.9334 21.5821 19.2751 20.3819 19.0648 19.5195C20.403 19.3198 23.0783 21.3659 24.7129 22.3984C29.3381 25.321 36.4614 29.6257 40.6472 32.4916Z" fill="#E4097F"/>
</svg>
