<svg width="47" height="48" viewBox="0 0 47 48" fill="none" xmlns="http://www.w3.org/2000/svg">
<path fill-rule="evenodd" clip-rule="evenodd" d="M13.6908 13.6936C13.172 16.5633 13.398 19.7751 13.9763 22.5532C14.1154 23.2256 14.2677 23.8364 14.4416 24.4668C14.6996 25.4063 15.0082 26.3009 15.3328 27.2179C15.3894 27.3785 15.4387 27.488 15.4996 27.6546C15.9285 28.8298 16.727 30.5648 17.385 31.695C17.4357 31.782 17.4473 31.7925 17.4951 31.8916C17.54 31.9816 17.569 32.0056 17.6154 32.0852L18.3342 33.2949C18.5284 33.6326 19.1749 34.4685 19.3995 34.7852L21.0371 36.7258C21.253 36.96 21.4805 37.1746 21.6993 37.3952C23.0848 38.8 24.866 40.2139 26.8051 40.5891L26.8341 40.5951C27.9152 40.8052 28.5152 40.8682 29.5934 40.7166C30.4891 40.5906 31.3658 40.2664 32.1499 39.8086C32.66 39.5114 33.1657 39.1152 33.5164 38.6364C34.0599 37.8935 34.1252 37.2196 33.8701 36.3356C33.7716 35.9949 33.5933 35.6542 33.4194 35.3511C33.1672 34.9128 32.8499 34.4325 32.547 34.0318C31.7948 33.0337 30.9745 32.0612 30.0601 31.2192C29.3688 30.5873 28.5398 30.4748 27.6702 30.8019C27.4543 30.883 27.3137 30.9505 27.1137 31.0511C27.0079 31.1051 26.9427 31.1411 26.8369 31.1997C26.2645 31.5058 25.6369 32.0417 25.1471 32.4904C24.7108 32.8866 24.3283 32.7305 24.0297 32.2773C23.9659 32.1812 23.9226 32.1092 23.8559 32.0131C23.669 31.7415 23.4573 31.4863 23.3023 31.1862L22.295 29.4887C22.0646 29.112 21.8602 28.6992 21.6689 28.297C21.5703 28.0854 21.4719 27.9128 21.382 27.6982C21.0255 26.8517 20.6515 26.0802 20.3283 25.2022C20.2428 24.9711 20.182 24.7955 20.0993 24.5599C20.0196 24.3332 19.953 24.1366 19.8791 23.913C19.5009 22.7948 19.2198 21.6527 18.9531 20.4955C18.7879 19.7796 18.6733 19.0772 18.5892 18.3418C18.4965 17.5118 19.5559 17.5193 20.208 17.3602C21.2486 17.1066 22.5762 17.009 23.253 16.056C23.6965 15.4301 23.6877 14.5326 23.653 13.7852C23.5863 12.3698 23.511 10.896 23.1863 9.5152C23.0226 8.8233 22.8384 8.301 22.3515 7.80722C22.0979 7.54607 21.7645 7.38397 21.4037 7.29242L21.0994 7.23389C20.5994 7.16335 20.0733 7.20988 19.6457 7.31494C19.0429 7.46202 18.456 7.66764 17.898 7.9528L16.3691 8.95688C15.7227 9.45066 15.1662 10.1591 14.7357 10.86C14.2662 11.6224 13.8981 12.5529 13.6908 13.6936Z" fill="#E4097F"/>
</svg>
