<svg width="59" height="59" viewBox="0 0 59 59" fill="none" xmlns="http://www.w3.org/2000/svg">
<path d="M29.3583 58.7213C13.1459 58.7213 0.00315475 45.5761 0.00315475 29.3606C0.00315475 13.1452 13.1459 0 29.3583 0C45.5706 0 58.7134 13.1452 58.7134 29.3606C58.7134 45.5761 45.5706 58.7213 29.3583 58.7213Z" fill="#E4097F"/>
<path fill-rule="evenodd" clip-rule="evenodd" d="M48.0701 29.8361C48.0701 32.7362 47.6213 35.2288 46.3575 37.8632C45.8815 38.8578 45.3288 39.5217 45.5249 40.2116C45.9347 41.6529 48.7304 49.224 48.7363 49.8784C48.2698 49.8406 43.7508 48.325 42.8083 48.0178L39.154 46.8708C38.1005 46.5235 38.6591 46.4254 36.8662 47.2641C25.0635 52.7857 9.97369 44.2718 9.98078 29.8361C9.98904 16.2768 24.1728 6.8262 36.8992 12.5414C43.3799 15.4511 48.0701 21.946 48.0701 29.8361ZM43.9481 45.1567L38.489 43.4591C37.5618 43.126 37.4792 43.6103 36.7894 43.9304C35.8504 44.3675 34.5253 45.0893 33.3879 45.3197C31.9209 45.6186 30.7705 45.895 29.0816 45.8914H29.0047C20.1925 45.8725 13.0398 38.7125 13.0339 29.9128C13.0303 25.1167 15.1126 21.2112 17.7016 18.6076C20.2941 16.0016 24.1634 13.9106 29.0816 13.9189C41.5434 13.939 49.08 27.4663 42.8721 38.0096C42.6418 38.3995 42.4493 38.6617 42.2296 38.9807C41.958 39.3753 42.1906 39.8041 42.337 40.2424C42.5295 40.8224 43.9186 44.6711 43.9481 45.1567ZM35.7938 21.3234C36.8839 21.5455 37.8123 22.93 38.1206 24.0287C38.5328 25.497 38.2847 27.2454 37.6847 28.4173C36.9052 29.9424 36.8757 29.9719 35.7453 31.4911C33.5957 34.3794 30.6336 36.9571 27.141 38.0734C25.2973 38.6641 24.0277 39.3103 22.0328 38.507C20.3934 37.8454 19.3823 36.7444 19.3587 34.8413C19.3469 33.9518 20.0213 33.9034 20.6721 33.5891C21.2851 33.2914 21.7563 33.0185 22.3799 32.7527C22.8571 32.5496 23.6496 31.9636 24.2661 32.1975C24.976 32.4669 25.5855 34.7764 26.9012 34.4857C27.1481 34.4314 28.289 33.8585 28.602 33.6718C29.1606 33.3399 29.6556 33.0528 30.1387 32.663C31.1473 31.8478 31.8477 31.1237 32.587 30.1066C33.9878 28.1798 33.7126 28.4338 32.5043 27.0257C31.5193 25.8774 32.0591 25.7735 32.9391 23.4498C33.5119 21.9401 33.6122 21.2951 34.5465 21.2549C34.9977 21.236 35.3851 21.2407 35.7938 21.3234Z" fill="#FEFEFD"/>
</svg>
