<svg width="48" height="48" viewBox="0 0 48 48" fill="none" xmlns="http://www.w3.org/2000/svg">
<path fill-rule="evenodd" clip-rule="evenodd" d="M23.5783 0C36.584 0 47.1267 10.5411 47.1267 23.5447C47.1267 36.5484 36.584 47.0894 23.5783 47.0894C10.5726 47.0894 0.0298462 36.5484 0.0298462 23.5447C0.0298462 10.5411 10.5726 0 23.5783 0ZM22.3816 13.04C20.4424 13.1455 18.3748 13.0922 16.4269 13.1772C14.4842 13.2632 12.6372 13.1685 11.3862 14.257C9.35132 16.0345 9.6304 21.4758 9.67904 24.7166C9.70311 26.3119 9.81269 28.7484 10.2797 30.1533C10.8388 31.8361 11.759 32.5749 13.7489 32.8309C17.5565 33.3188 27.5032 33.1898 31.6293 33.0239C33.6499 32.9441 35.288 33.0275 36.6434 31.9549C38.6394 30.3765 38.3485 24.5615 38.3347 21.4287C38.3285 19.8237 38.1949 17.3462 37.712 15.9629C37.1529 14.3604 36.1528 13.5218 34.2075 13.3303C32.021 13.1158 24.5363 12.9228 22.3811 13.0405L22.3816 13.04ZM21.0538 26.7538C21.8608 26.5812 27.5749 23.2621 28.7193 22.8715L24.9429 20.8236C24.2598 20.4693 21.6022 18.9564 21.0538 18.8412V26.7543V26.7538Z" fill="white"/>
</svg>
