<svg width="191" height="115" viewBox="0 0 191 115" fill="none" xmlns="http://www.w3.org/2000/svg">
<path fill-rule="evenodd" clip-rule="evenodd" d="M133.68 44.659C133.992 44.5145 134.299 44.336 134.596 44.2061C157.252 34.2865 182.512 50.3084 182.409 75.0879C182.331 93.6365 167.18 108.728 148.626 108.726C134.693 108.723 121.843 99.9282 117.015 86.8239C114.246 79.3095 114.147 71.7551 116.67 64.1521C117.965 60.2547 120.075 56.6341 122.653 53.4482C123.174 52.8023 123.736 52.2377 124.332 51.6136L127.474 48.6487C127.297 48.0586 126.921 46.9938 126.619 46.2519L121.951 51.4582C121.752 51.6828 121.587 51.9341 121.385 52.16C120.983 52.6104 120.594 53.0706 120.195 53.5016L110.747 64.1873C106.9 68.7343 102.759 73.0287 98.911 77.5757C98.5394 78.014 98.1508 78.439 97.7707 78.8542L95.3628 81.5703C95.1175 81.8204 94.6803 82.062 94.7471 82.4311C95.0422 84.0836 94.8163 85.5891 93.7162 86.8907C92.6561 88.1461 91.8838 88.2918 90.531 88.7981L88.8031 95.4662L91.6628 95.5937C93.1892 95.6604 94.3731 96.9535 94.3064 98.4797C94.2396 100.007 92.9463 101.191 91.42 101.124L79.7298 100.6C78.2022 100.533 77.0183 99.241 77.0851 97.7136C77.1518 96.1862 78.4451 95.0024 79.9727 95.0692L84.3004 95.2634L85.7637 88.3136C84.9404 87.6349 84.4437 87.6155 83.7006 86.3394C83.6338 86.2265 83.4711 85.889 83.3873 85.804C83.1918 85.7044 81.3752 85.4725 81.0814 85.4215C78.8968 85.0294 76.5386 84.392 74.3189 84.1758C72.2582 90.1834 70.2498 94.1598 65.6196 98.7662C56.1675 108.167 42.2989 111.22 29.7928 106.523C11.2261 99.5494 2.53409 77.4519 11.6389 59.7472C19.3656 44.7185 35.6348 38.1038 51.8009 42.6095C54.5804 43.3829 56.1383 44.3312 58.6192 45.5271C58.7831 45.6072 58.9494 45.6825 59.1158 45.7553C59.4522 45.3887 59.7849 44.8957 60.0654 44.5606L69.3937 32.957L67.9608 28.9115C67.197 28.6723 66.296 28.5557 65.5322 28.3955C64.1588 28.1101 62.9081 27.7107 61.6646 27.0478C58.873 25.558 53.3272 19.7143 60.1261 19.8066C64.2681 19.8636 68.4064 20.2048 72.546 20.3663C75.2952 20.4719 78.0432 20.6273 80.7924 20.7573C82.6041 20.8435 88.7752 20.3614 87.9495 23.6214C87.4905 25.4329 83.6605 26.6689 82.0613 27.2578C80.0042 28.0142 77.9084 28.3505 75.8732 28.9333C75.9473 29.2733 76.0541 29.6545 76.178 29.8512H121.077L118.283 19.8297C117.858 18.3957 118.085 18.4224 118.719 17.2714C120.435 14.1535 121.202 14.8601 118.908 12.325C118.607 12.002 116.33 12.1769 115.789 12.1769C113.916 12.2121 112.469 12.1392 110.597 12.121C105.516 12.0688 105.405 7.08716 110.419 7.0131C113.706 6.96454 117.038 7.06653 120.307 7.06775C121.351 7.06775 122.03 7.965 122.637 8.67285C127.35 13.164 127.556 14.1827 125.484 18.0096C124.387 19.9025 124.414 19.0307 125.195 21.1434C126.185 23.8303 127.153 26.5245 128.123 29.2187L133.68 44.659V44.659ZM130.24 56.4848C128.477 58.0874 126.371 61.1471 125.462 63.0132C123.905 66.2113 122.96 69.1435 122.649 72.724C122.057 79.5475 124.226 86.4001 128.626 91.6453C132.7 96.4994 138.393 99.7521 144.665 100.722C158.176 102.813 171.095 93.9813 174.101 80.6463C175.655 73.7451 174.282 66.4833 170.398 60.5837C164.889 52.211 154.736 47.5826 144.804 49.1586C142.508 49.5241 138.157 50.7394 136.067 52.1357C136.562 54.2495 138.078 57.5678 139.021 59.3307C139.825 60.8338 141.086 62.7874 142.24 64.0355C143.586 65.4913 144.786 66.7589 146.269 68.0847C146.792 68.551 148.383 70.1124 148.999 70.2581C150.718 70.666 151.965 71.5001 152.49 73.2497C153.632 77.0488 149.215 80.1922 146 77.8683C144.149 76.5291 144.825 75.0806 144.027 74.4444C139.945 71.1929 136.109 67.5117 133.406 63.0072C132.693 61.8209 132.018 60.6359 131.434 59.3817C131.075 58.6095 130.66 57.3796 130.24 56.4848V56.4848ZM54.8597 51.8589C43.1514 46.2191 29.403 48.5673 21.1664 58.9956C14.9516 66.8657 14.0833 76.897 18.1512 85.9728C22.5932 95.8826 33.5061 102.006 44.2588 100.901C52.091 100.097 59.2979 95.8195 63.6269 89.223C64.5874 87.7588 66.1527 84.8254 66.6409 82.8415C64.0908 82.4238 61.5651 81.8519 59.0284 81.3566C56.3448 80.8333 53.6685 80.2748 50.9836 79.7563C49.603 79.4892 44.0876 78.3054 42.9644 78.4244C37.4041 79.9397 34.6172 72.0514 40.86 70.2556C41.1672 70.1658 41.5509 69.4943 41.7379 69.2442C43.988 66.2623 46.2575 63.2949 48.5101 60.3142C50.0158 58.3218 51.5203 56.3281 53.0115 54.3236C53.5081 53.6582 54.3047 52.6796 54.8597 51.8589ZM98.3293 66.4262L117.207 45.7347C117.878 44.9285 118.572 44.16 119.285 43.4072L123.395 38.7448C123.476 38.6574 123.731 38.4268 123.776 38.3175C123.729 38.02 123.498 37.5137 123.325 37.0268L78.5143 37.005C78.8689 38.2701 79.4093 39.7125 79.7808 40.8563C80.7778 43.9159 81.7893 46.9695 82.802 50.0243C84.3235 54.6077 85.8669 59.1863 87.38 63.7709C87.601 64.4411 88.0004 65.7912 88.451 67.2543L88.5044 66.4833L98.3293 66.4262V66.4262ZM84.2033 78.161L71.9352 40.8417C70.7841 42.1056 69.5685 43.6707 68.5437 44.8836C67.5528 46.0613 65.7338 48.0149 64.7793 49.3869C65.0623 49.6819 65.4059 49.9514 65.6779 50.2271C66.9638 51.5335 68.0518 52.886 69.1593 54.343C72.2084 58.3497 74.2521 63.6385 75.0694 68.5886C75.3778 70.4596 75.5356 72.2942 75.498 74.1907C75.4761 75.2081 75.3705 76.2839 75.4142 77.3038L84.2033 78.161ZM60.1723 55.3714C59.1595 56.4896 57.8347 58.3934 57.0224 59.4509C55.8554 60.965 54.7006 62.4899 53.5349 64.0064L48.2053 70.9368C47.8956 71.3399 47.4208 71.8789 47.0408 72.3865C47.9831 72.5783 49.1051 72.724 49.909 72.8624C52.391 73.2922 54.8767 73.7038 57.3636 74.113C60.7224 74.6642 64.3458 75.3672 67.7519 75.7764C67.6815 71.6895 67.3172 67.2943 65.8163 63.5038C64.6822 60.6384 62.5899 57.4221 60.1723 55.3714V55.3714Z" fill="white"/>
</svg>
