<svg width="48" height="45" viewBox="0 0 48 45" fill="none" xmlns="http://www.w3.org/2000/svg">
<path fill-rule="evenodd" clip-rule="evenodd" d="M32.5151 28.4476C33.36 28.8438 33.3564 29.4626 33.8051 30.6799C34.1336 31.5685 34.4366 32.4402 34.7719 33.3406C35.3492 34.8884 36.2737 36.48 35.0022 37.1747C34.5467 37.4226 33.8679 37.3501 33.2854 37.3501C33.7206 38.1172 34.1387 38.5303 34.3233 39.6465C34.7686 42.3206 32.7419 45.0268 29.696 44.9998C26.7721 44.9728 24.7437 42.3661 25.1754 39.66C25.3549 38.5269 25.7883 38.0785 26.2133 37.3787L16.3477 37.3484C16.4831 37.6637 16.781 37.9975 16.9859 38.4123C17.1908 38.8271 17.3093 39.1997 17.3872 39.6954C18.2066 44.8447 10.9686 47.1445 8.64737 42.4403C7.42834 39.9652 8.75573 38.441 9.27551 37.3501C8.04631 37.3501 6.73428 37.4614 6.64624 36.1546C6.53619 34.5175 8.39349 34.7687 9.15878 34.7687H32.51L31.1183 30.8587C29.9281 31.0812 21.7741 30.9581 19.8947 30.9581C16.1293 30.9581 12.362 30.9463 8.59827 30.9581C6.27364 30.9666 6.53619 30.0055 5.88435 28.0851C5.39335 26.6418 4.91925 25.2053 4.49597 23.7923C3.6308 20.8973 2.61149 18.1119 1.726 15.2085C1.30442 13.831 0.852402 12.3557 0.369869 10.9815C-0.310757 9.0442 -0.246487 7.9179 2.24914 7.92296L36.2313 7.92465C36.6512 7.65656 37.1507 5.64844 37.337 5.09878C37.7806 3.79544 37.7874 3.25421 39.0284 2.78211C40.9247 2.06047 42.8361 1.31186 44.7256 0.553122C45.7956 0.124859 46.6557 -0.423112 47.5683 0.516033C48.2388 1.20733 48.2049 2.44827 46.9182 3.01817L41.1617 5.27751C40.3134 5.58775 40.5132 5.43936 40.222 6.29589L32.5151 28.4476ZM34.1014 14.4009L25.8697 14.4329V11.0152H35.2528L34.1014 14.4009ZM12.589 14.4026L4.72448 14.4329L3.65107 11.0253L12.589 11.0186V14.4026ZM22.7662 21.452L22.4157 21.479L15.6941 21.474V17.5235L22.7662 17.5268V21.452ZM31.6431 21.4655L25.8697 21.474V17.5235H32.9873L31.6431 21.4655ZM12.589 21.452L7.00007 21.4756L5.74711 17.5302L12.589 17.5268V21.452ZM22.7662 14.4026L22.4157 14.438L15.7399 14.4312L15.6941 11.0152L22.7662 11.0186V14.4026ZM22.7644 27.849L15.7161 27.8676L15.6957 24.5662H22.7475L22.7644 27.849ZM29.3997 27.8659H25.8866L25.8713 24.5662H30.5375C30.4206 25.2828 29.6689 27.1139 29.3997 27.8659ZM12.5873 27.849L9.08255 27.8676C8.87938 27.2859 8.08369 25.067 8.04983 24.5662L12.5721 24.5679L12.5873 27.849ZM30.2802 38.4426C32.8977 39.1508 31.831 43.0726 29.1813 42.3493C26.706 41.6749 27.6406 37.7261 30.2802 38.4426ZM13.4016 38.4814C16.1969 39.4728 14.514 43.1822 12.1369 42.3122C11.2904 42.0019 10.4963 41.0021 10.8587 39.8168C11.1312 38.9232 12.1775 38.0481 13.4016 38.4814Z" fill="white"/>
</svg>
