<svg width="191" height="115" viewBox="0 0 191 115" fill="none" xmlns="http://www.w3.org/2000/svg">
<path fill-rule="evenodd" clip-rule="evenodd" d="M64.3973 72.1799C64.8538 72.5794 65.8653 73.9574 67.0602 74.9227C71.9283 78.8529 77.9695 79.3385 83.3659 75.8479C84.3228 75.2286 85.6852 74.1578 86.4028 73.2896C88.812 70.3793 89.1193 69.8184 90.0191 65.8542L101.814 65.8141C103.01 75.3051 115.21 82.6835 124.666 74.9688C125.143 74.5791 125.631 74.1395 126.103 73.6041C126.428 73.2362 126.947 72.5891 127.44 72.1508L129.962 76.7803C132.225 81.065 138.17 92.0179 140.885 95.1018C145.271 100.085 149.457 102.077 156.494 99.7726C160.439 98.4808 163.262 97.0262 164.689 93.4943C166.078 90.0546 165.957 84.1502 165.38 80.2686C164.009 71.0593 162.778 64.3219 161.106 55.3239L157.451 37.1615C156.794 34.0533 154.411 28.1768 152.155 26.1237C151.184 25.2398 151.624 25.0965 149.379 23.2959C147.542 21.8207 148.324 21.8317 146.958 18.415C146.309 16.7929 145.203 15.1429 143.518 14.5091C141.648 13.8049 138.977 14.0368 136.624 14.0356C133.141 14.0344 130.645 14.2469 128.621 16.9994C126.123 20.3978 128.069 20.0942 125.78 21.4759C124.938 21.9834 124.243 22.4351 123.542 22.973C123.11 23.3044 122.976 23.3967 122.604 23.7512C121.467 24.8306 120.454 24.3887 117.632 24.3887H70.3049C69.5083 24.2952 68.8659 23.3955 68.1094 22.8455L64.7312 20.7802C63.0664 19.9837 64.288 20.0529 62.5904 17.4704C60.7349 14.6488 58.5031 14.1376 54.9027 14.1376C46.2945 14.14 45.2417 13.2161 42.3868 23.2352C42.0857 24.2903 42.1428 23.6905 40.7816 25.1985C40.0797 25.9755 39.6899 26.4248 39.107 27.2589C37.3087 29.8256 36.4331 31.3724 35.101 34.1443C34.727 34.9214 33.3063 42.1298 33.1071 43.1934L29.5055 61.3801C28.3361 67.469 27.242 74.1043 26.4345 80.237C25.8857 84.4064 25.6185 89.7729 27.1182 93.5198C28.545 97.0833 31.6136 98.5949 35.4484 99.826C39.6717 101.18 43.7663 101.045 47.0825 98.7005C48.9465 97.3808 49.4383 96.7955 50.8506 95.1564C51.3509 94.5773 51.9702 93.6861 52.3927 93.1155C54.1158 90.7904 57.6263 84.41 59.2279 81.5944C60.0185 80.2054 63.8484 72.651 64.3973 72.1799V72.1799ZM51.1736 34.1577C48.5908 34.1006 45.9715 34.1553 43.3838 34.1468C39.5988 34.1346 39.9812 35.4993 39.9812 38.6901C39.9812 39.8775 39.7773 41.3114 40.3311 42.2063C40.9625 43.2249 41.8841 43.2104 43.2283 43.2067C45.8864 43.197 48.547 43.2128 51.2063 43.2067C51.8499 53.5852 49.2974 54.5578 55.681 54.5578C61.5533 54.5566 59.9517 54.3829 60.2116 43.2189C70.929 42.9942 71.0565 44.4318 71.0565 38.6901C71.0565 33.0795 71.0808 34.2572 60.248 34.1358C59.993 32.0256 60.1934 28.4998 60.2007 26.2439C60.214 22.5735 59.0045 22.894 55.681 22.894C52.3987 22.894 51.2234 22.6476 51.2343 26.2439C51.2404 28.4038 51.4492 32.181 51.1736 34.1577V34.1577ZM111.827 47.0956C106.396 48.124 103.172 52.6079 104.14 57.4511C105.731 65.4147 116.23 67.1254 120.728 61.2283C125.847 54.5177 119.659 45.6132 111.827 47.0956V47.0956ZM76.2659 47.381C71.065 48.5599 68.0499 53.0947 69.1233 57.7558C70.1106 62.0442 74.6363 65.7364 80.1918 64.5696C84.3957 63.6882 88.6931 59.4472 87.3295 54.0551C86.2694 49.8615 81.8031 46.1243 76.2659 47.381ZM134.896 23.8654C128.778 25.6902 131.718 34.2767 137.75 32.4907C139.832 31.8751 141.824 29.6253 140.959 26.891C140.255 24.6618 137.609 23.0555 134.896 23.8654ZM135.393 44.7135C129.613 46.0078 131.523 54.7788 137.434 53.482C143.083 52.2436 141.401 43.367 135.393 44.7135ZM124.217 34.1735C118.219 35.7227 120.648 44.1999 126.617 42.698C128.695 42.1747 130.559 39.8994 129.823 37.255C129.212 35.0586 126.8 33.5069 124.217 34.1735ZM144.855 34.4357C139.192 36.2011 141.721 44.7208 147.519 43.0489C149.515 42.4734 151.321 40.1847 150.508 37.4213C149.906 35.373 147.645 33.5664 144.855 34.4357V34.4357Z" fill="white"/>
</svg>
