<svg width="93" height="90" viewBox="0 0 93 90" fill="none" xmlns="http://www.w3.org/2000/svg">
<path fill-rule="evenodd" clip-rule="evenodd" d="M16.0032 29.2444C16.0032 34.2242 16.4831 35.7842 18.0365 40.5332C20.5098 48.096 26.6274 59.4297 30.8092 66.4217L43.6937 86.5849C44.4008 87.5982 45.0391 89.2271 46.6229 89.2159C47.9939 89.2047 48.5843 87.8996 49.5042 86.6458C50.9104 84.7315 52.5677 82.07 53.9419 80.0995C56.5607 76.3462 61.9344 67.5713 64.5213 63.0099C67.9032 57.0472 73.0864 47.4435 75.2957 40.615C77.481 33.8603 78.1769 29.929 76.342 22.759C75.4685 19.3504 73.1313 14.3545 70.7236 11.576L67.1033 7.72646C66.9129 7.5501 66.801 7.43466 66.641 7.31601C63.9134 5.30708 62.8287 4.22485 59.1572 2.61192C49.5201 -1.624 38.1761 -0.670037 29.5405 5.19965L26.3682 7.62225C25.9698 7.991 25.7827 8.20264 25.3571 8.59224C23.7014 10.117 22.4023 11.8069 21.1081 13.6715C20.201 14.9814 19.8059 15.8183 19.0844 17.2517C17.4702 20.4567 16 25.5279 16 29.2444H16.0032ZM46.6261 82.8588C46.9429 82.7065 48.0532 80.93 48.3267 80.5148L56.2856 68.0523C58.8517 63.8725 63.1343 56.5454 65.198 52.3624C67.0121 48.6876 68.8663 45.1107 70.3605 41.1633C72.0306 36.7526 73.3552 32.9817 72.7313 27.5962C72.2114 23.0893 70.5268 18.9897 68.244 15.7141C66.1451 12.7031 64.0109 10.7278 61.0209 8.66599C53.1948 3.26447 41.886 3.20033 33.7639 7.88999C30.1404 9.9823 27.7023 12.2959 25.2195 15.6997C22.9798 18.77 21.1801 23.1166 20.6458 27.4888C19.9675 33.0458 21.3305 36.5105 22.9671 41.0832C24.946 46.613 29.4797 54.9469 32.4265 60.1801L44.9512 80.3817C45.2424 80.8242 45.5015 81.209 45.7926 81.6291C46.1014 82.0732 46.2934 82.3858 46.6293 82.8604L46.6261 82.8588ZM46.0774 42.741C48.5267 42.741 50.4032 42.5149 52.6957 41.3718C53.3692 41.0351 54.2843 40.5364 54.817 40.0939C55.7577 39.3147 55.6473 39.5103 56.6392 38.5115C57.671 37.4741 58.8084 35.7313 59.3347 34.4054C60.0146 32.6899 60.5234 30.7836 60.4642 28.6896C60.1362 16.7595 45.9974 10.6926 37.0499 19.0987C34.5286 21.4684 33.0536 25.0245 32.9001 28.5806C32.7417 32.2265 34.0055 34.8415 35.8693 37.4966C36.3412 38.1668 36.9043 38.7247 37.5042 39.2666C39.6527 41.2034 43.1115 42.741 46.0774 42.741V42.741ZM46.5157 38.303C49.0642 38.303 51.3935 37.4036 53.0701 35.7041C55.3209 33.4258 55.9448 31.7728 55.9448 28.4764C55.9448 26.5989 55.0874 24.6637 54.1403 23.4677C51.8254 20.5481 48.3475 18.9736 44.4424 19.9132C42.8123 20.306 41.1789 21.2231 40.0127 22.3983C36.3028 26.1388 36.3732 33.0554 41.2733 36.5875C42.5419 37.5014 44.7048 38.303 46.5157 38.303V38.303Z" fill="#E4097F"/>
</svg>
