<svg width="30" height="30" viewBox="0 0 30 30" fill="none" xmlns="http://www.w3.org/2000/svg">
<path d="M17.1771 5.94327L16.6572 19.2674H12.6702L12.146 5.94327H17.1771ZM14.625 0.917969C18.625 0.917969 22.2597 2.5334 24.8848 5.13343C27.5056 7.73772 29.1339 11.3394 29.1339 15.3076C29.1339 19.2759 27.5056 22.8776 24.8848 25.4819C22.2597 28.0819 18.6293 29.6973 14.625 29.6973C10.6251 29.6973 6.99032 28.0819 4.36523 25.4819C1.74013 22.8776 0.116089 19.2759 0.116089 15.3076C0.116089 11.3394 1.74443 7.73772 4.36523 5.13343C6.99032 2.5334 10.6208 0.917969 14.625 0.917969ZM23.4197 6.58689C21.1727 4.35768 18.0621 2.97668 14.625 2.97668C11.1879 2.97668 8.07731 4.35768 5.8303 6.58689C3.58328 8.81609 2.19125 11.902 2.19125 15.3076C2.19125 18.7133 3.58328 21.8035 5.8303 24.0327C8.07731 26.2619 11.1879 27.6429 14.625 27.6429C18.0621 27.6429 21.1727 26.2619 23.4197 24.0327C25.6668 21.8035 27.0588 18.7175 27.0588 15.3076C27.0588 11.902 25.6668 8.81609 23.4197 6.58689ZM17.1513 24.6805H12.1718V21.3559H17.1513V24.6805Z" fill="#999999"/>
</svg>
