<svg width="93" height="90" viewBox="0 0 93 90" fill="none" xmlns="http://www.w3.org/2000/svg">
<path fill-rule="evenodd" clip-rule="evenodd" d="M7.00186 33.3287C1.68909 34.3334 -0.00784354 35.7538 2.72299e-05 41.6009C0.00632384 46.6827 -0.00468908 51.7613 0.00632999 56.8431C0.0126266 59.8997 -0.0566854 61.0131 1.72683 62.8225C3.07588 64.1909 4.72873 64.9248 7.26627 64.9783C12.5428 65.0885 11.4409 62.3343 11.4142 53.5786C11.3984 48.4968 11.4205 43.4182 11.4032 38.3364C11.3749 29.5949 14.1894 22.384 20.2168 16.6739C39.6592 -1.74766 73.1257 6.84426 79.5719 29.365C80.9603 34.2168 80.5542 38.6057 80.5778 43.7804C80.5951 47.8606 81.5301 72.227 79.1453 73.6458C78.0261 74.3104 74.0403 75.2426 73.979 80.3575C73.9365 83.896 76.5354 86.6928 79.5971 87.2502C86.4809 88.5069 90.3753 80.2425 85.9409 75.682C85.2105 74.9324 84.8374 74.8348 84.1936 74.2127C84.8264 71.2097 85.1019 65.9295 85.3396 65.0697C86.9295 64.4476 88.0173 64.6586 89.4875 63.539C90.4588 62.7988 91.5072 61.6682 91.8487 60.2509C92.1951 58.8021 92.1809 39.2183 91.7653 37.8356C90.6193 34.0153 86.9783 33.8357 85.0531 33.2704C83.3106 14.6913 64.6127 1.93099 46.0078 2.00028C35.5035 2.04122 26.1955 5.84586 19.8548 10.8662C14.6475 14.989 7.84718 22.9714 7.00501 33.3318L7.00186 33.3287Z" fill="#E4097F"/>
</svg>
