<svg width="93" height="90" viewBox="0 0 93 90" fill="none" xmlns="http://www.w3.org/2000/svg">
<path fill-rule="evenodd" clip-rule="evenodd" d="M10.2574 4.15097C8.74906 4.58146 9.018 6.28883 9.01946 7.78753V81.0529C9.01946 86.2552 8.9961 85.5037 14.1936 85.5037H72.7484C77.5614 85.5037 76.9958 85.5854 76.9958 79.9292L76.9943 40.9442C77.1083 39.9956 80.8179 36.6684 81.6744 35.8147C84.3667 33.1296 84.6619 33.0085 81.8235 30.2081C81.0415 29.4362 77.2253 25.9295 77.0382 25.1969C76.5281 23.186 77.4679 17.4699 76.9008 15.4328C76.6245 14.439 68.6559 6.82585 67.3375 5.50811C66.1945 4.36257 66.234 4.06633 63.9305 4.07946C62.3023 4.08822 60.674 4.08238 59.0473 4.08238C52.7068 4.08092 11.2923 3.85765 10.2574 4.15243V4.15097ZM73.4353 43.908C72.972 44.7339 55.0571 62.3841 53.898 63.5457C53.0079 64.4359 49.7398 67.9046 48.9271 68.3322C48.227 68.6999 38.6038 71.9366 37.8336 71.9221C36.2156 71.8943 36.0285 70.435 36.5108 69.0414C37.3658 66.5635 38.1843 64.036 38.9824 61.5903C40.0391 58.3462 40.216 58.7373 43.0588 55.9092L57.7903 41.1981C61.0979 37.9147 64.2389 34.7378 67.5465 31.4529C69.2259 29.7835 70.7504 28.2483 72.4283 26.5832C73.9396 25.0845 73.5859 25.5515 73.5829 22.7789C73.5815 21.07 73.5888 19.3612 73.58 17.6538C71.8568 17.6728 64.8075 18.042 63.9071 17.1752C62.8124 16.1216 63.6148 9.51241 63.3181 7.48691L12.6589 7.48837C12.1619 9.2191 12.5185 23.1948 12.5185 26.1513C12.5185 44.4173 12.8445 64.0929 12.5127 82.0277L73.4996 82.032L73.4338 43.9109L73.4353 43.908ZM43.8144 60.0668C44.3318 60.7979 47.505 64.0185 48.2212 64.3673C52.2976 60.6154 59.5881 53.0621 63.875 48.7733C64.4187 48.229 79.137 33.8432 79.574 32.8976L75.3983 28.6058C74.5681 28.9838 68.5769 35.2077 67.4135 36.3795C64.7548 39.0617 62.2 41.5775 59.5311 44.248C58.3589 45.4227 44.3888 59.1372 43.813 60.0668H43.8144ZM20.341 27.9229C18.8663 28.4219 18.8824 30.4956 20.1583 31.0633C20.9871 31.4339 55.0469 31.2865 55.5628 31.1056C56.8914 30.6415 56.8943 28.5387 55.6973 27.9958C54.8335 27.6033 20.7927 27.7711 20.3396 27.9243L20.341 27.9229ZM20.5442 38.0416C19.2726 38.3641 18.6938 39.8351 19.7023 40.8829C20.477 41.6884 22.6753 41.4199 23.9512 41.4199C28.6167 41.4199 50.6123 41.703 52.0608 41.3075C53.2272 40.9894 53.6467 39.4805 52.6951 38.4911C51.8533 37.614 49.7866 37.9949 48.5369 37.9949C45.5289 37.9949 21.2867 37.8548 20.5442 38.0431V38.0416ZM20.17 48.3661C19.41 48.7689 18.8751 49.6839 19.4115 50.7229C19.8193 51.5153 20.7269 51.5882 21.8801 51.5824C25.122 51.5664 41.0798 51.7517 41.9816 51.454C43.1231 51.076 44.2792 48.1312 40.2817 48.1604C37.1276 48.1823 20.9389 47.959 20.17 48.3661V48.3661ZM20.1788 17.8304C18.6193 18.6651 18.9335 20.9139 20.9564 21.0452L38.6053 20.9124C40.0859 20.4002 40.0903 17.81 37.854 17.6319C35.951 17.4787 20.6495 17.5794 20.1788 17.8304V17.8304ZM21.8874 61.7712L27.8932 61.7741C29.7363 61.7727 33.1973 62.371 32.7808 59.7209C32.4592 57.6808 28.928 58.3462 27.1434 58.3462C23.7451 58.3462 18.1574 57.4269 19.3428 60.7191C19.7316 61.7946 20.7342 61.7683 21.8889 61.7727L21.8874 61.7712ZM20.4229 68.6357C19.3735 69.0005 18.6558 70.168 19.6234 71.3164C20.3761 72.2125 22.0964 71.9498 23.3885 71.9498C24.7536 71.9498 30.9319 72.1249 31.7577 71.8068C32.7165 71.439 33.2339 69.9476 32.4051 69.0531C31.6846 68.2753 29.8795 68.5219 28.6444 68.5234C27.2924 68.5234 21.1946 68.3687 20.4244 68.6357H20.4229ZM73.4353 43.908L73.5011 82.0291L12.5142 82.0247C12.8445 64.0915 12.52 44.4158 12.52 26.1484C12.52 23.1918 12.1619 9.21618 12.6603 7.48545C12.3505 7.70435 12.4235 7.14981 12.3899 7.97286L12.3666 82.0554C13.0667 82.2655 72.4882 82.3808 73.5785 82.07C73.8329 80.6545 73.6487 65.828 73.6487 63.0612L73.6589 44.499C73.5405 43.6453 73.5654 44.0933 73.4338 43.9051L73.4353 43.908ZM66.8332 14.207L70.9988 14.2362C70.8059 13.9063 67.2615 10.3559 66.8172 10.0451L66.8332 14.207ZM40.653 67.4551L44.8156 66.1184L42.1526 63.2991L40.6515 67.4537L40.653 67.4551Z" fill="#E4097F"/>
</svg>
