<svg width="48" height="48" viewBox="0 0 48 48" fill="none" xmlns="http://www.w3.org/2000/svg">
<path fill-rule="evenodd" clip-rule="evenodd" d="M23.9548 0C36.9605 0 47.5032 10.5411 47.5032 23.5447C47.5032 36.5484 36.9605 47.0894 23.9548 47.0894C10.9501 47.0894 0.406372 36.5484 0.406372 23.5447C0.406372 10.5411 10.9501 0 23.9548 0ZM17.6693 8.74044C13.4013 9.02919 10.2706 10.9655 9.38884 15.3249C8.8814 17.8229 9.00889 26.9734 9.15329 29.8476C9.38372 34.417 11.7003 37.2738 15.7086 38.1186C18.1173 38.627 27.4147 38.5144 30.2059 38.3587C33.4083 38.1826 35.9138 37.1197 37.4976 34.5501C39.1541 31.8617 38.8674 27.9134 38.8674 24.6885C38.8674 22.2289 38.916 19.7336 38.7813 17.2802C38.5299 12.7011 36.2866 9.82327 32.2357 8.97287C29.889 8.48138 20.3525 8.55664 17.6693 8.73993V8.74044ZM11.5938 21.9345C11.5938 25.4165 11.1872 31.3861 12.8544 33.605C14.4393 35.7138 16.8746 35.9043 20.2603 35.9043H27.637C35.4648 35.9043 36.3352 33.6219 36.3352 26.3775V20.7795C36.3352 17.6908 36.4202 14.9062 34.6839 13.0231C32.9997 11.1969 30.1916 11.1861 27.1034 11.1861H20.7872C17.3836 11.1861 14.7419 11.2128 12.9809 13.3226C11.4012 15.2179 11.5938 19.0214 11.5938 21.9345ZM22.7566 16.0381C18.9668 16.6458 15.7235 20.202 16.4491 24.7714C17.0425 28.4986 20.6146 31.7865 25.1376 31.0718C28.8992 30.4758 32.228 26.9104 31.4866 22.3375C30.8798 18.5908 27.3318 15.3029 22.7571 16.0381H22.7566ZM23.4314 18.5069C20.7754 18.7946 18.5874 21.1205 18.9284 24.1545C19.2172 26.7312 21.6039 28.9455 24.5979 28.5831C27.1997 28.2702 29.339 25.9249 29.0088 22.9221C28.7343 20.4145 26.3717 18.1905 23.4314 18.5069ZM31.5301 13.8965C29.296 14.5155 30.2607 17.8495 32.4815 17.188C34.5262 16.5788 33.734 13.2863 31.5301 13.8965Z" fill="white"/>
</svg>
