<svg width="48" height="48" viewBox="0 0 48 48" fill="none" xmlns="http://www.w3.org/2000/svg">
<g filter="url(#filter0_i_363_61)">
<path fill-rule="evenodd" clip-rule="evenodd" d="M23.5484 0C36.5541 0 47.0968 10.5411 47.0968 23.5447C47.0968 36.5484 36.5541 47.0894 23.5484 47.0894C10.5437 47.0894 0 36.5484 0 23.5447C0 10.5411 10.5437 0 23.5484 0V0ZM17.2629 8.74044C12.9949 9.02919 9.86423 10.9655 8.98247 15.3249C8.47503 17.8229 8.60252 26.9734 8.74692 29.8476C8.97735 34.417 11.2939 37.2738 15.3023 38.1186C17.711 38.627 27.0084 38.5144 29.7996 38.3587C33.002 38.1826 35.5075 37.1197 37.0912 34.5501C38.7477 31.8617 38.461 27.9134 38.461 24.6885C38.461 22.2289 38.5096 19.7336 38.375 17.2802C38.1235 12.7011 35.8802 9.82327 31.8294 8.97287C29.4826 8.48138 19.9461 8.55664 17.2629 8.73993V8.74044ZM11.1874 21.9345C11.1874 25.4165 10.7808 31.3861 12.4481 33.605C14.0329 35.7138 16.4682 35.9043 19.8539 35.9043H27.2306C35.0584 35.9043 35.9289 33.6219 35.9289 26.3775V20.7795C35.9289 17.6908 36.0139 14.9062 34.2775 13.0231C32.5933 11.1969 29.7852 11.1861 26.697 11.1861H20.3808C16.9772 11.1861 14.3355 11.2128 12.5745 13.3226C10.9948 15.2179 11.1874 19.0214 11.1874 21.9345V21.9345ZM22.3502 16.0381C18.5605 16.6458 15.3171 20.202 16.0427 24.7714C16.6362 28.4986 20.2083 31.7865 24.7313 31.0718C28.4928 30.4758 31.8217 26.9104 31.0802 22.3375C30.4734 18.5908 26.9254 15.3029 22.3507 16.0381H22.3502ZM23.0251 18.5069C20.369 18.7946 18.181 21.1205 18.5221 24.1545C18.8109 26.7312 21.1976 28.9455 24.1915 28.5831C26.7933 28.2702 28.9327 25.9249 28.6024 22.9221C28.3279 20.4145 25.9653 18.1905 23.0251 18.5069V18.5069ZM31.1237 13.8965C28.8896 14.5155 29.8544 17.8495 32.0751 17.188C34.1198 16.5788 33.3276 13.2863 31.1237 13.8965Z" fill="white"/>
</g>
<defs>
<filter id="filter0_i_363_61" x="0" y="0" width="57.0968" height="52.0898" filterUnits="userSpaceOnUse" color-interpolation-filters="sRGB">
<feFlood flood-opacity="0" result="BackgroundImageFix"/>
<feBlend mode="normal" in="SourceGraphic" in2="BackgroundImageFix" result="shape"/>
<feColorMatrix in="SourceAlpha" type="matrix" values="0 0 0 0 0 0 0 0 0 0 0 0 0 0 0 0 0 0 127 0" result="hardAlpha"/>
<feOffset dx="15" dy="5"/>
<feGaussianBlur stdDeviation="5"/>
<feComposite in2="hardAlpha" operator="arithmetic" k2="-1" k3="1"/>
<feColorMatrix type="matrix" values="0 0 0 0 0 0 0 0 0 0 0 0 0 0 0 0 0 0 0.25 0"/>
<feBlend mode="normal" in2="shape" result="effect1_innerShadow_363_61"/>
</filter>
</defs>
</svg>
