<svg width="59" height="59" viewBox="0 0 59 59" fill="none" xmlns="http://www.w3.org/2000/svg">
<path d="M29.3551 58.7213C13.1427 58.7213 -1.90735e-05 45.5761 -1.90735e-05 29.3606C-1.90735e-05 13.1452 13.1427 0 29.3551 0C45.5675 0 58.7102 13.1452 58.7102 29.3606C58.7102 45.5761 45.5675 58.7213 29.3551 58.7213Z" fill="#E4097F"/>
<path fill-rule="evenodd" clip-rule="evenodd" d="M44 25.09C44 26.095 43.9755 27.0284 43.7794 28.0004C43.4205 29.7738 42.7648 31.4656 41.7803 32.9594C40.5941 34.763 39.4396 35.7967 37.9751 37.2533L37.5356 37.6791C37.0397 38.1851 36.5021 38.6568 36.0222 39.1787L35.8795 39.3321C35.8478 39.365 35.8348 39.3765 35.8046 39.4052L35.7685 39.4439C35.7469 39.4654 35.7541 39.4597 35.7325 39.4826L35.0493 40.1822C35.0464 40.1851 35.0406 40.1908 35.0377 40.1951L34.5203 40.7399C34.2536 41.0023 33.912 41.4238 33.69 41.6388L33.2822 42.0947C33.2245 42.155 33.2072 42.1908 33.1452 42.2553C33.0847 42.3184 33.0703 42.3514 33.0098 42.4144C32.9478 42.479 32.9305 42.5134 32.8728 42.575C32.7734 42.6811 32.71 42.7757 32.6134 42.8833C32.2487 43.2904 31.9129 43.7392 31.5843 44.175C31.038 44.899 30.5177 45.6373 30.0363 46.4043L29.4756 47.3004C29.392 47.438 29.1153 47.9283 29.0158 48C28.9293 47.9369 28.2317 46.7785 28.1236 46.5979L26.7126 44.5277L25.4441 42.9076C25.3504 42.7929 25.2683 42.6983 25.1718 42.5865C25.0795 42.4818 25.0046 42.3843 24.9109 42.2797C24.859 42.2209 24.8302 42.1736 24.7754 42.1191C24.7077 42.0517 24.6947 42.0345 24.6356 41.9614C24.415 41.6876 23.494 40.6983 23.2519 40.4561L21.8149 38.978C21.309 38.4747 20.7396 37.8683 20.2179 37.3895C19.5174 36.7443 18.8543 36.0504 18.174 35.3823L16.7111 33.6333C16.3551 33.1128 16.0091 32.6039 15.7079 32.0462C15.398 31.4699 15.1083 30.8763 14.8776 30.2598C14.8214 30.1093 14.7783 29.976 14.722 29.824C14.5649 29.4068 14.4568 28.9265 14.3343 28.485L14.2319 27.9961C13.9869 26.7904 13.9509 25.4814 14.0546 24.2514C14.1973 22.5625 14.7451 20.8392 15.4845 19.3669L15.7915 18.7848C15.9025 18.5941 16.0221 18.4049 16.136 18.2156L16.4891 17.6809C16.8105 17.2035 17.475 16.3261 17.8886 15.9203L18.1121 15.6737C18.2663 15.5132 18.4133 15.3755 18.5704 15.2178L20.0262 13.9806L21.0956 13.2451C21.1879 13.1863 21.2773 13.1419 21.3767 13.0831C22.8872 12.1785 24.5981 11.5333 26.3378 11.2423L27.1291 11.119C27.6148 11.0358 28.6396 11 29.1887 11C29.4712 11 29.7984 11.01 30.0377 11.0416L30.878 11.1176C32.7734 11.3914 34.0648 11.7957 35.7223 12.5813L36.322 12.8967C36.7039 13.0931 37.0844 13.3412 37.4419 13.5806L38.8414 14.653C39.2061 14.9583 39.565 15.3082 39.8951 15.6494C40.1877 15.9519 40.4601 16.2974 40.7354 16.6114L41.1346 17.126C41.6809 17.797 42.0196 18.4737 42.4347 19.1833C42.4693 19.2436 42.488 19.2737 42.5211 19.3425C43.0343 20.3704 43.4739 21.5102 43.7045 22.6499C43.8688 23.4585 44 24.2542 44 25.09ZM29 19.0285C25.6561 19.0285 22.9435 21.7252 22.9435 25.0528C22.9435 28.3789 25.6561 31.0756 29 31.0756C32.3439 31.0756 35.055 28.3789 35.055 25.0528C35.055 21.7252 32.3439 19.0285 29 19.0285Z" fill="white"/>
</svg>
