<svg width="102" height="50" viewBox="0 0 102 50" fill="none" xmlns="http://www.w3.org/2000/svg">
<path fill-rule="evenodd" clip-rule="evenodd" d="M93.4748 25.001C93.4748 11.1947 82.2804 0.00204796 68.4719 0.00204796C62.4797 0.00204796 57.0261 2.09865 52.7206 5.61244C56.0056 8.78423 58.5126 12.7542 59.8583 17.2408H57.7808C56.4786 13.2513 54.1913 9.73141 51.2182 6.90727C48.2293 9.75394 45.9843 13.3077 44.6995 17.23H42.622C43.9473 12.8279 46.3837 8.82672 49.6845 5.62832C45.3898 2.14985 39.9634 0 34.004 0C20.1955 0 9 11.1926 9 25C9 38.8063 20.196 49.999 34.004 49.999C39.9624 49.999 45.3903 47.8491 49.6845 44.3707C46.4252 41.2101 43.9606 37.234 42.621 32.7715L44.6995 32.7741C45.9848 36.6954 48.2298 40.2466 51.2182 43.0943C54.1913 40.2696 56.4786 36.7497 57.7808 32.7592L59.8583 32.7602C58.5126 37.2484 56.0056 41.2183 52.7206 44.3886C57.0261 47.9034 62.4797 50 68.4719 50C82.2804 50.001 93.4748 38.8074 93.4748 25.001V25.001Z" fill="white"/>
<path fill-rule="evenodd" clip-rule="evenodd" d="M75.0992 30.842L76.8259 21.5919H79.0078L79.2361 22.5032C79.6279 22.047 80.377 21.5919 81.6475 21.5919L80.9644 24.0013C80.3453 24.0013 79.1722 23.84 78.4235 26.6073L77.6421 30.842H75.0997H75.0992ZM52.6178 30.8507L54.3265 21.6917H56.4879L56.7122 22.5954C57.1004 22.1428 57.8418 21.6917 59.099 21.6917L58.4533 24.1109C57.8419 24.1109 56.6477 23.9179 55.9062 26.6575L55.133 30.8507H52.6172H52.6178ZM41.6431 19.2408H44.1588L43.6431 21.6917H44.9976L44.546 23.691H43.2561L42.5463 27.4316C42.4177 28.1402 42.4817 28.7859 43.9335 28.5611L43.7722 30.4309C43.2238 30.7852 42.4823 30.8825 41.9011 30.8825C41.3209 30.8825 39.4171 30.5271 39.9025 28.0128L41.6441 19.2408H41.6431ZM52.545 26.722C52.8348 25.2393 53.5134 21.5632 49.0937 21.5632C45.0299 21.5632 44.5137 25.5936 44.4169 26.1737C44.3212 26.7558 44.2566 30.8507 48.6097 30.8507C49.6753 30.8809 51.2238 30.7534 51.8363 30.4299L52.2224 28.5288C51.8363 28.6246 50.3851 28.7546 49.384 28.7546C48.3855 28.7546 46.7725 28.8191 47.0628 26.7225H52.5456L52.545 26.722ZM39.2573 23.7555L39.8375 21.8847C38.6434 21.4347 37.7088 21.5315 37.3545 21.5315C36.9991 21.5315 33.9783 21.4951 33.5159 23.7238C33.1606 25.4333 33.7863 26.1394 34.386 26.4005C35.3553 26.8203 35.9027 27.2064 36.4199 27.4644C37.0585 27.7834 36.9407 28.8514 36.0958 28.8514C35.7087 28.8514 34.0326 29.0444 32.7744 28.6246L32.4201 30.5271C33.5804 30.8512 34.5161 30.8512 35.3871 30.8512C36 30.8512 38.9982 31.0125 39.417 28.2375C39.6219 26.8859 39.031 26.271 38.5455 25.9822C38.0626 25.6581 37.2566 25.2081 36.741 24.9813C36.2253 24.7555 35.8382 23.8856 36.7727 23.6286C37.3539 23.562 38.5455 23.562 39.2567 23.7561L39.2573 23.7555ZM22.9381 30.8507L25.034 19.6919H20.9057L17.8415 26.4645L17.356 19.6919H13.326L11.1646 30.8507H13.6788L15.2284 22.7884L15.9053 30.8507H18.2921L21.8074 22.9814L20.3235 30.8507H22.9376H22.9381ZM25.71 21.853L25.3238 23.8523C25.9368 23.7878 27.582 23.5308 28.452 23.561C29.322 23.5938 30.2894 23.4653 29.999 24.8517C29.3549 24.9162 24.8394 24.2076 24.1291 28.0757C23.8403 29.9793 25.4846 30.9475 26.7745 30.8819C28.0644 30.8174 28.4188 30.6562 28.8705 30.3336L29.1945 30.8507H31.5476L32.5476 25.8194C32.8062 24.5624 33.2246 21.5315 29.0005 21.5315C28.2263 21.5632 27.3553 21.5315 25.7095 21.853H25.71ZM66.4774 22.2718C65.8317 21.8847 65.3816 21.8218 64.5433 21.8218C63.7045 21.8218 61.8324 22.6225 61.4791 24.884C61.0592 27.5607 62.8975 28.8816 65.4788 28.0133L66.2203 30.2701C65.3816 30.6572 64.5433 30.8512 63.1561 30.8512C60.5435 30.8512 57.7051 28.5288 58.995 23.8201C59.9475 20.3513 62.9318 19.0811 64.6718 19.1451C66.736 19.2214 67.4785 19.9192 68.1242 20.6278L66.4774 22.2718V22.2718ZM87.927 22.6589C87.4416 22.3056 87.1527 21.5632 85.9576 21.5632C84.5719 21.5632 82.4105 21.3046 81.1861 25.4968C80.3658 28.2984 82.0249 30.8512 83.829 30.8512C84.6677 30.8185 85.5059 30.4642 86.0216 30.1088L86.3457 30.8512H89.0541L91.2483 19.1123H88.6029L87.927 22.6589ZM68.284 21.853L67.8969 23.8523C68.5098 23.7878 70.1541 23.5308 71.0251 23.561C71.8951 23.5938 72.865 23.4653 72.5736 24.8517C71.9279 24.9162 67.4139 24.2076 66.7037 28.0757C66.4139 29.9793 68.0582 30.9475 69.3481 30.8819C70.639 30.8174 70.9924 30.6562 71.4451 30.3336L71.7676 30.8507H74.1206L75.1207 25.8194C75.3803 24.5624 75.7992 21.5315 71.5736 21.5315C70.8004 21.5632 69.9283 21.5315 68.284 21.853V21.853ZM47.2235 25.0463H50.3519C50.5121 24.1426 50.2217 23.3685 49.2232 23.3685C48.2221 23.3685 47.5134 23.8856 47.2235 25.0463ZM29.5817 26.722C29.1618 26.6565 28.2262 26.4005 27.4192 26.9478C26.6132 27.4962 26.3864 28.4633 27.2262 28.7859C28.0332 29.0966 29.2248 28.5616 29.3877 27.7219L29.5817 26.722ZM87.0222 26.4322C87.2793 25.5936 87.14 24.5466 86.8609 24.1769C86.0877 23.1442 84.3067 23.9598 83.7639 25.9822C83.4095 27.3036 84.1848 28.3031 85.0548 28.3031C85.9904 28.3031 86.5706 27.5607 87.0217 26.4322H87.0222ZM72.1543 26.722C71.7344 26.6565 70.7998 26.4005 69.9928 26.9478C69.1868 27.4962 68.96 28.4633 69.7987 28.7859C70.6083 29.0966 71.7973 28.5616 71.9601 27.7219L72.1543 26.722Z" fill="#B80766"/>
</svg>
