<svg width="66" height="40" viewBox="0 0 66 40" fill="none" xmlns="http://www.w3.org/2000/svg">
<path fill-rule="evenodd" clip-rule="evenodd" d="M21.064 26.4897V29.3787C21.0626 29.702 21.1053 29.9421 21.1053 30.3126L21.1039 33.2002C21.1026 33.543 21.1453 33.7608 21.1453 34.1341L21.497 34.4061C22.1153 34.7655 22.5017 34.184 22.7775 33.9648C23.032 33.7622 26.4591 30.1516 26.6416 29.9615L29.8435 26.627C30.2232 26.2316 30.0261 26.319 30.8535 26.319H32.7708C33.5916 26.3232 34.9001 26.1164 35.5796 25.8888C36.2165 25.6765 36.8441 25.4115 37.381 25.0896C38.4923 24.4221 39.3731 23.7477 40.2445 22.7195C40.6509 22.238 40.9973 21.7246 41.3437 21.189C41.6689 20.6839 42.0126 19.9817 42.2271 19.4322C43.6275 15.8508 43.429 11.7157 41.521 8.41312C41.3398 8.09812 41.1625 7.79979 40.9573 7.51394C40.848 7.36269 40.7681 7.25306 40.6549 7.10736L40.1432 6.49265C38.8201 4.93435 36.9533 3.68271 34.9826 3.24422C33.6129 2.93756 32.9893 3.12766 32.3391 3.02498C32.2711 3.01388 32.0806 3.00555 31.8048 3H25.1839C24.2631 3 23.4731 3.04718 22.5723 3.04163L21.3332 3.15264C20.2779 3.37327 19.3451 3.78539 18.455 4.31824L17.6489 4.88023C17.0493 5.34647 16.7961 5.60318 16.2405 6.17488C16.1086 6.31225 16.0566 6.40661 15.9354 6.53705C15.0613 7.47231 14.1059 9.27899 13.6969 10.5334C12.471 14.2911 12.8655 18.4762 14.8561 21.7829C15.1892 22.3351 16.0086 23.4397 16.5016 23.849C16.8041 24.1002 16.8947 24.2389 17.4344 24.6622C18.4443 25.4545 19.3798 25.8736 20.5604 26.2926C20.7123 26.3454 20.9387 26.4272 21.064 26.4897ZM22.7069 31.7307C23.0053 31.4157 23.3011 31.0952 23.5849 30.7982C24.2272 30.128 24.8655 29.4522 25.509 28.782L28.7109 25.4476C29.5184 24.6067 29.7769 24.6511 30.8535 24.6511H32.7708C33.4131 24.6511 34.483 24.504 35.0906 24.3014C35.5983 24.1321 36.1192 23.9212 36.5816 23.645C37.5396 23.0692 38.3071 22.4864 39.0412 21.6163C39.3997 21.1931 39.7116 20.7269 40.014 20.2592C40.2912 19.8291 40.5563 19.2837 40.7441 18.8036C41.9433 15.7328 41.8021 12.1347 40.1486 9.27205C39.9993 9.01396 39.8474 8.75447 39.6742 8.51302C39.5929 8.40063 39.5117 8.28823 39.4264 8.17722L38.9334 7.58748C37.8488 6.28867 36.2738 5.23685 34.6482 4.87468C34.2458 4.78448 33.8567 4.73453 33.445 4.72759C33.0626 4.72065 32.6895 4.74147 32.3071 4.70123C32.2498 4.69567 32.1939 4.68874 32.1379 4.68041C32.0233 4.6707 31.9034 4.6707 31.7888 4.66792H25.1839C24.3351 4.66792 23.4864 4.71233 22.6376 4.71094L21.5636 4.8053C20.7562 4.98569 20.0153 5.31178 19.2998 5.73639L18.5763 6.24148C18.1193 6.59949 17.7768 6.93946 17.3677 7.3613C17.2731 7.45843 17.1839 7.59303 17.0839 7.69988C16.3631 8.47001 15.545 10.0533 15.2132 11.0704C14.1566 14.3091 14.4591 17.9822 16.2139 20.8962C16.4778 21.336 17.1252 22.2324 17.501 22.5447C17.8101 22.8028 18.0767 23.0789 18.3978 23.3301C19.2439 23.9933 20.0806 24.3597 21.0759 24.7135C21.3038 24.794 21.5397 24.8773 21.7569 24.9855L22.6669 25.4392L22.6656 29.3787C22.6656 29.6868 22.7069 29.9976 22.7069 30.3126V31.7307V31.7307ZM44.5576 16.5918C44.5576 16.8623 44.6708 17.108 44.8094 17.2634C45.0945 17.5825 45.7594 17.5659 46.1818 17.6186C47.1665 17.7421 48.1858 18.2097 48.9493 18.8564C49.0439 18.9368 49.1133 18.984 49.1972 19.0659C49.7515 19.6001 50.3325 20.3911 50.6403 21.1737C51.6716 23.7935 51.4169 26.5979 49.79 28.8805C49.6901 29.0207 49.6461 29.054 49.5462 29.1775C49.4489 29.2968 49.4304 29.3385 49.3198 29.4522C49.2212 29.5535 49.1545 29.6285 49.0546 29.7284C48.956 29.8283 48.8747 29.8838 48.7681 29.9823C48.0792 30.6109 47.2345 30.9759 46.3351 31.1868C45.8834 31.2922 45.0399 31.209 44.816 31.771C44.6215 32.2636 44.6802 34.2548 44.6802 34.857L41.5889 31.789C41.429 31.6766 41.2944 31.7127 41.0493 31.7141C40.7868 31.7168 40.7176 31.6724 40.4804 31.6697C39.6356 31.6586 38.8881 31.6544 38.0713 31.6294C36.8095 31.592 35.6822 30.7316 34.8814 29.8977C34.054 29.0373 33.6675 28.0688 32.8507 28.399C32.1192 28.6946 32.3099 29.5494 32.7522 30.1613L33.3918 30.8954C34.6736 32.2303 35.8581 33.1461 37.7169 33.4C37.9474 33.4319 38.0753 33.4555 38.3178 33.4541C38.5803 33.4541 38.6828 33.4999 38.9693 33.4986C39.2078 33.4972 40.7721 33.4458 40.9186 33.5499L44.2817 37.055C44.3444 37.1202 44.3818 37.1646 44.4444 37.2257C44.5323 37.3103 44.5615 37.3159 44.6495 37.395C44.888 37.6156 45.1465 37.9348 45.497 38H45.7515C45.8794 37.9778 46.0193 37.9195 46.1725 37.8141C46.5017 37.5879 46.367 37.08 46.3923 36.5985C46.4456 35.5855 46.4364 34.7668 46.4324 33.7511C46.4311 33.4625 46.4749 33.364 46.4749 33.0726C46.6522 32.974 47.4411 32.7465 47.8035 32.5883C48.0207 32.4925 48.2218 32.412 48.415 32.2899L49.0053 31.9292C49.8794 31.381 50.3058 30.8343 50.9307 30.153L51.6821 29.0665C52.3857 27.8301 53 26.3467 53 24.7482V24.2501C52.9973 23.4341 52.9694 22.9193 52.7002 21.9591C52.527 21.336 52.3537 20.8518 52.1032 20.33C51.854 19.8138 51.6142 19.4114 51.2931 18.9646L50.8147 18.3582C50.1179 17.4243 48.6628 16.496 47.5915 16.1075C47.1065 15.9326 46.4257 15.7647 45.8221 15.7425C45.4237 15.7273 45.2944 15.6732 44.9653 15.8702C44.7494 16.0006 44.5576 16.2435 44.5576 16.5918V16.5918ZM20.2072 11.1981C20.2072 11.4215 20.6882 11.9627 20.8201 11.9627H34.8094C35.3238 11.9627 35.8222 10.7221 35.0627 10.2961C34.6469 10.063 29.5157 10.1365 28.8135 10.1365C28.0113 10.1365 27.2093 10.1365 26.4071 10.1365C25.569 10.1365 24.8508 10.1782 24.042 10.1782C23.5317 10.1782 20.8801 10.0963 20.579 10.31C20.3671 10.4599 20.2072 10.8276 20.2072 11.1981ZM20.2072 14.5103C20.2072 14.9474 20.4191 15.5247 20.8575 15.5344L23.5117 15.5302C24.9387 15.5302 26.367 15.5344 27.7941 15.5302C28.1845 15.5288 28.4164 15.5732 28.8135 15.5732H32.0353C32.4843 15.5732 34.7589 15.5816 35.0627 15.4123C35.8195 14.9904 35.3278 13.7457 34.8094 13.7457H20.8201C20.6882 13.7457 20.2072 14.2869 20.2072 14.5103V14.5103ZM20.2072 18.207C20.2072 18.8189 20.579 19.0492 21.08 19.1242C21.8648 19.2407 27.2692 19.1949 27.8888 19.1117C28.2766 19.059 28.2539 19.0714 28.479 18.8342C29.036 18.2472 28.5363 17.5478 28.2152 17.4285C27.8381 17.2883 24.9494 17.2717 24.4911 17.2717C23.6383 17.2717 22.8508 17.3175 21.9608 17.3133L20.7496 17.4118C20.5124 17.4771 20.2072 17.86 20.2072 18.207V18.207Z" fill="#B2B3B3"/>
</svg>
