<svg width="103" height="50" viewBox="0 0 103 50" fill="none" xmlns="http://www.w3.org/2000/svg">
<path fill-rule="evenodd" clip-rule="evenodd" d="M4.74448 12.8575C3.68756 13.3669 3.78594 14.2819 3.32968 16.2197L0.673513 27.7959C0.496337 28.5577 -0.338335 31.0936 0.152741 31.6435C0.595683 32.137 3.78229 32.0367 4.35633 31.6629C5.06503 31.2016 5.30883 29.1854 5.55309 28.1138C5.98169 26.2333 5.83319 25.6798 7.93422 25.6506C10.9375 25.6081 13.3719 25.2149 15.5697 23.8172C17.2769 22.7302 18.9796 20.7596 18.8024 17.6037C18.6411 14.7232 16.7613 13.3475 14.0299 12.9225C12.8736 12.7428 5.47477 12.5053 4.74558 12.857L4.74448 12.8575ZM55.5619 12.8478C54.3765 13.1852 54.4261 14.3525 54.0231 16.0851L51.3461 27.7339C50.3414 32.0874 50.0607 31.9768 52.6907 31.9768C55.5814 31.9768 55.3059 32.1452 56.1518 28.3637C56.5436 26.6116 56.3991 25.7213 58.3798 25.7213C61.3007 25.7202 63.923 25.3112 66.0865 23.9826C67.8398 22.9063 69.5727 20.885 69.4478 17.7921C69.3315 14.8896 67.5024 13.4555 64.7623 13.0044C63.6071 12.814 56.4509 12.5943 55.5614 12.8478H55.5619ZM71.0884 21.0156C71.6419 21.1855 72.5483 20.7278 73.2048 20.5763C73.978 20.3991 74.8214 20.2512 75.6366 20.222C76.418 20.1954 77.4571 20.2691 78.1535 20.4903C78.9713 20.7488 79.2821 21.2593 79.2007 22.228C78.6195 22.7159 76.6946 22.6893 75.7216 22.8116C72.6856 23.1915 68.8169 23.9738 68.0729 27.3955C67.1614 31.5861 70.7233 33.2629 74.5992 31.9246C75.9075 31.4745 76.4765 30.8458 77.2979 30.4638C77.1473 31.5267 77.1447 31.9358 78.2882 31.9635C81.9567 32.052 81.5086 32.0193 82.3269 28.4727C82.7186 26.7678 84.1288 21.6586 83.9358 20.1954C83.562 17.3758 79.9811 17.0128 77.0602 17.0784C75.7171 17.1086 73.7476 17.276 72.5279 17.6195C71.0618 18.0332 70.9809 20.6905 71.0884 21.0156V21.0156ZM28.5108 22.2423C27.9403 22.7384 24.1033 22.7179 21.6679 23.4665C19.5746 24.1095 17.8797 25.2646 17.4208 27.3806C16.4489 31.8662 20.6596 33.7529 25.2964 31.2666C25.7819 31.0055 26.1583 30.6528 26.6376 30.45C26.4497 31.8488 26.675 31.9665 28.1313 31.9594C31.3676 31.9435 30.8571 32.2517 32.1798 26.308C32.5413 24.6783 33.1819 22.6109 33.2914 20.9669C33.5777 16.6744 27.441 16.8986 24.5432 17.1777C21.1513 17.5054 21.0386 17.6799 20.5506 19.602C19.9038 22.1501 20.7057 20.6515 24.2503 20.2681C25.8377 20.0971 29.1007 20.1201 28.5108 22.2423V22.2423ZM35.1487 38.7238C39.6339 38.7192 38.6242 38.947 41.3474 34.5163C42.5 32.6393 43.5318 30.726 44.6891 28.85C45.8321 26.9961 46.9171 25.1007 47.9981 23.2484C48.5562 22.2925 49.0832 21.3617 49.6531 20.4457C49.966 19.9435 51.3158 17.9769 50.9927 17.4086C50.539 17.0825 47.1675 17.1915 46.5853 17.4751C45.6328 17.9411 45.1173 19.1412 44.5335 20.1636L41.9193 24.6589C41.7626 24.9369 41.6525 25.1238 41.5066 25.3844C41.2321 25.8733 41.3612 25.9573 40.7421 25.836C40.5029 25.0439 39.8526 20.6126 39.6232 19.2041C39.2725 17.042 38.6037 17.3016 36.2851 17.2919C35.307 17.2872 34.5363 17.2202 34.6566 18.3583C34.8036 19.7525 35.2005 21.4743 35.4488 22.891C35.9563 25.7894 36.6138 28.9852 36.9574 31.9056C37.0859 33.0049 37.0654 33.0888 36.5871 33.927L34.653 37.3035C34.1993 38.1017 33.8486 38.7243 35.1482 38.7233L35.1487 38.7238ZM89.1466 12.9922C88.2136 13.3075 88.08 14.4262 87.9115 15.1809L84.8329 29.1741C84.6644 29.9298 84.0746 31.3752 84.8514 31.8119C85.3271 32.0802 87.4481 32.1043 88.0672 31.9189C88.9945 31.6399 89.1169 30.8294 89.3499 29.8029L92.4347 15.8183C92.5888 15.1108 93.1905 13.432 92.5161 13.0556C92.151 12.8519 89.5685 12.8508 89.1471 12.9927L89.1466 12.9922ZM59.5177 16.4394C58.7081 16.7911 58.6769 17.4199 58.4556 18.3466C57.7019 21.5255 57.2082 22.1358 59.5177 22.0846C62.2127 22.0242 64.9891 20.6249 64.072 17.7895C63.4642 15.91 59.9765 16.2387 59.5177 16.4389V16.4394ZM8.21836 22.018C10.3516 22.018 12.6258 21.7052 13.3443 19.6972C14.4775 16.528 11.6841 16.2515 9.54625 16.2515C7.98084 16.2515 7.98436 17.5438 7.66278 18.9476C7.38627 20.1585 6.52597 22.0186 8.21836 22.0186V22.018ZM78.3174 25.1591C76.6952 25.2282 73.4158 25.4576 72.8822 27.1717C72.7547 27.5793 72.722 27.8563 72.8868 28.2213C72.9975 28.464 73.1925 28.8654 73.3369 29.0062C74.1849 29.831 76.3853 29.0584 77.1692 28.6166C77.7458 28.2904 77.9205 27.8486 78.1049 27.0791C78.367 25.9921 78.5355 25.8365 78.3174 25.1586V25.1591ZM26.8506 25.2185C25.1711 25.3982 24.1945 25.4407 23.0198 26.2415C21.9096 26.9987 21.9373 27.6525 22.4642 28.6765C22.6788 29.0963 22.6353 29.0912 23.1509 29.2105C24.4593 29.5115 26.2284 29.0405 26.9418 28.2689C27.3934 27.781 27.8021 25.6481 27.7719 25.4771C27.6797 24.9784 27.3279 25.1678 26.8506 25.2185V25.2185ZM98.9953 12.0214C98.9722 12.0107 98.9441 11.9584 98.9334 11.9764C98.7828 12.2262 98.8253 11.9047 98.8012 11.8914C98.686 11.832 98.9323 11.831 98.4904 11.7665C98.4018 11.9277 98.4807 11.6149 98.4044 12.0153L98.3839 13.1483C98.3839 13.9296 98.2308 14.4585 98.5851 14.4662C98.9174 14.3592 98.749 14.671 98.8242 14.1073L98.8329 12.4489C99.1765 12.1975 99.9068 11.8581 100.083 12.5058C100.244 13.1002 99.9227 13.9957 100.197 14.4626L100.482 14.4616C100.644 13.8221 100.566 13.1427 100.551 12.4853C100.98 12.1515 101.113 12.045 101.712 12.2063C102.115 13.1063 101.568 14.7094 102.155 14.4483C102.328 14.3704 102.315 14.6377 102.315 14.0975C102.315 12.7362 102.475 10.9601 100.481 12.1028C100.436 12.0701 99.5954 11.2667 98.9958 12.0214H98.9953ZM96.1011 11.916C96.3023 12.4233 95.8399 11.5617 96.1922 12.0337C96.4856 12.4269 96.3648 11.8688 96.4129 12.3906C96.4139 12.9317 96.3525 13.6757 96.5778 14.1124C96.7391 14.4232 97.7223 14.8404 97.7914 14.1923C97.2988 13.839 96.6024 14.7928 96.8876 12.1284C97.9942 12.1479 97.7684 12.1796 97.7832 11.8212L96.86 11.7583L96.8528 11.0036L96.4365 11C96.3321 12.0701 96.3991 11.4936 96.1016 11.916H96.1011Z" fill="#FEFEFE"/>
</svg>
