<svg width="191" height="115" viewBox="0 0 191 115" fill="none" xmlns="http://www.w3.org/2000/svg">
<path fill-rule="evenodd" clip-rule="evenodd" d="M9.12143 17.1202L9 97.3656C8.99393 103.741 15.2245 106.565 20.7447 106.596C31.5921 106.655 42.4286 106.695 53.2772 106.695L54.0203 106.665C56.6165 106.556 58.7282 106.755 60.7828 105.54C63.634 103.853 66.6479 100.451 66.4475 95.4133C61.9121 95.2907 57.3269 95.4922 52.7745 95.3538C50.7393 95.2931 48.4139 95.3744 47.1049 94.2161C45.6016 92.8866 45.8833 91.0934 45.825 88.6821L45.8359 69.9223H17.301C16.4741 69.9223 15.7175 69.5799 15.1687 69.0347C14.6162 68.4786 14.2737 67.7222 14.2737 66.8954V53.5228C14.2737 53.184 14.3308 52.8586 14.434 52.5527C14.3296 52.2479 14.2737 51.9225 14.2737 51.5826V38.21C14.2737 37.8712 14.3308 37.5458 14.434 37.2399C14.3296 36.9351 14.2737 36.6097 14.2737 36.2697V22.8971C14.2737 22.0642 14.6162 21.3042 15.1614 20.759C15.709 20.2114 16.468 19.8703 17.301 19.8703H45.8663V19.1636V9H16.247C11.7407 9 8.58714 13.8287 9.12143 17.1202V17.1202ZM45.8384 65.8087L45.8457 54.6094H18.3878V65.8087H45.8384ZM45.8481 50.4959L45.8541 39.2966H18.3878V50.4959H45.8481ZM45.8566 35.1831L45.8639 23.9838H18.3878V35.1831H45.8566ZM106.617 90.8202L106.625 98.9064C101.292 99.6968 76.6647 99.6312 75.0764 103.152C74.9063 105.567 91.8338 106.753 93.9054 106.892C106.138 107.709 126.098 107.666 138.371 106.906C141.189 106.733 156.833 105.831 157.514 103.152C155.369 99.7114 131.618 99.3593 126.023 98.927L125.94 90.7837C129.845 90.5421 134.41 90.74 138.37 90.7364C150.209 90.7267 164.64 90.944 175.992 90.4923C181.44 90.275 181.244 89.9946 181.555 83.5365C181.752 79.4667 181.695 75.2099 181.719 71.1194L181.777 20.7299C181.763 18.712 181.828 16.467 181.681 14.4746C181.618 13.5895 181.437 12.7286 181.012 12.1094C180.79 11.7853 179.598 10.5408 179.428 10.4412C178.554 9.92761 168.839 10.2494 166.987 10.2494L66.195 10.3489C62.4306 10.3635 57.5697 10.2202 53.9293 10.6112C51.6063 10.8601 51.5395 12.0475 51.3477 14.3289C50.7466 21.4948 51.0611 37.8651 51.0611 45.564C51.0611 57.8864 50.9506 71.0733 51.1862 83.3629C51.2967 89.0949 50.9263 90.2422 56.4842 90.4972C64.6321 90.8687 73.2914 90.683 81.4928 90.6975L100.392 90.7437C102.149 90.7461 104.99 90.5883 106.617 90.8202V90.8202ZM57.4034 15.9364V77.6236C96.2672 77.6151 136.388 77.8021 175.304 77.4852L175.503 15.3403L57.4009 15.3658L57.4034 15.9364V15.9364Z" fill="white"/>
</svg>
