<svg width="66" height="40" viewBox="0 0 66 40" fill="none" xmlns="http://www.w3.org/2000/svg">
<path fill-rule="evenodd" clip-rule="evenodd" d="M22.2959 11.4112C21.7673 13.8025 21.9976 16.4791 22.5867 18.7942C22.7284 19.3545 22.8836 19.8635 23.0608 20.3888C23.3236 21.1718 23.638 21.9172 23.9687 22.6814C24.0263 22.8152 24.0765 22.9065 24.1385 23.0454C24.5756 24.0247 25.389 25.4705 26.0593 26.4123C26.111 26.4848 26.1228 26.4936 26.1715 26.5761C26.2173 26.6512 26.2468 26.6712 26.2941 26.7375L27.0264 27.7456C27.2242 28.027 27.8828 28.7236 28.1116 28.9875L29.78 30.6047C30 30.7998 30.2317 30.9787 30.4546 31.1625C31.8661 32.3332 33.6807 33.5114 35.6561 33.8241L35.6857 33.8291C36.7871 34.0042 37.3983 34.0567 38.4968 33.9304C39.4092 33.8253 40.3024 33.5552 41.1012 33.1737C41.6209 32.926 42.1361 32.5959 42.4934 32.1969C43.0471 31.5778 43.1136 31.0162 42.8537 30.2795C42.7533 29.9956 42.5717 29.7117 42.3945 29.4591C42.1376 29.0938 41.8143 28.6936 41.5058 28.3597C40.7395 27.5279 39.9038 26.7175 38.9722 26.0158C38.2679 25.4893 37.4234 25.3955 36.5375 25.6681C36.3175 25.7357 36.1743 25.7919 35.9706 25.8757C35.8628 25.9208 35.7963 25.9508 35.6886 25.9996C35.1054 26.2547 34.4661 26.7012 33.967 27.0752C33.5226 27.4054 33.1329 27.2753 32.8287 26.8976C32.7637 26.8175 32.7196 26.7575 32.6517 26.6775C32.4612 26.4511 32.2456 26.2384 32.0876 25.9883L31.0615 24.5737C30.8267 24.2598 30.6185 23.9159 30.4236 23.5807C30.3232 23.4043 30.2229 23.2605 30.1313 23.0816C29.7681 22.3762 29.3871 21.7334 29.0579 21.0017C28.9708 20.8091 28.9088 20.6627 28.8246 20.4664C28.7434 20.2775 28.6756 20.1137 28.6003 19.9273C28.2149 18.9955 27.9285 18.0437 27.6569 17.0794C27.4886 16.4828 27.3718 15.8975 27.2862 15.2847C27.1917 14.593 28.271 14.5993 28.9354 14.4667C29.9954 14.2553 31.3479 14.174 32.0374 13.3798C32.4892 12.8583 32.4803 12.1103 32.4449 11.4875C32.377 10.308 32.3002 9.07983 31.9695 7.92917C31.8027 7.35259 31.6151 6.91734 31.119 6.50585C30.8606 6.28823 30.521 6.15315 30.1534 6.07686L29.8434 6.02808C29.334 5.96929 28.7981 6.00807 28.3625 6.09562C27.7483 6.21819 27.1504 6.38954 26.582 6.62717L25.0244 7.4639C24.3659 7.87539 23.7989 8.46573 23.3604 9.04982C22.882 9.68518 22.507 10.4606 22.2959 11.4112V11.4112Z" fill="#B2B3B3"/>
</svg>
