<svg width="191" height="115" viewBox="0 0 191 115" fill="none" xmlns="http://www.w3.org/2000/svg">
<path d="M44.3603 5H81.1423C83.7179 5 86.0592 6.04781 87.7536 7.73305C89.4479 9.41828 90.5014 11.7482 90.5014 14.3101V100.97C90.5014 103.532 89.4479 105.862 87.7536 107.547C86.0592 109.232 83.7179 110.28 81.1423 110.28H44.3603C41.7846 110.28 39.4421 109.232 37.7478 107.547C36.0535 105.862 35 103.532 35 100.97V14.3101C35 11.7482 36.0535 9.41828 37.7478 7.73305C39.4421 6.04781 41.7846 5 44.3603 5V5ZM71.6233 27.0465C72.3545 26.1772 73.657 26.0618 74.531 26.7891C75.405 27.5164 75.521 28.8119 74.7898 29.6812L68.5996 37.0438C67.8684 37.9131 66.566 38.0285 65.6919 37.3012C64.8179 36.5739 64.702 35.2784 65.4331 34.4091L71.6233 27.0465ZM67.9978 20.0773C68.7339 19.2128 70.0364 19.1048 70.9055 19.8369C71.7747 20.569 71.8833 21.8645 71.1472 22.729L56.7479 39.5947C56.0118 40.4592 54.7093 40.5673 53.8402 39.8351C52.9711 39.103 52.8624 37.8075 53.5985 36.943L67.9978 20.0773V20.0773ZM81.1423 10.1407H44.3603C43.2092 10.1407 42.1594 10.6106 41.4001 11.3658C40.6408 12.121 40.1684 13.1651 40.1684 14.3101V100.97C40.1684 102.115 40.6408 103.159 41.4001 103.914C42.1594 104.669 43.2092 105.139 44.3603 105.139H81.1423C82.2934 105.139 83.342 104.669 84.1012 103.914C84.8605 103.159 85.3329 102.115 85.3329 100.97V14.3101C85.3329 13.1651 84.8605 12.121 84.1012 11.3658C83.342 10.6106 82.2934 10.1407 81.1423 10.1407V10.1407Z" fill="white"/>
<path fill-rule="evenodd" clip-rule="evenodd" d="M113.007 58.3591L104.789 39.0587C103.898 36.8734 103.167 34.2558 102.98 31.6297C102.361 22.9575 108.041 17.9275 114.988 16.0578C117.964 15.2565 120.164 15.2978 123.066 16.0736C123.052 20.3921 124.187 23.8814 127.043 26.9288C127.366 27.2748 127.873 27.5941 128.135 28.0202C127.1 30.877 123.891 33.3222 121.093 34.478C117.389 36.009 115.37 34.5642 113.859 36.2166C112.953 37.2085 113.106 38.3351 113.658 39.6027L121.67 58.4489C122.571 60.5493 123.41 62.6958 124.339 64.7319C124.699 65.5198 126.93 70.6639 126.982 71.118L119.756 74.1762C119.338 73.5983 118.443 71.2151 118.095 70.4065L114.917 62.9253C114.738 62.5125 113.383 59.4591 113.366 59.0754C113.082 58.8338 113.103 58.7282 113.007 58.3591V58.3591ZM145.788 57.5214C144.781 55.7986 141.576 57.8723 136.73 55.7124C135.251 55.0519 134.414 54.3878 133.36 53.527C132.804 53.0742 131.13 51.2919 130.873 50.3668C132.222 48.9669 133.173 47.6982 134.087 45.3696C135.139 42.6913 135.124 41.153 134.941 38.1409C138.472 36.8807 141.245 36.8855 144.96 37.9466C155.783 41.0353 158.142 49.8168 154.738 60.4923C151.04 72.0892 146.833 84.1172 143.024 95.77L135.491 93.3333C135.595 92.4726 136.535 90.0201 136.87 89.0148L145.48 63.0965C145.736 62.3267 145.937 61.676 146.2 60.9354C146.634 59.7152 146.516 59.9338 146.519 58.5849C146.499 58.5631 146.474 58.4975 146.465 58.5145L145.788 57.5214V57.5214ZM120.433 75.7594C121.509 75.4996 126.759 72.9379 127.796 72.7728C128.63 75.8614 126.753 76.2584 125.097 76.9686C124.211 77.3499 123.357 77.8246 122.333 77.5636C121.403 77.3256 120.645 76.7963 120.433 75.7594ZM142.412 97.5086C142.189 98.3196 141.585 99.1173 140.756 99.3528C139.541 99.6964 138.886 99.3491 137.823 98.9958C135.64 98.271 134.312 97.8595 134.849 95.061C135.271 95.0561 142.083 97.284 142.412 97.5086V97.5086ZM128.727 26.0316C127.881 25.6236 126.553 23.4176 125.995 22.223C125.325 20.7855 124.755 18.8126 124.812 16.9927C126.313 17.4516 127.129 19.6394 127.629 20.8134C128.222 22.206 129.452 24.3464 128.727 26.0316V26.0316ZM130.118 48.5371C129.267 47.1373 130.342 44.5549 130.773 43.2571C131.051 42.423 131.283 41.5197 131.676 40.8495C131.991 40.3117 132.79 39.338 133.308 39.1947C133.413 41.2793 133.141 42.8115 132.481 44.6314C132.041 45.8431 130.878 48.0612 130.118 48.5371V48.5371Z" fill="#FEFEFE"/>
</svg>
