<svg width="191" height="115" viewBox="0 0 191 115" fill="none" xmlns="http://www.w3.org/2000/svg">
<path fill-rule="evenodd" clip-rule="evenodd" d="M130.061 27.6974C129.852 31.2051 131.175 34.8852 131.979 38.2532C133.05 42.7444 135.646 54.314 135.952 56.5966L133.988 57.0883L135.908 64.6573L137.802 64.3513C139.091 67.8298 138.179 67.7473 133.999 73.064C131.964 75.6538 129.874 78.2424 127.894 80.8237L115.678 96.298L64.7208 96.264C64.2885 95.1567 64.1586 93.469 63.77 92.1419C62.0748 86.3578 58.9456 83.5676 58.6675 82.5684C58.2073 82.3025 58.3263 82.4494 57.8879 81.9953C57.4666 81.5594 57.6025 81.6784 57.3451 81.1928C56.6396 81.1175 56.3506 80.5408 54.8789 79.408C52.3653 77.4702 48.97 75.8772 45.7387 75.1924C41.4 74.2709 34.0839 74.4348 30.8368 76.681L32.8028 81.3385C36.0608 80.6233 37.1914 79.4796 42.1979 79.9216C47.9562 80.4315 53.1655 83.7158 56.2292 88.2652C57.4726 90.1131 59.1241 93.5977 59.2151 96.2458L55.6851 96.3077C53.7204 92.023 55.2783 92.046 50.2924 87.1469C42.6411 79.6289 25.1588 84.1516 25.0009 98.804C24.9111 107.042 31.2898 113.509 38.9205 114.252C45.162 114.861 50.7526 111.624 53.5455 106.912C54.7416 104.894 54.823 103.366 55.6851 101.552C64.6042 101.82 73.9264 101.572 82.8904 101.572H117.179C120.017 101.572 121.101 101.94 122.697 100.191L140.775 77.1921C141.302 77.9413 142.705 84.182 142.827 85.5078C139.97 86.3055 136.644 90.7141 135.545 93.8236C130.994 106.692 144.855 119.922 158.359 111.884C159.232 111 159.973 110.961 161.798 108.896C167.487 102.456 166.418 92.1614 159.736 86.8956C156.806 84.5851 154.936 84.2549 150.584 83.4426L145.641 62.552L147.47 62.0942L145.7 54.405L143.736 54.7401L138.278 30.4888C136.916 24.4836 136.185 25.5314 132.43 26.4141C130.927 26.7674 130.876 26.7431 130.061 27.6974V27.6974ZM114.408 1.89437C113.803 5.24784 114.738 6.05647 117.487 7.01322C118.572 7.39203 119.657 7.78299 120.716 8.16909C122.529 8.82716 122.927 8.17515 124.533 8.71059C126.333 9.31038 126.222 9.08455 126.67 10.9908L129.316 21.6558C130.882 21.4154 132.275 20.7598 133.821 20.7561L134.401 20.194L132.424 12.2923C138.268 13.538 137.826 9.12219 137.087 7.84247C136.393 6.64047 135.121 6.33208 133.713 5.87799C132.701 5.55382 132.269 5.73107 131.372 5.55016C130.292 5.33162 130.435 4.82047 129.63 4.37245C128.254 3.60753 127.032 4.59949 125.356 3.29064C123.725 2.017 124.393 2.20398 121.979 1.32372C121.007 0.970408 118.816 0.0925783 117.913 0.0173012C115.462 -0.189104 114.914 1.51191 114.408 1.89437V1.89437ZM47.2373 101.64C43.9757 101.303 37.9042 102.891 37.7706 99.0432C37.6212 94.8337 44.0023 96.661 47.2469 96.2251C46.7976 93.5868 42.9277 90.9885 39.2046 91.5579C31.0178 92.8146 30.9291 104.745 38.9618 106.265C41.0103 106.653 42.9884 106.136 44.3582 105.275C45.2932 104.687 47.1766 102.809 47.2373 101.64V101.64ZM144.962 93.7847C139.838 96.6695 143.449 108.669 152.188 106.082C159.473 103.923 158.911 93.9352 152.713 92.0472C153.05 94.4148 156.034 100.911 150.961 101.996C146.29 102.996 145.404 97.3264 144.962 93.7847Z" fill="#FEFEFE"/>
</svg>
