<svg width="59" height="59" viewBox="0 0 59 59" fill="none" xmlns="http://www.w3.org/2000/svg">
<path fill-rule="evenodd" clip-rule="evenodd" d="M58.7103 28.7137C58.7103 39.6233 54.006 47.5913 46.7233 53.0077C45.1748 54.1595 43.0194 55.3479 41.1804 56.2055C40.728 56.4182 40.3453 56.5068 39.9213 56.6946L37.3064 57.5782C32.1816 58.7135 33.1866 58.5835 27.3886 58.5835C23.9728 58.5835 19.2461 57.062 16.3642 55.622C11.0705 52.9734 7.42911 49.5216 4.40076 44.7124C1.46453 40.0556 -7.62939e-06 34.9582 -7.62939e-06 28.8602C-7.62939e-06 23.9128 1.39256 19.7782 3.0591 16.1834L5.01023 12.8875C8.66338 7.40618 15.0118 2.64426 21.2989 1.05892C26.1957 -0.175566 26.3717 0.00990116 31.1753 0.00990116C33.4465 0.00990116 35.4024 0.578117 37.187 0.990399L39.821 1.85159C44.5076 3.93663 46.4977 4.91594 50.4414 8.86039C54.6474 13.0659 58.7103 20.3441 58.7103 28.7137ZM38.0788 45.3078C35.9505 45.7461 35.0646 44.1076 34.102 43.1283C33.4323 42.4502 31.5757 40.5955 30.9095 40.175C30.1394 40.5908 29.1083 41.4614 28.2816 42.0651L23.0291 45.928C22.2933 46.4714 21.0909 47.648 19.8401 47.5228C17.8818 47.3243 17.5512 42.8247 17.1378 40.892C16.585 38.3132 16.0418 35.7533 15.5114 33.2406C14.4272 28.09 13.3322 23.0505 12.2563 17.9082C11.5429 14.4918 11.4709 12.161 15.5752 13.7877C26.6493 18.1763 37.8555 22.3322 48.9248 26.676C56.4473 29.6305 51.9615 30.24 43.9465 32.6558C41.5465 33.3788 42.1134 33.5938 40.513 38.4987C40.0453 39.9328 38.7627 44.6002 38.0788 45.3078ZM40.6442 32.4916C40.6737 33.2299 37.8118 42.1324 37.4221 42.6817C37.0866 42.0485 36.9815 38.983 36.9 38.0143C36.6508 35.0539 36.4937 35.7308 33.8398 33.2937L21.5551 22.1385C20.9303 21.5821 19.272 20.3819 19.0618 19.5195C20.4 19.3198 23.0752 21.3659 24.7099 22.3984C29.3351 25.321 36.4583 29.6257 40.6442 32.4916Z" fill="#E4097F"/>
</svg>
