<svg width="66" height="40" viewBox="0 0 66 40" fill="none" xmlns="http://www.w3.org/2000/svg">
<path d="M6.94353 5H58.9892C60.9 5 62.6371 5.71303 63.8945 6.86129C65.152 8.00954 65.9327 9.59567 65.9327 11.3405V28.9388C65.9327 30.6836 65.152 32.2698 63.8945 33.418C62.6371 34.5663 60.9 35.2793 58.9892 35.2793H6.94353C5.03271 35.2793 3.29568 34.5663 2.03821 33.418C0.780749 32.2698 0 30.6836 0 28.9388V11.3405C0 9.59567 0.780749 8.00954 2.03821 6.86129C3.29568 5.71303 5.03271 5 6.94353 5ZM58.9892 7.35472H6.94353C5.74402 7.35472 4.65166 7.8045 3.86068 8.52679C3.07114 9.24908 2.57864 10.2452 2.57864 11.3405V28.9388C2.57864 30.0341 3.07114 31.0315 3.86068 31.7525C4.65166 32.4748 5.74402 32.9246 6.94353 32.9246H58.9892C60.1887 32.9246 61.2811 32.4748 62.0721 31.7525C62.8616 31.0315 63.3541 30.0341 63.3541 28.9388V11.3405C63.3541 10.2452 62.8616 9.24908 62.0721 8.52679C61.2811 7.8045 60.1887 7.35472 58.9892 7.35472Z" fill="#B2B3B3"/>
<path d="M46.6798 30.6253C46.9189 29.948 47.2057 29.1371 47.5331 28.1991C47.8605 27.2599 48.621 24.7782 49.8133 20.754C51.0041 16.7298 51.6328 14.5484 51.6994 14.2084C51.7414 13.9293 51.7255 13.7229 51.6502 13.5946C51.5749 13.465 51.3923 13.3896 51.1084 13.371C50.8476 13.3499 50.0581 13.3446 48.747 13.3538C47.4345 13.3644 46.6045 13.3803 46.2524 13.4015L47.5403 9.8125L56.9423 9.83102L50.9781 30.6253H46.6798Z" fill="#B2B3B3"/>
<path d="M30.5785 20.9495C30.6219 21.5474 30.764 21.9218 31.0044 22.0726C31.2449 22.2221 31.6838 22.2565 32.3169 22.1771L32.2836 25.3825C31.6288 25.3428 31.1956 25.4129 30.9885 25.5915C30.7798 25.7727 30.6553 26.1418 30.6104 26.7C30.6104 26.9408 30.6437 27.5599 30.7103 28.5574C30.7755 29.5561 30.8305 30.166 30.874 30.3856L26.6743 30.416C26.783 29.8366 26.8437 28.982 26.8539 27.8536C26.8655 26.7265 26.8003 26.0518 26.6584 25.8322C26.5149 25.6126 26.2252 25.4724 25.7891 25.4129C25.482 25.3719 24.5911 25.3533 23.1149 25.3533C21.6386 25.3533 20.6593 25.3719 20.1783 25.4129V22.1467C20.5289 21.3688 21.1418 19.8608 22.0153 17.6238C22.8903 15.3868 23.5466 13.724 23.9841 12.6365C24.4216 11.5478 24.749 10.6033 24.9692 9.80427L30.5785 9.71432C30.5785 10.434 30.5728 12.3455 30.5612 15.4516C30.5511 18.5577 30.5567 20.3899 30.5785 20.9495V20.9495ZM27.0031 21.4879C27.0466 21.1691 27.0901 19.9256 27.1336 17.7574C27.177 15.5905 27.1885 14.3391 27.1668 13.9978C27.1436 13.7187 27.0568 13.5784 26.9033 13.5784C26.7497 13.5784 26.6193 13.7187 26.5107 13.9978C26.3788 14.3391 25.5153 16.8049 23.9189 21.398C23.8754 21.7578 23.9507 22.0078 24.1492 22.1467C24.3448 22.2869 24.8807 22.3372 25.7558 22.2962C26.1281 22.2962 26.4178 22.2512 26.625 22.1626C26.8336 22.0726 26.9582 21.8477 27.0031 21.4879V21.4879ZM19.2598 26.9699L19.228 30.4451H8.99151C8.96978 27.5493 9.04657 25.7674 9.22042 25.098C9.39571 24.4287 9.65362 23.8294 9.99117 23.3002C10.3302 22.7711 10.7358 22.2869 11.2052 21.8477C11.6774 21.4085 12.2178 20.9588 12.8291 20.4997C13.3767 20.0804 13.8258 19.6809 14.175 19.3012C14.5256 18.9215 14.7979 18.5524 14.995 18.1926C15.192 17.8341 15.3223 17.469 15.389 17.0999C15.4542 16.7295 15.4874 16.3353 15.4874 15.916C15.4874 14.9966 15.3889 14.2835 15.1919 13.7742C14.9949 13.2649 14.6675 13.0109 14.2082 13.0109C13.552 13.0109 13.1304 13.4991 12.945 14.478C12.7581 15.4569 12.7089 16.8354 12.7973 18.6133H9.12195C9.16686 16.3353 9.19429 14.978 9.20443 14.5388C9.21602 14.0983 9.27542 13.679 9.38552 13.2795C9.49417 12.8204 9.66948 12.3759 9.90996 11.9473C10.1504 11.5174 10.4678 11.1324 10.8604 10.7938C11.2544 10.4538 11.731 10.1786 12.2887 9.96963C12.8465 9.75929 13.497 9.65479 14.2416 9.65479C15.8149 9.65479 17.0448 10.0993 17.9314 10.9882C18.818 11.8759 19.2598 13.3403 19.2598 15.3762C19.2598 16.2559 19.1671 17.0444 18.9817 17.7428C18.7948 18.4426 18.5442 19.0763 18.2269 19.6451C17.9097 20.2153 17.5373 20.7299 17.1114 21.1889C16.684 21.648 16.2205 22.0872 15.7163 22.5065C14.8645 23.205 14.1967 23.8254 13.7158 24.3638C13.2348 24.9022 12.9827 25.5624 12.961 26.3415C12.961 26.6207 12.9943 26.8059 13.0595 26.8958C13.1261 26.9858 15.1919 27.0096 19.2598 26.9699V26.9699Z" fill="#B2B3B3"/>
<path d="M45.5644 9.77246H40.9276L33.6275 30.5057H38.2643L45.5644 9.77246Z" fill="#B2B3B3"/>
</svg>
