<svg width="191" height="115" viewBox="0 0 191 115" fill="none" xmlns="http://www.w3.org/2000/svg">
<path fill-rule="evenodd" clip-rule="evenodd" d="M130.197 67.2189C137.157 67.2189 142.8 72.8611 142.8 79.8206C142.8 86.78 137.157 92.4222 130.197 92.4222C123.237 92.4222 117.595 86.78 117.595 79.8206C117.595 72.8611 123.237 67.2189 130.197 67.2189ZM130.197 57.9355C142.287 57.9355 152.086 67.7349 152.086 79.8206C152.086 91.9086 142.287 101.707 130.197 101.707C118.11 101.707 108.309 91.9086 108.309 79.8206C108.309 67.7349 118.11 57.9355 130.197 57.9355Z" fill="white"/>
<path fill-rule="evenodd" clip-rule="evenodd" d="M111.995 43.4314C105.94 49.5629 81.5014 49.0821 74.8057 48.1569L73.2392 42.3436L71.1835 35.4217L68.8932 26.4577L68.4172 25.3018C66.7451 18.9737 67.1617 17.2872 62.0896 15.245C54.4407 15.6894 55.0199 20.4792 56.0994 27.5807C56.9312 33.0614 57.8079 38.5882 58.4576 44.0045C54.4856 43.0235 50.3472 40.5503 47.5847 38.2094C39.7354 31.5619 43.7026 23.2365 27.3666 31.4794C23.4553 33.4536 19.822 36.3226 17.5634 39.0022C11.7032 45.9581 9.0293 52.2595 9.02808 64.0428C9.02687 79.5025 7.65961 83.2348 24.1596 83.531C21.975 40.4968 83.2063 40.4033 81.1553 83.5456L101.767 83.5043C99.3821 40.9436 160.876 40.5867 158.834 83.3817C171.84 84.251 173.83 81.2327 173.699 68.8314C182.811 68.8836 182.926 67.5759 182.915 58.9944C182.905 49.8846 181.19 49.6029 171.867 50.1129C162.618 30.2142 146.312 24.9728 124.802 27.8867C121.346 28.9782 121.428 29.3182 120.331 32.8756C119.278 36.2898 118.433 37.7019 116.417 39.738L106.106 25.4366L114.976 18.1019C116.202 17.0869 116.375 15.2705 115.361 14.0454C114.346 12.8192 112.529 12.6468 111.303 13.6606L88.1388 32.8161C86.9135 33.83 86.7411 35.6475 87.755 36.8726C88.769 38.0977 90.5868 38.2701 91.812 37.2563L101.666 29.1069L111.995 43.4314V43.4314Z" fill="white"/>
<path fill-rule="evenodd" clip-rule="evenodd" d="M111.995 43.4314C105.94 49.5629 81.5014 49.0821 74.8057 48.1569L73.2392 42.3436L71.1835 35.4217L68.8932 26.4577L68.4172 25.3018C66.7451 18.9737 67.1617 17.2872 62.0896 15.245C54.4407 15.6894 55.0199 20.4792 56.0994 27.5807C56.9312 33.0614 57.8079 38.5882 58.4576 44.0045C54.4856 43.0235 50.3472 40.5503 47.5847 38.2094C39.7354 31.5619 43.7026 23.2365 27.3666 31.4794C23.4553 33.4536 19.822 36.3226 17.5634 39.0022C11.7032 45.9581 9.0293 52.2595 9.02808 64.0428C9.02687 79.5025 7.65961 83.2348 24.1596 83.531C21.975 40.4968 83.2063 40.4033 81.1553 83.5456L101.767 83.5043C99.3821 40.9436 160.876 40.5867 158.834 83.3817C171.84 84.251 173.83 81.2327 173.699 68.8314C182.811 68.8836 182.926 67.5759 182.915 58.9944C182.905 49.8846 181.19 49.6029 171.867 50.1129C162.618 30.2142 146.312 24.9728 124.802 27.8867C121.346 28.9782 121.428 29.3182 120.331 32.8756C119.278 36.2898 118.433 37.7019 116.417 39.738L106.106 25.4366L114.976 18.1019C116.202 17.0869 116.375 15.2705 115.361 14.0454C114.346 12.8192 112.529 12.6468 111.303 13.6606L88.1388 32.8161C86.9135 33.83 86.7411 35.6475 87.755 36.8726C88.769 38.0977 90.5868 38.2701 91.812 37.2563L101.666 29.1069L111.995 43.4314V43.4314Z" fill="white"/>
<path fill-rule="evenodd" clip-rule="evenodd" d="M52.5636 67.2189C59.524 67.2189 65.1681 72.8611 65.1681 79.8206C65.1681 86.78 59.524 92.4222 52.5636 92.4222C45.6032 92.4222 39.9615 86.78 39.9615 79.8206C39.9615 72.8611 45.6032 67.2189 52.5636 67.2189ZM52.5636 57.9355C64.6532 57.9355 74.4526 67.7349 74.4526 79.8206C74.4526 91.9086 64.6532 101.707 52.5636 101.707C40.4764 101.707 30.6758 91.9086 30.6758 79.8206C30.6758 67.7349 40.4764 57.9355 52.5636 57.9355Z" fill="white"/>
</svg>
