<svg width="191" height="115" viewBox="0 0 191 115" fill="none" xmlns="http://www.w3.org/2000/svg">
<path fill-rule="evenodd" clip-rule="evenodd" d="M60.7456 34.1532C59.473 34.4725 59.5617 35.3928 59.5605 36.7806V63.2357C59.5605 64.4559 59.4184 65.7575 60.3862 66.1812C61.3843 66.6183 62.4165 65.7599 63.0808 65.3762C64.6387 64.4753 66.3509 63.5416 67.8773 62.6007C69.4401 61.6366 71.0757 60.743 72.6725 59.8288L82.2084 54.2983C83.8563 53.3622 85.3814 52.4978 87.0038 51.5228C87.889 50.991 88.1379 49.7866 87.2381 49.0848L82.4598 46.2922C82.0531 46.0628 81.0124 45.3901 80.5789 45.3015C80.2546 45.2359 80.1636 45.1922 79.9645 44.9676C79.5407 44.4868 75.8904 42.475 75.293 42.1435C73.6245 41.2183 72.1212 40.2604 70.505 39.3595C68.9082 38.4683 67.3538 37.531 65.7048 36.5876C64.8754 36.1128 64.1129 35.6539 63.3357 35.218C62.7201 34.872 61.5313 33.9565 60.7456 34.1532ZM106.724 93.4291V99.325H119.909C121.611 99.325 122.993 100.707 122.993 102.409C122.993 104.111 121.611 105.493 119.909 105.493H31.8233C30.1209 105.493 28.7389 104.111 28.7389 102.409C28.7389 100.707 30.1209 99.325 31.8233 99.325H45.0094V93.4291H9.63309C6.97983 93.4291 4.57068 92.3473 2.82694 90.6038C1.08441 88.8481 0 86.4405 0 83.7997V16.6306C0 13.9789 1.08441 11.5688 2.82694 9.82654C4.58282 8.08423 6.99319 7 9.63309 7H137.726C140.379 7 142.788 8.08423 144.53 9.82654C146.273 11.5822 147.357 13.9911 147.357 16.6306V83.7997C147.357 86.4514 146.275 88.8603 144.531 90.6038C142.774 92.3473 140.37 93.4291 137.726 93.4291H106.724ZM6.16865 78.5837H141.188V16.6306C141.188 15.6739 140.802 14.8082 140.181 14.1878C139.541 13.56 138.675 13.1679 137.726 13.1679H9.63309C8.67622 13.1679 7.80922 13.554 7.18871 14.1756C6.56091 14.8155 6.16865 15.6824 6.16865 16.6306V78.5837Z" fill="#FEFEFE"/>
<path d="M184.791 43.4941H166.674C163.47 43.4941 160.873 46.0909 160.873 49.2941V101.943C160.873 105.146 163.47 107.743 166.674 107.743H184.791C187.995 107.743 190.592 105.146 190.592 101.943V49.2941C190.592 46.0909 187.995 43.4941 184.791 43.4941Z" fill="white"/>
<path d="M175.733 93.5032C179.967 93.5032 183.4 90.0709 183.4 85.837C183.4 81.6031 179.967 78.1709 175.733 78.1709C171.498 78.1709 168.065 81.6031 168.065 85.837C168.065 90.0709 171.498 93.5032 175.733 93.5032Z" stroke="#E4097F" stroke-width="4" stroke-miterlimit="22.9256"/>
<path d="M167.967 55.6758C169.388 55.6758 170.541 54.5234 170.541 53.1018C170.541 51.6802 169.388 50.5278 167.967 50.5278C166.545 50.5278 165.392 51.6802 165.392 53.1018C165.392 54.5234 166.545 55.6758 167.967 55.6758Z" fill="#E4097F"/>
<path d="M175.731 55.6758C177.153 55.6758 178.306 54.5234 178.306 53.1018C178.306 51.6802 177.153 50.5278 175.731 50.5278C174.31 50.5278 173.157 51.6802 173.157 53.1018C173.157 54.5234 174.31 55.6758 175.731 55.6758Z" fill="#E4097F"/>
<path d="M167.967 63.6651C169.388 63.6651 170.541 62.5127 170.541 61.0911C170.541 59.6695 169.388 58.5171 167.967 58.5171C166.545 58.5171 165.392 59.6695 165.392 61.0911C165.392 62.5127 166.545 63.6651 167.967 63.6651Z" fill="#E4097F"/>
<path d="M175.731 63.6651C177.153 63.6651 178.306 62.5127 178.306 61.0911C178.306 59.6695 177.153 58.5171 175.731 58.5171C174.31 58.5171 173.157 59.6695 173.157 61.0911C173.157 62.5127 174.31 63.6651 175.731 63.6651Z" fill="#E4097F"/>
<path d="M183.5 55.6758C184.921 55.6758 186.074 54.5234 186.074 53.1018C186.074 51.6802 184.921 50.5278 183.5 50.5278C182.078 50.5278 180.925 51.6802 180.925 53.1018C180.925 54.5234 182.078 55.6758 183.5 55.6758Z" fill="#E4097F"/>
<path d="M183.5 63.6651C184.921 63.6651 186.074 62.5127 186.074 61.0911C186.074 59.6695 184.921 58.5171 183.5 58.5171C182.078 58.5171 180.925 59.6695 180.925 61.0911C180.925 62.5127 182.078 63.6651 183.5 63.6651Z" fill="#E4097F"/>
<path d="M167.967 71.2281C169.388 71.2281 170.541 70.0756 170.541 68.6541C170.541 67.2325 169.388 66.0801 167.967 66.0801C166.545 66.0801 165.392 67.2325 165.392 68.6541C165.392 70.0756 166.545 71.2281 167.967 71.2281Z" fill="#E4097F"/>
<path d="M175.731 71.2281C177.153 71.2281 178.306 70.0756 178.306 68.6541C178.306 67.2325 177.153 66.0801 175.731 66.0801C174.31 66.0801 173.157 67.2325 173.157 68.6541C173.157 70.0756 174.31 71.2281 175.731 71.2281Z" fill="#E4097F"/>
<path d="M183.5 71.2281C184.921 71.2281 186.074 70.0756 186.074 68.6541C186.074 67.2325 184.921 66.0801 183.5 66.0801C182.078 66.0801 180.925 67.2325 180.925 68.6541C180.925 70.0756 182.078 71.2281 183.5 71.2281Z" fill="#E4097F"/>
</svg>
