<svg width="59" height="59" viewBox="0 0 59 59" fill="none" xmlns="http://www.w3.org/2000/svg">
<path d="M29.355 58.7213C13.1426 58.7213 -1.90735e-05 45.5761 -1.90735e-05 29.3606C-1.90735e-05 13.1452 13.1426 0 29.355 0C45.5674 0 58.7102 13.1452 58.7102 29.3606C58.7102 45.5761 45.5674 58.7213 29.355 58.7213Z" fill="#E4097F"/>
<path fill-rule="evenodd" clip-rule="evenodd" d="M40.0891 55.6412L39.1146 55.008C39.1087 55.0033 39.1004 54.9962 39.0933 54.9915L38.8713 54.7729C38.8666 54.7682 38.8584 54.7599 38.8536 54.754L38.817 54.7162C38.8122 54.7115 38.804 54.7032 38.7993 54.6973L38.693 54.5827C38.6422 54.5284 38.6481 54.5355 38.608 54.4847L38.4543 54.3016C38.4496 54.2957 38.4414 54.2874 38.4355 54.2827L38.2194 53.9909C38.2146 53.9838 38.2075 53.9767 38.2028 53.9708L35.9032 51.3388C35.8807 51.3152 35.8476 51.2798 35.8157 51.2443L34.1775 49.49C33.8421 49.1451 33.5114 48.8108 33.124 48.5225L32.7414 48.2461C32.7343 48.2414 32.726 48.2355 32.7189 48.2308L32.622 48.1764C32.4602 48.0949 32.2051 47.9732 32.0173 47.9413C31.9512 47.9295 31.9193 47.9331 31.8532 47.9142C31.4599 47.8067 30.8456 47.8196 30.4523 47.9059C30.2149 47.9579 29.4047 47.9449 29.1118 47.9461C28.1764 47.9461 27.4252 47.8563 26.5004 47.835L24.9567 47.7121C24.8623 47.6968 24.8079 47.6566 24.7181 47.6413C24.4087 47.5846 24.0225 47.62 23.7013 47.5952C23.4201 47.5728 23.6197 47.568 23.4673 47.5208C23.3492 47.483 22.9914 47.4877 22.8249 47.4558C22.6572 47.4239 22.754 47.4121 22.565 47.392C22.4575 47.3802 22.3453 47.3873 22.2366 47.3731C21.952 47.3365 21.3886 47.1794 21.0921 47.1581C20.7567 47.1333 20.3752 46.9632 20.0173 46.9266C19.9158 46.9159 19.8095 46.9112 19.715 46.8805L18.926 46.6454C18.8067 46.5946 18.8162 46.6005 18.6626 46.5828L18.463 46.5485C18.4547 46.545 18.4453 46.5403 18.437 46.5379L18.1276 46.4139C17.9953 46.3572 18.0119 46.3808 17.8548 46.3501C17.7757 46.3347 17.7969 46.3395 17.7437 46.3158L17.6528 46.2674C17.6446 46.2638 17.6339 46.2603 17.6245 46.2568C17.6162 46.2532 17.6055 46.2509 17.5961 46.2473L17.491 46.2001C17.4119 46.1599 17.511 46.1859 17.3693 46.1469L15.0637 45.1369C15.0567 45.1321 15.0472 45.1274 15.0389 45.1227L12.7405 43.3731C12.7346 43.3684 12.7264 43.3613 12.7217 43.3554L11.5098 41.6898C11.5051 41.6838 11.4992 41.6744 11.4945 41.6685L11.3185 41.372C11.2712 41.2928 11.2453 41.2279 11.2028 41.1582L10.9819 40.7128C10.8709 40.4919 10.7256 40.2544 10.6689 40.0264C10.637 39.8965 10.6181 39.9272 10.5697 39.7985L10.1421 38.6868C10.1055 38.5982 10.1244 38.6348 10.1031 38.5462L9.87519 37.7796C9.83976 37.5398 9.83624 37.6685 9.78545 37.4996C9.75593 37.4027 9.76533 37.3082 9.73816 37.2031C9.66966 36.9314 9.567 36.7246 9.53747 36.4163C9.51266 36.1576 9.44641 36.2427 9.42397 35.8646C9.40625 35.5681 9.32595 35.5823 9.31059 35.2787C9.29523 34.9952 9.31302 34.9349 9.22916 34.6999C9.16656 34.5262 9.18666 34.2462 9.15949 34.0619C9.11934 33.7796 9.08855 33.7879 9.0791 33.4736C9.07319 33.2586 9.04376 33.0555 9.00124 32.8676L8.85707 30.31C8.8488 29.5292 8.81689 28.733 8.87241 27.9533C8.88304 27.8139 8.91259 27.7678 8.92558 27.6521C8.97282 27.2551 8.95872 26.785 8.96699 26.3703C8.97171 26.1766 9.07207 25.5847 9.08152 25.1217C9.08625 24.8441 9.10395 24.7236 9.15592 24.5204C9.20789 24.3125 9.16415 24.0679 9.2114 23.8754C9.27636 23.606 9.29292 23.6615 9.30355 23.3178C9.31419 22.9823 9.38031 22.9634 9.40748 22.7259C9.44055 22.4342 9.41102 22.4223 9.49606 22.1459C9.56811 21.9132 9.61769 21.28 9.71336 21.0343C9.76179 20.9114 9.74179 20.8724 9.76423 20.7437C9.79494 20.557 9.81851 20.6504 9.85512 20.4791C9.87874 20.3751 9.86931 20.2983 9.90356 20.1944L10.0548 19.6758C10.1008 19.5683 10.0973 19.4761 10.1351 19.3816C10.2024 19.2139 10.1705 19.3993 10.2248 19.1583C10.2756 18.9268 10.2921 18.9752 10.3524 18.8016L10.6819 18.0243C10.6854 18.016 10.689 18.0054 10.6925 17.9971C10.6972 17.9888 10.702 17.9806 10.7067 17.9723L10.7705 17.8553C10.774 17.8471 10.7775 17.8376 10.7811 17.8282L11.0894 17.2151C11.0929 17.208 11.0989 17.1985 11.1024 17.1926C11.1331 17.1406 11.1343 17.13 11.1685 17.0733L11.3752 16.7343C11.3799 16.7272 11.3858 16.7189 11.3906 16.7106L12.5811 15.1702L13.9358 13.9475C13.9417 13.9416 13.9488 13.9345 13.9559 13.9298L14.139 13.788C14.1863 13.7585 14.2111 13.755 14.2619 13.7254C14.3127 13.6971 14.3917 13.6179 14.4484 13.5789C14.5228 13.527 14.5654 13.5222 14.6611 13.4608L15.711 12.8607C15.7181 12.8572 15.7288 12.8524 15.7358 12.8489L16.1799 12.628C16.4882 12.4803 17.3115 12.1212 17.6576 12.0326C17.843 11.9853 17.7567 11.9865 17.8772 11.9404L18.4051 11.7951C18.5657 11.7644 18.5221 11.7491 18.6685 11.6959C18.8859 11.6179 18.9543 11.6227 19.2071 11.5636C19.3417 11.5317 19.2851 11.5093 19.4445 11.475C19.5757 11.4478 19.6359 11.4703 19.7658 11.4207C20.0256 11.3202 20.5323 11.247 20.824 11.1572L21.3485 11.0261C21.4595 11.0155 21.5481 11.0202 21.6449 10.9907C21.7701 10.954 21.7453 10.934 21.9355 10.9151C22.3004 10.8808 22.3465 10.8182 22.8118 10.7886L23.0799 10.7355C23.3126 10.6552 23.5642 10.7095 23.8004 10.6433C23.9457 10.6032 23.765 10.6363 23.935 10.5985C24.3154 10.5122 24.73 10.576 25.1824 10.4697C25.5379 10.3858 26.0386 10.4756 26.3752 10.361C26.6032 10.283 27.1311 10.3232 27.385 10.3149C27.6272 10.3067 27.7831 10.2571 28.0075 10.2476C29.0977 10.2015 30.998 10.1425 31.9571 10.2783C32.4756 10.3504 33.0331 10.3303 33.5669 10.3716C33.8079 10.3905 33.6768 10.4059 33.8056 10.4378C33.9733 10.4803 34.0925 10.426 34.4268 10.5193C34.6985 10.5949 35.0657 10.5217 35.3586 10.5949C35.4898 10.628 35.4094 10.6433 35.6149 10.6646L37.0606 10.9091C37.1965 10.9198 37.2402 10.9198 37.35 10.9623C37.3583 10.9647 37.3666 10.9706 37.3748 10.9729L37.8993 11.1052C37.9914 11.136 38.093 11.1265 38.1898 11.1537C38.3788 11.2068 38.152 11.1962 38.4213 11.2411C38.7957 11.3049 39.1524 11.4679 39.4643 11.5577C39.7489 11.6404 40.5001 11.8542 40.7493 11.9747L40.7953 12.0007C40.8036 12.0042 40.813 12.009 40.8201 12.0137C40.8284 12.016 40.8378 12.0208 40.8461 12.0243L41.6646 12.374C41.739 12.4023 41.7236 12.3976 41.7909 12.4319L42 12.5252C42.0071 12.5299 42.0166 12.5358 42.0237 12.5394L42.3686 12.7083C42.3757 12.713 42.3863 12.7166 42.3934 12.7213L42.7134 12.8784C42.7205 12.882 42.7287 12.889 42.7358 12.8926L43.1505 13.1076C43.1599 13.1135 43.1835 13.1312 43.1929 13.1371L43.5048 13.3356C43.5119 13.3403 43.5201 13.3474 43.526 13.3509L43.6902 13.4443C43.6961 13.449 43.7056 13.4549 43.7126 13.4584L43.7977 13.5211C43.8036 13.5258 43.8131 13.5317 43.819 13.5364L46.5047 15.8589C46.5095 15.8636 46.5166 15.8719 46.5213 15.8778C46.5461 15.9062 46.5426 15.9014 46.5709 15.9369C46.767 16.1684 47.0197 16.446 47.1591 16.7165L47.2477 16.8453C47.3988 17.0343 47.5052 17.2812 47.6434 17.4809L48.1808 18.5641C48.2564 18.739 48.4843 19.2528 48.5115 19.4123C48.5599 19.6864 48.6957 19.9168 48.7394 20.1861C48.7902 20.498 48.9272 20.6728 48.9638 20.9953C48.9969 21.2776 49.0666 21.3084 49.0878 21.5493L49.1917 22.1353C49.2071 22.277 49.2591 22.2617 49.3099 22.6929C49.3382 22.9291 49.3996 22.9339 49.4174 23.2445C49.4339 23.5552 49.506 23.4808 49.519 23.7939C49.5461 24.453 49.6157 24.596 49.6453 25.0437C49.6512 25.1347 49.6548 25.2445 49.6666 25.3414C49.6831 25.4702 49.7114 25.5127 49.728 25.6119C49.7587 25.7915 49.7504 26.101 49.7575 26.2959C49.7646 26.4837 49.7647 26.7365 49.7836 26.9256C49.8131 27.2067 49.8461 27.1618 49.8532 27.5493C49.8686 28.4471 49.8732 29.3378 49.8709 30.2356C49.8697 31.1925 49.8036 31.9485 49.7599 32.8759C49.7387 33.3283 49.6595 33.6107 49.6394 34.0619C49.624 34.4317 49.5946 34.3573 49.5485 34.6195C49.5013 34.883 49.5496 34.9869 49.4634 35.2397C49.4232 35.359 49.4327 35.3945 49.4232 35.5351L49.3725 35.7772C49.3075 35.9379 49.2946 36.2309 49.2426 36.3773C49.1741 36.564 49.1717 36.8794 49.1103 37.0637C48.965 37.4901 48.9756 37.7193 48.7984 38.1103L48.5126 38.9952C48.4618 39.1806 48.4748 39.0637 48.4193 39.235L47.9315 40.3726C47.928 40.3797 47.9233 40.3903 47.9198 40.3974L47.6445 40.9325C47.641 40.9396 47.6351 40.9491 47.6304 40.9561C47.6268 40.9644 47.6221 40.9727 47.6173 40.981L47.1214 41.7748C47.1143 41.7831 47.0942 41.8055 47.0883 41.8138C47.0292 41.8977 47.0729 41.8362 47.0292 41.9343L45.9662 43.2278C45.9119 43.2905 45.8953 43.3342 45.8209 43.4121L43.2414 45.2916C43.2343 45.2952 43.2248 45.2999 43.2177 45.3046L43.1658 45.327C43.0642 45.3755 43.1256 45.3424 43.0453 45.3897L42.1134 45.8197C42.0095 45.8657 42.0981 45.8303 42.0248 45.8681C42.0178 45.8716 42.0095 45.8775 42.0012 45.8811L40.9677 46.3643C40.7906 46.4434 40.2036 46.7045 40.1339 46.8545C40.0595 47.014 40.102 49.9319 40.102 50.2544C40.0996 52.0275 40.1469 53.8787 40.0891 55.6412ZM38.9729 17.4301L39.8079 17.6935C39.8941 17.7325 39.9072 17.7183 39.9863 17.7478C40.1764 17.8164 39.9473 17.7218 40.0571 17.7833L40.8473 18.2097C40.878 18.2286 40.8661 18.2227 40.9098 18.2558L41.8547 19.0721C41.8606 19.078 41.8678 19.0851 41.8725 19.091L42.0532 19.2836C42.0591 19.2895 42.0661 19.2977 42.0709 19.3036L42.6059 20.1955C42.6674 20.3905 42.7595 20.4921 42.8068 20.6882C42.8741 20.9693 42.9272 21.1134 42.939 21.4407C42.9497 21.7431 42.9543 22.0207 42.9425 22.3243C42.9165 23.0012 42.8823 22.7342 42.8268 23.0957C42.7926 23.319 42.7241 23.5989 42.6355 23.7785L42.502 24.0821C42.4796 24.1459 42.4796 24.1884 42.4524 24.2569L42.3284 24.5806C42.2765 24.7082 42.3839 24.4589 42.2906 24.655L42.0449 25.1736C42.0154 25.2481 42.0225 25.2705 41.9894 25.3461L41.2973 26.785C41.2937 26.7921 41.2878 26.8015 41.2842 26.8086C41.2795 26.8157 41.2749 26.8251 41.2702 26.8322L40.8839 27.5847C40.8449 27.6686 40.8414 27.6757 40.8072 27.7277C40.806 27.7289 40.7799 27.7667 40.7622 27.7938L40.4481 28.3679C40.4328 28.3987 40.4316 28.4128 40.415 28.4447L39.7122 29.6178C39.7087 29.6249 39.7028 29.6343 39.6981 29.6414C39.6933 29.6485 39.6875 29.6568 39.6816 29.6639L39.1642 30.4282C39.1595 30.4341 39.1524 30.4424 39.1476 30.4494L38.8584 30.8984C38.7922 31.0295 38.8595 30.9255 38.7721 31.033C38.5595 31.2965 38.3953 31.606 38.1721 31.8611C38.1461 31.8907 38.1343 31.9037 38.1189 31.9202L38.0138 32.0371C37.9323 32.1387 38.0031 32.0442 37.9323 32.1754C37.8543 32.3183 37.7386 32.4104 37.6394 32.5439L37.3512 32.9231C37.3382 32.9397 37.3252 32.9562 37.3004 32.9822L36.8127 33.5599C36.8067 33.5658 36.7996 33.5741 36.7949 33.5788L36.2397 34.2309C36.2232 34.2498 36.1984 34.2758 36.1854 34.2911L36.1347 34.3525C36.065 34.4293 36.0993 34.388 36.0249 34.4577L34.6323 35.8635C34.6276 35.8694 34.6193 35.8765 34.6134 35.8824C34.6087 35.8883 34.6004 35.8954 34.5957 35.9013L32.354 37.8894C32.3209 37.9142 32.2583 37.9698 32.23 37.9922L31.7127 38.3915C31.5887 38.4588 31.6748 38.3915 31.5732 38.473C31.5673 38.4777 31.5602 38.4848 31.5543 38.4895L31.3382 38.6833C31.2886 38.7234 31.3335 38.6868 31.2768 38.7294L31.0771 38.864C31.0169 38.9018 31.0678 38.8664 31.0099 38.9101C31.0087 38.9113 30.9555 38.9526 30.9496 38.9585C30.9118 38.9881 30.8575 39.0294 30.8256 39.0507L30.4476 39.3318C30.3697 39.385 30.3803 39.3685 30.3083 39.4122C30.2599 39.4393 30.2728 39.4334 30.2398 39.457C30.189 39.4925 30.2173 39.4783 30.176 39.5043C30.1346 39.5303 30.0804 39.5492 30.0296 39.5787L29.5099 39.9426C29.504 39.9473 29.4946 39.9532 29.4887 39.9579L29.237 40.1139C29.2311 40.1186 29.2217 40.1245 29.2158 40.1292L27.7713 40.9987C27.756 41.0093 27.7099 41.0377 27.7028 41.0424C27.652 41.0743 27.6224 41.0873 27.5634 41.1251C27.5563 41.1286 27.5469 41.1345 27.5398 41.1393L26.4532 41.7382C26.4461 41.7417 26.4366 41.7465 26.4296 41.7512L25.6796 42.1091C25.5863 42.1587 25.6216 42.1327 25.5212 42.1741L25.4279 42.2237C25.422 42.2284 25.4138 42.2343 25.4067 42.2391L24.1039 42.8545C24.0968 42.8581 24.0875 42.864 24.0804 42.8675C24.0733 42.8711 24.065 42.877 24.0579 42.8817L23.5453 43.1003C23.3918 43.1652 23.2276 43.2456 23.0598 43.2727C22.6476 43.3377 22.6654 43.3944 22.3063 43.4133C21.4228 43.4617 21.6779 43.3613 21.313 43.2952L20.3446 42.942C20.2442 42.8959 20.2736 42.9101 20.1957 42.8664L18.7902 41.8504C18.593 41.6791 18.4938 41.5185 18.313 41.3318C18.176 41.1901 18.0426 41.0589 17.9434 40.8935L17.4757 40.1446C17.3481 39.9615 17.0705 39.1688 17.0587 38.9231C17.0481 38.6998 17.0468 38.4624 17.1248 38.271L17.3516 37.7193C17.3551 37.7134 17.3622 37.7051 17.3669 37.6992L18.2386 36.8014C18.2717 36.7743 18.2693 36.7754 18.2989 36.7518L19.2485 36.0076C19.2544 36.0017 19.2626 35.9946 19.2697 35.9899L19.3098 35.9568C19.3299 35.9391 19.337 35.9332 19.3689 35.9072L19.676 35.7016C19.6808 35.6969 19.689 35.6898 19.6937 35.6839L19.7917 35.5953C19.976 35.4335 20.5535 35.0011 20.772 34.8877C20.9008 34.8203 20.8087 34.89 20.9126 34.8074L22.0926 33.9958C22.1564 33.9627 22.1906 33.9438 22.2366 33.9178L22.7055 33.691C22.8024 33.639 22.6571 33.6745 22.8603 33.6331C22.9016 33.6248 22.911 33.6296 22.9606 33.6154C23.0976 33.5776 23.0492 33.5481 23.191 33.5268C23.4307 33.489 23.8264 33.4937 24.0721 33.5079C24.3945 33.5256 24.6649 33.6308 24.926 33.7666L25.6772 34.4104C25.8744 34.6231 26.0197 34.9042 26.2075 35.1299C26.2512 35.1818 26.25 35.1877 26.3056 35.248L26.7862 35.6544C26.8039 35.665 26.8312 35.6804 26.856 35.6969C27.1418 35.8835 27.5445 35.9249 27.9001 35.8942C28.141 35.8741 28.7079 35.6532 28.9536 35.528L29.1745 35.4181C29.2607 35.3756 29.2276 35.3909 29.3316 35.3496L30.6295 34.6219C30.6366 34.6183 30.6461 34.6124 30.6532 34.6077C30.6602 34.6042 30.6686 34.5971 30.6756 34.5935L31.3972 34.0997C31.4669 34.0466 31.4693 34.0359 31.5201 34.0029C31.5685 33.9698 31.6111 33.9544 31.6559 33.9214L31.9666 33.6414C31.9713 33.6355 31.9796 33.6284 31.9855 33.6225L32.3716 33.2752C32.4543 33.1984 32.5347 33.1807 32.628 33.0897C32.7379 32.9834 32.7249 32.9515 32.8406 32.857L33.2658 32.4057C33.3036 32.3537 33.3142 32.3325 33.3602 32.2699L33.9036 31.6048C33.9485 31.5504 33.9143 31.5953 33.9521 31.5422L34.5733 30.5853C34.6973 30.3845 34.5296 30.6727 34.6028 30.5357L34.7185 30.3183C34.7681 30.2392 34.7505 30.2522 34.7894 30.1718L35.1945 29.3674C35.1992 29.3591 35.2027 29.3496 35.2063 29.3414C35.2216 29.3059 35.2205 29.2977 35.2394 29.2587L35.2784 29.189C35.341 29.0708 35.3929 28.7353 35.4862 28.5215C35.5323 28.4164 35.4922 28.5392 35.5182 28.4483C35.5701 28.2758 35.5618 27.7808 35.5193 27.6119C35.4697 27.417 35.3858 27.124 35.2937 26.961L35.1059 26.7035C34.9831 26.4719 34.6737 26.2782 34.4611 26.0998L33.9733 25.7419C33.9721 25.7407 33.9178 25.6911 33.9142 25.6887L33.8764 25.6521C33.8717 25.6474 33.8635 25.6391 33.8587 25.6344C33.7973 25.58 33.8539 25.6249 33.7984 25.5847L33.4677 25.2575C33.463 25.2516 33.456 25.2433 33.4512 25.2374L33.2351 24.8972C33.0709 24.5511 33.0331 24.3042 33.0532 23.8671L33.3922 22.8842L33.7783 22.1684C33.8209 22.0998 33.8138 22.1057 33.8563 22.0254L34.5449 20.9469C34.5733 20.9091 34.5756 20.9091 34.5934 20.8854L34.8213 20.5629C34.8272 20.5559 34.8331 20.5476 34.839 20.5405L35.015 20.2806C35.0422 20.2463 35.0775 20.2074 35.1177 20.1625L35.3315 19.86C35.3363 19.8541 35.3445 19.8459 35.3492 19.84C35.3504 19.84 35.3941 19.7892 35.4012 19.7809C35.4414 19.736 35.4614 19.7112 35.5051 19.6628L35.7968 19.3296C35.8027 19.3237 35.8098 19.3155 35.8157 19.3107C35.9787 19.1241 35.8666 19.2068 36.2162 18.8323L37.2166 17.8435C37.2225 17.84 37.2307 17.8329 37.2366 17.8282L37.415 17.71C37.4221 17.7053 37.4315 17.6994 37.4386 17.6959C37.7929 17.475 38.6304 17.2505 38.9729 17.4301ZM17.2807 29.6473C17.2819 29.137 17.2689 28.5806 17.3587 28.0833C17.4024 27.8399 17.3504 27.5552 17.4106 27.313C17.4567 27.1323 17.478 27.2445 17.4957 26.9988C17.5099 26.8062 17.4886 26.8074 17.5548 26.6574C17.628 26.4896 17.5889 26.355 17.6669 26.1825C17.7815 25.925 17.8902 25.3556 18.0142 25.0969C18.0177 25.0886 18.0236 25.0803 18.026 25.0732C18.0307 25.065 18.0354 25.0567 18.039 25.0484L18.3816 24.2534C18.4087 24.1955 18.4098 24.1742 18.4382 24.1211L18.5635 23.8766C18.7607 23.5139 18.7512 23.4324 19.0064 23.078C19.0784 22.9787 19.0288 23.0449 19.0866 22.935C19.0914 22.9268 19.095 22.9173 19.0997 22.9102L19.1279 22.863C19.2248 22.7 19.0571 22.9811 19.1575 22.8157L19.6465 22.0963C19.6938 22.0396 19.7056 22.0231 19.7446 21.964C19.7753 21.9191 19.7882 21.8978 19.8177 21.8577L20.1438 21.482C20.1863 21.4324 20.1591 21.469 20.1922 21.4206L21.2174 20.3137C21.241 20.2912 21.2539 20.2782 21.274 20.2593C21.2905 20.2428 21.3071 20.2274 21.3307 20.205L22.0252 19.6179C22.0299 19.6132 22.0382 19.6061 22.0441 19.6013L22.7575 19.0945C22.7634 19.0898 22.7705 19.0816 22.7764 19.0768L24.8434 17.9463C25.0205 17.9026 25.0182 17.879 25.1587 17.8164L25.4481 17.7041C25.5001 17.6852 25.5378 17.6545 25.5969 17.6368C25.6571 17.6179 25.696 17.6191 25.7527 17.6037C26.0338 17.5293 26.0469 17.4761 26.5607 17.3757C26.7473 17.3391 26.6634 17.3107 26.8677 17.2824C27.0012 17.2635 27.0898 17.2729 27.2209 17.2328C27.5209 17.1383 27.9886 17.169 28.2886 17.0851C28.5733 17.006 29.5713 17.0095 29.8135 17.1217C29.8678 17.1477 29.8772 17.1442 29.9433 17.1843C30.0922 17.2753 30.1984 17.3296 30.2208 17.5364C30.2397 17.7089 30.2764 17.9841 30.1843 18.1389C30.1701 18.1637 30.1572 18.1755 30.1335 18.1979C29.8501 18.4708 29.3953 18.3609 29.0445 18.4306C28.9323 18.4531 28.8957 18.498 28.7422 18.5098C28.213 18.5535 28.3276 18.583 28.017 18.6208L27.5257 18.7201C27.4595 18.7378 27.4005 18.7378 27.3331 18.7484C27.0887 18.7862 27.2445 18.8004 27.0343 18.8453C26.8784 18.8784 26.8371 18.8488 26.6989 18.9138C26.6304 18.9469 26.7331 18.9209 26.5702 18.9646L24.3426 19.7986C24.3355 19.8033 24.3271 19.8092 24.3201 19.8128L21.8079 21.6049C21.802 21.6096 21.7949 21.6179 21.7901 21.6226L20.4165 23.4206C20.3764 23.495 20.4012 23.4489 20.3776 23.4867L19.9323 24.368C19.9276 24.3774 19.9134 24.4046 19.9087 24.4164C19.9051 24.4235 19.9005 24.433 19.8969 24.4412L19.3808 25.8411C19.3323 25.9663 19.3712 25.8057 19.3252 25.9734L19.2165 26.3656C19.096 26.6645 19.1138 26.9315 19.0477 27.1701L18.6378 29.9923C18.6319 30.0336 18.6225 30.1092 18.6095 30.147C18.5292 30.388 18.2456 30.544 18.0012 30.5499C17.8405 30.5522 17.7603 30.5191 17.674 30.4802C17.5111 30.4093 17.5571 30.4506 17.4685 30.3632C17.4614 30.3561 17.4402 30.3337 17.4343 30.3254C17.3752 30.2451 17.4154 30.3124 17.3799 30.199C17.3173 30.0053 17.2807 29.8753 17.2807 29.6473ZM28.8485 20.153L29.1024 20.3113C29.3599 20.5748 29.3598 21.0934 29.1331 21.3497L28.6489 21.5635C28.5544 21.5895 28.4753 21.5753 28.3772 21.5883C28.1882 21.6155 28.2177 21.6663 27.9355 21.6876C27.7465 21.7005 27.665 21.7691 27.4902 21.7951C27.1524 21.8459 26.8985 21.9805 26.576 22.0337L26.1508 22.1636C26.1283 22.1707 26.0953 22.1813 26.0705 22.1908C26.0634 22.1943 26.0539 22.1991 26.0468 22.2026L25.2449 22.5393C25.2354 22.544 25.2272 22.5499 25.2189 22.5535L23.8701 23.4489C23.8642 23.4536 23.8559 23.4607 23.85 23.4666L23.3564 24.0384C23.3505 24.0455 23.3445 24.0538 23.3398 24.0608L23.1804 24.2593C23.1626 24.2888 23.1497 24.3266 23.1308 24.3621L22.5804 25.3969C22.5768 25.4052 22.5709 25.4146 22.5673 25.4217C22.5638 25.4288 22.5579 25.4383 22.5544 25.4454C22.4977 25.5517 22.5544 25.3863 22.5071 25.5387L22.4752 25.6993C22.4716 25.7088 22.4681 25.7182 22.4646 25.7265L22.3678 25.9994C22.3146 26.2286 22.3417 26.0124 22.2827 26.199L22.1622 26.6302C22.1103 26.9622 22.0854 26.8759 22.0512 27.0697C22.0216 27.2386 22.0524 27.4382 22.0051 27.5942C21.9248 27.8588 21.9248 27.7584 21.913 28.1021C21.9059 28.329 21.8338 28.9102 21.7417 29.046C21.5208 29.3721 21.059 29.3993 20.7425 29.1842C20.563 29.0626 20.4862 28.8334 20.4803 28.6196C20.4697 28.2498 20.4697 27.8411 20.4851 27.4725L20.6433 26.5428C20.6988 26.3609 20.6657 26.2557 20.733 26.0797L21.5645 24.2274C21.5905 24.1754 21.5882 24.1683 21.613 24.1282C21.6401 24.0821 21.6249 24.114 21.6591 24.0644L22.8745 22.5606L24.6047 21.2717C24.613 21.2682 24.6236 21.2646 24.6307 21.2611C24.6874 21.2339 24.6886 21.2387 24.7323 21.215L25.4303 20.8488C25.4363 20.8453 25.4445 20.8394 25.4504 20.8358L25.9229 20.6456C26.1614 20.5393 26.4024 20.4968 26.6421 20.4436C26.7732 20.4153 26.7154 20.3987 26.8465 20.3645L28.0854 20.1896C28.2756 20.1282 28.6654 20.0337 28.8485 20.153ZM27.8291 23.4111C28.1268 23.4631 28.2579 23.6568 28.35 23.9274C28.3996 24.0703 28.3772 24.2274 28.324 24.3337C28.1965 24.5865 27.9945 24.6007 27.7594 24.6869L27.0769 24.8689C26.8253 24.9173 26.6055 25 26.3811 25.1051L26.2146 25.1985C26.2087 25.2044 26.2004 25.2114 26.1945 25.2162L26.0917 25.3012C26.0858 25.306 26.0776 25.313 26.0716 25.3178C26.0657 25.3225 26.0575 25.3284 26.0516 25.3331L26.0103 25.365C25.8567 25.4843 25.8366 25.5021 25.7067 25.6509L25.037 26.8169C24.9614 26.9941 25.0111 27.1453 24.9461 27.3213C24.8965 27.4548 24.9036 27.7182 24.8599 27.8682L24.7772 27.997C24.7724 28.0029 24.7654 28.0112 24.7595 28.0183L24.6732 28.1187C24.4878 28.3077 24.3284 28.3325 24.0319 28.2959C23.8406 28.2723 23.9174 28.2923 23.8194 28.2073C23.8111 28.2002 23.7886 28.1789 23.7815 28.1719L23.6174 27.9261C23.6139 27.9179 23.6102 27.9072 23.6067 27.899C23.4803 27.5883 23.5146 27.3579 23.5252 26.9964C23.5347 26.6869 23.6126 26.4613 23.7201 26.2073L23.9267 25.7478C23.9504 25.7076 23.9646 25.6733 23.9871 25.6296L24.0272 25.5564C24.0319 25.5481 24.0367 25.5387 24.0414 25.5304L24.2103 25.2563C24.2244 25.2386 24.2599 25.1914 24.2717 25.1736C24.2977 25.1347 24.3059 25.1181 24.3284 25.0839L24.7772 24.5783C24.7819 24.5735 24.7902 24.5653 24.7949 24.5605C24.8008 24.5546 24.8079 24.5475 24.8138 24.5416L25.5591 23.9179C25.5662 23.9132 25.5745 23.9073 25.5816 23.9025L26.2666 23.5576C26.7745 23.3509 27.2291 23.3072 27.8291 23.4111Z" fill="#FEFEFE"/>
</svg>
