<svg width="48" height="48" viewBox="0 0 48 48" fill="none" xmlns="http://www.w3.org/2000/svg">
<g filter="url(#filter0_i_363_62)">
<path fill-rule="evenodd" clip-rule="evenodd" d="M23.5484 0C36.5541 0 47.0968 10.5411 47.0968 23.5447C47.0968 36.5484 36.5541 47.0894 23.5484 47.0894C10.5427 47.0894 0 36.5484 0 23.5447C0 10.5411 10.5427 0 23.5484 0V0ZM16.2931 15.3224C16.2931 15.4985 16.6218 15.4473 16.7422 15.4949C16.884 15.5497 17.1257 15.6188 17.2045 15.6695C17.2506 15.6997 17.287 15.7084 17.3443 15.7315C17.4206 15.7632 17.4171 15.7775 17.4801 15.8139C17.5395 15.8492 17.5517 15.8528 17.6024 15.8927C17.9194 16.14 17.8825 16.1134 18.1022 16.4498C18.2394 16.6597 18.3193 16.9786 18.3787 17.23C18.4442 17.5126 18.4407 17.6872 18.4832 17.9642L18.5246 18.3415C18.5282 18.4193 18.5431 18.4444 18.5415 18.5427C18.5405 18.6958 18.5584 18.7864 18.5584 18.9456C18.5574 19.2308 18.5753 19.4842 18.5753 19.7843V21.1092C18.5753 21.2255 18.561 21.2838 18.5569 21.3775C18.5543 21.4707 18.5605 21.569 18.5595 21.6637C18.5559 21.7461 18.5354 21.8578 18.5267 21.933C18.5169 22.0385 18.5195 22.0958 18.5036 22.1951C18.4913 22.2632 18.4662 22.3518 18.4586 22.4353C18.4161 22.9713 18.37 22.9426 18.3372 23.1863C18.2998 23.4654 18.2645 23.4239 18.199 23.6184C18.1626 23.7229 18.0689 23.9179 18.0049 24.0116C17.9271 24.1243 17.8083 24.2261 17.6833 24.2773C17.392 24.3951 17.2342 24.3439 16.9541 24.2226C16.8912 24.1944 16.8523 24.1463 16.7954 24.112C16.6597 24.0321 16.5358 23.9215 16.4134 23.8242C16.3832 23.8002 16.3663 23.7925 16.3407 23.7623C16.3151 23.7306 16.3151 23.7224 16.2813 23.687C16.1359 23.5381 15.9561 23.3548 15.8409 23.1884C15.7134 23.0066 15.5486 22.8474 15.4318 22.6569C15.3228 22.4772 15.1343 22.2699 15.0411 22.0927C14.9233 21.8741 14.7231 21.6437 14.6212 21.439L13.6104 19.7479C13.5751 19.6568 13.55 19.6373 13.5085 19.5662C13.4768 19.5114 13.4563 19.4387 13.4189 19.3864L13.3196 19.218C13.2894 19.1366 13.254 19.1223 13.2202 19.0496C13.19 18.9851 13.1813 18.9211 13.1404 18.8617L13.0472 18.6871C12.9903 18.5437 12.7184 18.0394 12.6882 17.9545C12.6104 17.7312 12.4696 17.5142 12.4312 17.4087C12.3789 17.2689 12.3108 17.1819 12.2627 17.0411L12.106 16.6433C12.0707 16.5716 12.0491 16.5404 12.022 16.459C11.9734 16.3136 11.9298 16.2721 11.896 16.1825C11.8853 16.1523 11.8766 16.1072 11.8669 16.077C11.8377 15.9823 11.8014 15.9787 11.7747 15.9025C11.7056 15.6961 11.725 15.7786 11.6462 15.627L11.5161 15.4207C11.5038 15.4048 11.4992 15.3966 11.488 15.3818C11.4127 15.2799 11.3011 15.1852 11.1946 15.1222C11.1459 15.093 11.0758 15.0495 11.0245 15.0229C10.9068 14.9625 10.7394 14.9379 10.6206 14.8918C10.4521 14.8253 10.323 14.8713 10.1208 14.8544C9.95228 14.8411 9.77514 14.8386 9.58209 14.8386C9.07977 14.8386 5.74628 14.8181 5.54145 14.8411C5.49178 14.8473 5.47589 14.8596 5.40574 14.8555C5.33047 14.8529 5.34535 14.8411 5.27007 14.837L4.84148 14.8785C4.77849 14.8908 4.40724 14.9707 4.35347 15.0121C4.19576 15.1335 4.15427 15.1212 4.03189 15.3116C3.8839 15.5384 4.00274 15.8477 4.06214 16.0796C4.07904 16.1451 4.09131 16.2117 4.1205 16.2726L4.53934 17.1788C4.58543 17.2479 4.588 17.2833 4.6136 17.357C4.64279 17.4394 4.67046 17.4589 4.70681 17.5331C4.74214 17.6073 4.74212 17.6509 4.78462 17.7225C4.82456 17.7891 4.84504 17.8121 4.87218 17.9043C4.90034 18.0016 4.90754 17.9929 4.95619 18.0717C4.99613 18.1347 4.99969 18.1976 5.034 18.2621L5.21477 18.619C5.24754 18.6748 5.25726 18.7393 5.28748 18.7972C5.32383 18.8663 5.35402 18.8868 5.38219 18.9697L5.89684 20.0326C5.92244 20.1478 5.93064 20.1165 5.98645 20.1964C6.02895 20.2568 6.03151 20.3177 6.06531 20.3858C6.09091 20.4345 6.0919 20.4232 6.12007 20.4647C6.18305 20.5578 6.16975 20.5932 6.26448 20.7232L6.94041 22.0103C6.96447 22.0538 6.96087 22.0625 6.98186 22.1035L7.49032 23.0363C7.50977 23.0691 7.52309 23.0824 7.54357 23.1162C7.58249 23.1781 7.59327 23.2385 7.62963 23.2995C7.66701 23.365 7.70233 23.3773 7.73664 23.4607L8.11298 24.1401C8.15292 24.2226 8.15192 24.2313 8.21234 24.2932C8.28864 24.371 8.45248 24.6864 8.50983 24.8006C8.54157 24.8651 8.57643 24.8989 8.61074 24.9521C8.72953 25.138 8.835 25.3438 8.96148 25.525L9.31941 26.1061C9.34246 26.1476 9.34244 26.1379 9.36907 26.1742C9.39109 26.2034 9.40081 26.2275 9.41617 26.2602C9.47813 26.3826 9.74647 26.7138 9.84222 26.891L10.2595 27.5146C10.28 27.5386 10.2985 27.5617 10.3179 27.5898C10.4101 27.7183 10.5217 27.8397 10.6031 27.9759C10.706 28.1504 11.1531 28.7377 11.2693 28.8872L11.9806 29.7534C12.1065 29.8891 12.2013 30.0591 12.3323 30.1891L13.0897 30.9924C13.0922 30.995 13.0958 30.997 13.0984 31.0011C13.2878 31.2059 13.5049 31.3907 13.7087 31.5812C13.7369 31.6078 13.7476 31.6237 13.7778 31.6467L14.4901 32.2437C14.5413 32.2811 14.6028 32.3138 14.6468 32.3543L14.7063 32.4137C14.7319 32.4331 14.7621 32.45 14.7877 32.4659L15.0933 32.6963C15.2982 32.8043 15.7703 33.1576 15.9003 33.2154C15.9321 33.2297 15.9536 33.2384 15.9802 33.2518L16.2373 33.3987C16.3356 33.4714 16.4713 33.5359 16.5819 33.5902C16.6403 33.6194 16.6899 33.6424 16.7457 33.6777C16.8184 33.7212 16.8635 33.7248 16.9352 33.7576C16.9982 33.7868 17.031 33.8195 17.1098 33.8523L17.6511 34.0986C17.7156 34.1288 17.7832 34.1375 17.8502 34.1677C17.9342 34.203 17.9245 34.2199 18.0346 34.2516C18.1037 34.2711 18.1718 34.2798 18.2322 34.3064C18.3085 34.3392 18.327 34.3648 18.4202 34.3853C18.5768 34.4206 18.6701 34.481 18.8267 34.5174C19.1068 34.5793 19.0049 34.5696 19.2271 34.6361C19.3014 34.6582 19.368 34.6617 19.4346 34.6797C19.5027 34.6981 19.5692 34.7283 19.6373 34.7452C19.7305 34.7693 19.7392 34.7718 19.8509 34.7841L20.3045 34.8665C20.3834 34.8824 20.4536 34.8921 20.5268 34.9126C20.6297 34.9443 21.3445 35.0329 21.4648 35.0329H23.5628C23.9074 35.0329 24.2935 35.0718 24.5531 34.9991L24.912 34.8389C24.975 34.8123 25.0528 34.7918 25.1035 34.7611C25.2336 34.6858 25.4164 34.4723 25.4579 34.3279C25.5065 34.1651 25.5633 34.0853 25.5766 33.9107L25.6094 33.1704C25.6084 33.0587 25.6238 33.0198 25.6263 32.919C25.6299 32.7649 25.6724 32.6072 25.6918 32.4654C25.7123 32.321 25.7247 32.1172 25.7564 31.9923C25.7748 31.9181 25.8025 31.8832 25.8209 31.8044C25.8598 31.6319 25.8644 31.5423 25.9448 31.3933C25.9812 31.3252 25.975 31.2612 26.0068 31.1859C26.036 31.1178 26.0723 31.0912 26.1015 31.0293C26.1353 30.9566 26.1404 30.9105 26.1814 30.8398C26.3345 30.5777 26.4497 30.4866 26.6935 30.2951C26.8061 30.2076 26.9157 30.163 27.0621 30.1277C27.3694 30.055 27.7805 30.2403 28.0145 30.4323C28.0693 30.4774 28.1201 30.5014 28.1759 30.5393C28.2122 30.5624 28.2132 30.5711 28.2511 30.5987L29.4319 31.7829C29.4549 31.8111 29.4734 31.8244 29.4985 31.851C29.5205 31.874 29.5313 31.8909 29.5497 31.9155C29.5717 31.9447 29.5861 31.9616 29.6117 31.9897C29.8155 32.2288 30.0146 32.4689 30.2363 32.6896C30.4012 32.8524 30.5579 33.0623 30.7397 33.2431L31.3936 33.8968C31.4592 33.9649 31.4812 33.9614 31.5503 34.0095C31.6414 34.075 31.7638 34.2051 31.9922 34.3566L32.3163 34.5522C32.389 34.5921 32.3952 34.6187 32.4812 34.6551C32.5176 34.6694 32.5457 34.6791 32.5759 34.695L32.8683 34.8056C33.066 34.8614 32.9057 34.8675 33.2483 34.9454C33.3333 34.9648 33.3645 34.9879 33.4521 35.0109C33.5576 35.0375 33.5831 35.0242 33.6948 35.0365C34.0056 35.0693 34.3512 35.0329 34.6718 35.0339H38.8993C39.142 35.0339 39.4165 35.0739 39.6495 34.995L40.2404 34.7959C40.375 34.7605 40.3243 34.7861 40.4262 34.7145C40.6157 34.5808 40.522 34.7268 40.7842 34.4185C41.0233 34.137 40.9977 33.9199 40.9977 33.5743L40.8328 33.1023L39.9193 31.6672L38.8287 30.4077C38.7959 30.3714 38.7606 30.3238 38.7329 30.2864C38.6674 30.2024 38.5875 30.1482 38.5219 30.0622L38.2439 29.7857C38.2414 29.7831 38.2378 29.7795 38.2352 29.7785C38.2193 29.7642 38.2157 29.7616 38.1999 29.7468C38.1584 29.7079 38.1307 29.6777 38.0908 29.6377C38.0165 29.5635 37.9525 29.5077 37.887 29.4232C37.7984 29.309 37.5593 29.0991 37.4538 28.9998C37.3775 28.9297 37.2971 28.8698 37.2316 28.7853C37.1209 28.6409 36.9791 28.5477 36.8434 28.4361L36.1276 27.7593C36.0815 27.7132 36.0497 27.7035 36.0098 27.66L35.8547 27.4961C35.7502 27.4004 35.3047 26.9028 35.2576 26.8178C35.2105 26.7328 35.169 26.7051 35.1373 26.6033C35.1035 26.4942 35.0292 26.4384 34.9965 26.3242C34.9068 26.0053 34.9104 25.8752 34.9903 25.5429C35.0098 25.4641 35.0108 25.418 35.0461 25.3463L35.1577 25.0893C35.1782 25.0494 35.1915 25.0381 35.21 25.0079L35.3897 24.6839C35.5146 24.4837 35.6723 24.3029 35.7998 24.1028C35.8157 24.0761 35.8291 24.0557 35.846 24.0326L36.017 23.8181C36.0559 23.7695 36.0789 23.7188 36.1178 23.6666C36.1552 23.6143 36.1798 23.5744 36.2223 23.5212L36.6626 22.9703C36.7697 22.8285 36.8583 22.6646 36.9832 22.5371L37.6883 21.6141C37.7113 21.5849 37.7236 21.5618 37.7431 21.5352C37.7784 21.4855 37.8158 21.4466 37.8558 21.3954C37.8814 21.3616 37.8778 21.3581 37.9018 21.3238C38.017 21.1563 38.1604 20.9976 38.2767 20.8261C38.3166 20.7678 38.3432 20.7411 38.3837 20.6817L38.5388 20.4683C38.5629 20.4319 38.5777 20.4283 38.6018 20.3966C38.6417 20.3433 38.6453 20.2937 38.695 20.2389L39.0591 19.7305C39.0847 19.6967 39.0955 19.688 39.1185 19.6563L40.0904 18.1275C40.1293 18.062 40.1631 18.0425 40.1923 17.9785C40.2261 17.9043 40.2358 17.8777 40.2747 17.8101L40.606 17.1332C40.6398 17.0324 40.6874 16.9802 40.755 16.7815C40.8083 16.631 40.8569 16.5778 40.8851 16.4068C40.8984 16.3218 40.9091 16.2916 40.9399 16.2112C41.0238 15.9915 40.9983 15.7888 40.9983 15.5635C40.9983 15.5297 40.9168 15.436 40.8953 15.3818C40.8441 15.2533 40.8697 15.2922 40.7668 15.2082C40.6818 15.1381 40.5835 15.1028 40.4949 15.0444C40.3904 14.9763 40.2839 14.9666 40.1564 14.9461C40.0535 14.9292 40.011 14.9087 39.9101 14.8913C39.7125 14.856 39.5645 14.8427 39.353 14.8427H33.9846C33.896 14.8427 33.8571 14.857 33.7977 14.8585C33.7358 14.8611 33.703 14.8427 33.6144 14.8427C32.8453 14.8427 33.1264 14.8995 32.8304 14.965C32.7055 14.9917 32.7019 15.0162 32.556 15.1606C32.5391 15.1775 32.5048 15.2174 32.4858 15.2405C32.4433 15.2901 32.4116 15.3664 32.3696 15.4263C32.2359 15.6193 32.2057 15.8728 32.0879 16.0668C32.0408 16.1482 32.0393 16.205 32.0065 16.2875C31.9712 16.376 31.9364 16.3991 31.9093 16.4923C31.8755 16.6136 31.8739 16.6279 31.8197 16.7216C31.7782 16.7933 31.7638 16.8614 31.7372 16.9413L31.497 17.4717C31.4776 17.5285 31.4689 17.5285 31.4366 17.5797C31.3762 17.6708 31.3685 17.8039 31.303 17.8986C31.2579 17.9632 31.2462 18.0359 31.2011 18.0988C31.1268 18.2017 31.1171 18.3123 31.0505 18.4178L30.8539 18.8253C30.814 18.9129 30.792 18.9456 30.751 19.0245L30.4827 19.5267C30.4207 19.6604 30.3587 19.7971 30.2701 19.9199C30.2287 19.9757 30.241 19.9624 30.2133 20.0305C30.1734 20.1252 30.1391 20.1385 30.0884 20.2066L29.6286 20.9879C29.6045 21.0243 29.5896 21.0427 29.5681 21.079L29.4432 21.2572C29.4202 21.29 29.4114 21.3192 29.3909 21.3545C29.2501 21.5767 29.0064 21.8772 28.8994 22.0887C28.8835 22.1189 28.8676 22.1588 28.8482 22.188C28.8241 22.2279 28.8047 22.2392 28.7729 22.2801L28.5108 22.6211C28.4867 22.6564 28.4692 22.6795 28.4462 22.7087L28.3161 22.8812C28.288 22.9165 28.2691 22.9406 28.2419 22.9759L27.7396 23.5462L27.1743 24.0536C27.0165 24.1811 26.7227 24.3255 26.5117 24.2927C26.2644 24.2538 26.2618 24.1908 26.1102 24.0705C26.0473 24.0193 25.8808 23.8022 25.8552 23.7234C25.8137 23.5995 25.7764 23.5959 25.7523 23.5232C25.7231 23.4418 25.7185 23.3522 25.6831 23.2744C25.615 23.1213 25.614 22.9406 25.5884 22.7481C25.5787 22.6779 25.5741 22.5407 25.5644 22.4701C25.5326 22.23 25.5229 21.4702 25.5459 21.269L25.5761 20.0592C25.5761 19.9583 25.5761 19.858 25.5761 19.7571C25.5761 19.6455 25.593 19.5836 25.593 19.4551C25.592 19.0352 25.6115 18.6533 25.6099 18.2478L25.6596 16.1851C25.6596 16.0371 25.634 15.9496 25.6268 15.8164L25.5807 15.4427C25.5649 15.3567 25.5674 15.3587 25.5357 15.286C25.5065 15.2205 25.4921 15.2011 25.4763 15.1273C25.4399 14.9492 25.4215 14.9722 25.3381 14.8473C25.2254 14.6799 25.1972 14.6481 25.0636 14.5186L24.8014 14.3599L24.3282 14.196C24.191 14.172 24.104 14.1853 23.975 14.1464C23.6923 14.0588 23.1741 13.9959 22.8745 13.9887C22.8064 13.9861 22.747 13.9933 22.6789 13.9815C22.6134 13.9718 22.577 13.9559 22.5053 13.9549C22.3681 13.9513 22.2227 13.9549 22.0855 13.9559C21.9375 13.9559 21.8417 13.9375 21.6825 13.9375C21.3486 13.9385 20.7674 13.9047 20.4837 13.9472C20.2349 13.9846 19.9574 13.9278 19.7121 13.9641C19.5385 13.9907 19.347 13.9738 19.1698 14.0092C19.1212 14.0199 19.0536 14.0215 18.9804 14.0215C18.4949 14.025 18.2364 14.1418 17.9455 14.1781C17.8098 14.195 17.7427 14.2073 17.6275 14.2631C17.5691 14.2913 17.5461 14.3082 17.4831 14.3189C17.3935 14.3373 17.118 14.4367 17.0489 14.4889C16.799 14.6783 16.2967 14.985 16.2967 15.3311L16.2931 15.3224Z" fill="white"/>
</g>
<defs>
<filter id="filter0_i_363_62" x="0" y="0" width="57.0968" height="52.0898" filterUnits="userSpaceOnUse" color-interpolation-filters="sRGB">
<feFlood flood-opacity="0" result="BackgroundImageFix"/>
<feBlend mode="normal" in="SourceGraphic" in2="BackgroundImageFix" result="shape"/>
<feColorMatrix in="SourceAlpha" type="matrix" values="0 0 0 0 0 0 0 0 0 0 0 0 0 0 0 0 0 0 127 0" result="hardAlpha"/>
<feOffset dx="15" dy="5"/>
<feGaussianBlur stdDeviation="5"/>
<feComposite in2="hardAlpha" operator="arithmetic" k2="-1" k3="1"/>
<feColorMatrix type="matrix" values="0 0 0 0 0 0 0 0 0 0 0 0 0 0 0 0 0 0 0.25 0"/>
<feBlend mode="normal" in2="shape" result="effect1_innerShadow_363_62"/>
</filter>
</defs>
</svg>
