<svg width="59" height="59" viewBox="0 0 59 59" fill="none" xmlns="http://www.w3.org/2000/svg">
<path d="M29.3551 58.7213C13.1427 58.7213 -1.90735e-05 45.5761 -1.90735e-05 29.3606C-1.90735e-05 13.1452 13.1427 0 29.3551 0C45.5675 0 58.7102 13.1452 58.7102 29.3606C58.7102 45.5761 45.5675 58.7213 29.3551 58.7213Z" fill="#E4097F"/>
<path fill-rule="evenodd" clip-rule="evenodd" d="M48.0669 29.8361C48.0669 32.7362 47.6181 35.2288 46.3543 37.8632C45.8784 38.8578 45.3256 39.5217 45.5217 40.2116C45.9315 41.6529 48.7272 49.224 48.7332 49.8784C48.2666 49.8406 43.7477 48.325 42.8051 48.0178L39.1509 46.8708C38.0973 46.5235 38.656 46.4254 36.8631 47.2641C25.0603 52.7857 9.97052 44.2718 9.9776 29.8361C9.98587 16.2768 24.1697 6.8262 36.896 12.5414C43.3768 15.4511 48.0669 21.946 48.0669 29.8361ZM43.945 45.1567L38.4858 43.4591C37.5586 43.126 37.476 43.6103 36.7862 43.9304C35.8473 44.3675 34.5221 45.0893 33.3847 45.3197C31.9178 45.6186 30.7674 45.895 29.0784 45.8914H29.0016C20.1894 45.8725 13.0366 38.7125 13.0307 29.9128C13.0272 25.1167 15.1094 21.2112 17.6984 18.6076C20.2909 16.0016 24.1603 13.9106 29.0784 13.9189C41.5402 13.939 49.0768 27.4663 42.8689 38.0096C42.6386 38.3995 42.4462 38.6617 42.2265 38.9807C41.9548 39.3753 42.1874 39.8041 42.3339 40.2424C42.5264 40.8224 43.9154 44.6711 43.945 45.1567ZM35.7906 21.3234C36.8808 21.5455 37.8091 22.93 38.1174 24.0287C38.5296 25.497 38.2815 27.2454 37.6815 28.4173C36.902 29.9424 36.8725 29.9719 35.7422 31.4911C33.5926 34.3794 30.6304 36.9571 27.1379 38.0734C25.2942 38.6641 24.0245 39.3103 22.0296 38.507C20.3902 37.8454 19.3791 36.7444 19.3555 34.8413C19.3437 33.9518 20.0181 33.9034 20.6689 33.5891C21.2819 33.2914 21.7532 33.0185 22.3768 32.7527C22.8539 32.5496 23.6464 31.9636 24.263 32.1975C24.9728 32.4669 25.5823 34.7764 26.8981 34.4857C27.1449 34.4314 28.2858 33.8585 28.5988 33.6718C29.1575 33.3399 29.6524 33.0528 30.1355 32.663C31.1442 31.8478 31.8445 31.1237 32.5839 30.1066C33.9847 28.1798 33.7094 28.4338 32.5012 27.0257C31.5161 25.8774 32.056 25.7735 32.9359 23.4498C33.5087 21.9401 33.609 21.2951 34.5433 21.2549C34.9945 21.236 35.3819 21.2407 35.7906 21.3234Z" fill="#FEFEFD"/>
</svg>
